<?xml version="1.0" standalone="no"?><!DOCTYPE svg PUBLIC "-//W3C//DTD SVG 1.1//EN" "http://www.w3.org/Graphics/SVG/1.1/DTD/svg11.dtd" ><svg version="1.1" xmlns="http://www.w3.org/2000/svg"><defs><font horiz-adv-x="0" id="font"><font-face ascent="838" bbox="-170 -219 1153 942" cap-height="700" descent="-162" font-family="Stag Web USCC" font-stretch="normal" font-style="normal" font-weight="500" units-per-em="1000" x-height="525" /><missing-glyph horiz-adv-x="500" /><glyph d="M28 83H51Q78 83 89 114L259 583Q264 597 258.5 605.5Q253 614 241 614H188V700H486L682 111Q686 99 695.5 91Q705 83 716 83H741V0H439V83H530L487 216H236L221 173Q206 131 212 107Q218 83 253 83H294V0H28ZM267 303H459L369 584H367Z" glyph-name="A" horiz-adv-x="769" unicode="A" /><glyph d="M737 312H643V90H871L885 213H984V0H420V83H458Q469 83 478 93.5Q487 104 487 114V216H259L235 173Q211 131 221.5 107Q232 83 267 83H308V0H28V83H51Q65 83 73 91Q81 99 89 114L347 583Q354 595 347.5 604.5Q341 614 329 614H278V700H973V500H879L864 607H643V399H736L745 479H835V232H745ZM307 303H487V607H476Z" glyph-name="AE" horiz-adv-x="1015" unicode="&#198;" /><glyph d="M28 83H51Q78 83 89 114L259 583Q264 597 258.5 605.5Q253 614 241 614H188V700H486L682 111Q686 99 695.5 91Q705 83 716 83H741V0H439V83H530L487 216H236L221 173Q206 131 212 107Q218 83 253 83H294V0H28ZM267 303H459L369 584H367ZM348 875H494V825L397 737H320Z" glyph-name="Aacute" horiz-adv-x="769" unicode="&#193;" /><glyph d="M28 83H51Q78 83 89 114L259 583Q264 597 258.5 605.5Q253 614 241 614H188V700H486L682 111Q686 99 695.5 91Q705 83 716 83H741V0H439V83H530L487 216H236L221 173Q206 131 212 107Q218 83 253 83H294V0H28ZM267 303H459L369 584H367ZM235 774 306 875H426L493 774V737H440L362 797L284 737H235Z" glyph-name="Acircumflex" horiz-adv-x="769" unicode="&#194;" /><glyph d="M28 83H51Q78 83 89 114L259 583Q264 597 258.5 605.5Q253 614 241 614H188V700H486L682 111Q686 99 695.5 91Q705 83 716 83H741V0H439V83H530L487 216H236L221 173Q206 131 212 107Q218 83 253 83H294V0H28ZM267 303H459L369 584H367ZM269 741Q237 741 215.5 762Q194 783 194 814Q194 844 215.5 865.5Q237 887 269 887Q301 887 322.5 865.5Q344 844 344 814Q344 783 322.5 762Q301 741 269 741ZM461 741Q429 741 407.5 762Q386 783 386 814Q386 844 407.5 865.5Q429 887 461 887Q493 887 514.5 865.5Q536 844 536 814Q536 783 514.5 762Q493 741 461 741Z" glyph-name="Adieresis" horiz-adv-x="769" unicode="&#196;" /><glyph d="M28 83H51Q78 83 89 114L259 583Q264 597 258.5 605.5Q253 614 241 614H188V700H486L682 111Q686 99 695.5 91Q705 83 716 83H741V0H439V83H530L487 216H236L221 173Q206 131 212 107Q218 83 253 83H294V0H28ZM267 303H459L369 584H367ZM333 737 236 825V875H382L410 737Z" glyph-name="Agrave" horiz-adv-x="769" unicode="&#192;" /><glyph d="M28 83H51Q78 83 89 114L259 583Q264 597 258.5 605.5Q253 614 241 614H188V700H486L682 111Q686 99 695.5 91Q705 83 716 83H741V0H439V83H530L487 216H236L221 173Q206 131 212 107Q218 83 253 83H294V0H28ZM267 303H459L369 584H367ZM365 741Q322 741 291 767.5Q260 794 260 841Q260 888 291 915Q322 942 365 942Q408 942 439 915Q470 888 470 841Q470 794 439 767.5Q408 741 365 741ZM365 787Q388 787 403 801.5Q418 816 418 841Q418 867 403 881.5Q388 896 365 896Q342 896 327.5 881.5Q313 867 313 841Q313 816 327.5 801.5Q342 787 365 787Z" glyph-name="Aring" horiz-adv-x="769" unicode="&#197;" /><glyph d="M28 83H51Q78 83 89 114L259 583Q264 597 258.5 605.5Q253 614 241 614H188V700H486L682 111Q686 99 695.5 91Q705 83 716 83H741V0H439V83H530L487 216H236L221 173Q206 131 212 107Q218 83 253 83H294V0H28ZM267 303H459L369 584H367ZM197 812Q211 836 233.5 853.5Q256 871 296 871Q314 871 332.5 866.5Q351 862 369 857Q387 852 402 847.5Q417 843 427 843Q444 843 453 851.5Q462 860 467 875H533V800Q519 776 496.5 758.5Q474 741 434 741Q416 741 397.5 746Q379 751 361 757Q343 763 328 768Q313 773 303 773Q286 773 277 763.5Q268 754 263 739H197Z" glyph-name="Atilde" horiz-adv-x="769" unicode="&#195;" /><glyph d="M441 367Q524 355 567.5 315.5Q611 276 611 204Q611 153 591 114.5Q571 76 534 50.5Q497 25 444.5 12.5Q392 0 326 0H31V86H69Q80 86 89 96.5Q98 107 98 117V586Q98 596 89 606.5Q80 617 69 617H31V700H318Q450 700 517.5 656.5Q585 613 585 521Q585 455 549 420Q513 385 441 371ZM322 92Q360 92 385 100.5Q410 109 424.5 124.5Q439 140 445 162Q451 184 451 211Q451 238 445 259Q439 280 424.5 294Q410 308 385 315Q360 322 322 322H254V92ZM314 407Q379 407 405 433Q431 459 431 509Q431 560 405.5 584Q380 608 314 608H254V407Z" glyph-name="B" horiz-adv-x="644" unicode="B" /><glyph d="M620 700V474H516L500 589Q483 596 453 601Q423 606 388 606Q347 606 313 591.5Q279 577 254 546.5Q229 516 215 468Q201 420 201 354Q201 223 248 157Q295 91 386 91Q446 91 486.5 115Q527 139 556 177H628V69Q583 36 520.5 14Q458 -8 379 -8Q300 -8 236.5 15.5Q173 39 129 84Q85 129 61 195.5Q37 262 37 348Q37 434 61.5 501Q86 568 131.5 614Q177 660 241 684Q305 708 383 708Q429 708 459.5 705Q490 702 504 700Z" glyph-name="C" horiz-adv-x="666" unicode="C" /><glyph d="M357 -175Q330 -175 311.5 -170Q293 -165 277 -158V-101H311Q321 -115 345 -115Q373 -115 373 -93Q373 -71 338 -71H316V-3Q185 14 111 103.5Q37 193 37 348Q37 434 61.5 501Q86 568 131.5 614Q177 660 241 684Q305 708 383 708Q429 708 459.5 705Q490 702 504 700H620V474H516L500 589Q483 596 453 601Q423 606 388 606Q347 606 313 591.5Q279 577 254 546.5Q229 516 215 468Q201 420 201 354Q201 223 248 157Q295 91 386 91Q446 91 486.5 115Q527 139 556 177H628V69Q583 36 520.5 14Q458 -8 379 -8V-25Q423 -27 442.5 -46Q462 -65 462 -98Q462 -134 435 -154.5Q408 -175 357 -175Z" glyph-name="Ccedilla" horiz-adv-x="666" unicode="&#199;" /><glyph d="M31 83H69Q80 83 89 93.5Q98 104 98 114V583Q98 593 89 603.5Q80 614 69 614H31V700H319Q407 700 476 679.5Q545 659 593 616.5Q641 574 666 508.5Q691 443 691 353Q691 265 665.5 199Q640 133 592 88.5Q544 44 474 22Q404 0 315 0H31ZM315 87Q424 87 477.5 150Q531 213 531 351Q531 488 478 548Q425 608 315 608H254V87Z" glyph-name="D" horiz-adv-x="729" unicode="D" /><glyph d="M31 83H69Q80 83 89 93.5Q98 104 98 114V583Q98 593 89 603.5Q80 614 69 614H31V700H589V500H495L480 607H254V399H352L361 479H451V232H361L353 312H254V90H487L501 211H600V0H31Z" glyph-name="E" horiz-adv-x="631" unicode="E" /><glyph d="M31 83H69Q80 83 89 93.5Q98 104 98 114V583Q98 593 89 603.5Q80 614 69 614H31V700H589V500H495L480 607H254V399H352L361 479H451V232H361L353 312H254V90H487L501 211H600V0H31ZM308 875H454V825L357 737H280Z" glyph-name="Eacute" horiz-adv-x="631" unicode="&#201;" /><glyph d="M31 83H69Q80 83 89 93.5Q98 104 98 114V583Q98 593 89 603.5Q80 614 69 614H31V700H589V500H495L480 607H254V399H352L361 479H451V232H361L353 312H254V90H487L501 211H600V0H31ZM195 774 266 875H386L453 774V737H400L322 797L244 737H195Z" glyph-name="Ecircumflex" horiz-adv-x="631" unicode="&#202;" /><glyph d="M31 83H69Q80 83 89 93.5Q98 104 98 114V583Q98 593 89 603.5Q80 614 69 614H31V700H589V500H495L480 607H254V399H352L361 479H451V232H361L353 312H254V90H487L501 211H600V0H31ZM229 741Q197 741 175.5 762Q154 783 154 814Q154 844 175.5 865.5Q197 887 229 887Q261 887 282.5 865.5Q304 844 304 814Q304 783 282.5 762Q261 741 229 741ZM421 741Q389 741 367.5 762Q346 783 346 814Q346 844 367.5 865.5Q389 887 421 887Q453 887 474.5 865.5Q496 844 496 814Q496 783 474.5 762Q453 741 421 741Z" glyph-name="Edieresis" horiz-adv-x="631" unicode="&#203;" /><glyph d="M31 83H69Q80 83 89 93.5Q98 104 98 114V583Q98 593 89 603.5Q80 614 69 614H31V700H589V500H495L480 607H254V399H352L361 479H451V232H361L353 312H254V90H487L501 211H600V0H31ZM293 737 196 825V875H342L370 737Z" glyph-name="Egrave" horiz-adv-x="631" unicode="&#200;" /><glyph d="M31 389H98V583Q98 593 89 603.5Q80 614 69 614H31V700H319Q407 700 476 679.5Q545 659 593 616.5Q641 574 666 508.5Q691 443 691 353Q691 265 665.5 199Q640 133 592 88.5Q544 44 474 22Q404 0 315 0H31V83H69Q80 83 89 93.5Q98 104 98 114V302H31ZM315 87Q424 87 477.5 150Q531 213 531 351Q531 488 478 548Q425 608 315 608H254V389H397V302H254V87Z" glyph-name="Eth" horiz-adv-x="729" unicode="&#208;" /><glyph d="M38 446H91Q102 511 128.5 560Q155 609 193 642Q231 675 279 691.5Q327 708 383 708Q452 708 500.5 699.5Q549 691 583 676V526H495Q489 544 481.5 558.5Q474 573 461.5 583.5Q449 594 431 600Q413 606 386 606Q329 606 293.5 570Q258 534 247 446H444L429 374H242V314H417L402 242H248Q259 164 291.5 127.5Q324 91 387 91Q411 91 429 96Q447 101 461 110Q475 119 485.5 131Q496 143 505 156H584V44Q542 21 495 6.5Q448 -8 383 -8Q269 -8 192 54Q115 116 92 242H38V314H84Q83 322 83 330.5Q83 339 83 348V374H38Z" glyph-name="Euro" horiz-adv-x="622" unicode="&#8364;" /><glyph d="M31 83H69Q80 83 89 93.5Q98 104 98 114V583Q98 593 89 603.5Q80 614 69 614H31V700H584V492H490L475 607H254V384H350L359 464H449V211H359L350 297H254V83H341V0H31Z" glyph-name="F" horiz-adv-x="615" unicode="F" /><glyph d="M365 -8Q290 -8 229 15.5Q168 39 125.5 84Q83 129 60 195.5Q37 262 37 348Q37 434 61.5 501Q86 568 131.5 614Q177 660 241 684Q305 708 385 708Q427 708 455.5 705Q484 702 497 700H611V480H507L491 589Q474 596 447 601Q420 606 385 606Q346 606 312 591.5Q278 577 253.5 546.5Q229 516 215 468Q201 420 201 354Q201 223 244.5 157Q288 91 372 91Q406 91 426.5 94Q447 97 466 103V247H397V333H672V247H648Q637 247 628 236.5Q619 226 619 216V0H537Q534 6 530 11Q526 15 521.5 18.5Q517 22 509 22Q480 8 447.5 0Q415 -8 365 -8Z" glyph-name="G" horiz-adv-x="700" unicode="G" /><glyph d="M31 83H69Q80 83 89 93.5Q98 104 98 114V583Q98 593 89 603.5Q80 614 69 614H31V700H333V614H254V402H511V614H432V700H735V614H696Q685 614 676 603.5Q667 593 667 583V114Q667 104 676 93.5Q685 83 696 83H735V0H432V83H511V313H254V83H333V0H31Z" glyph-name="H" horiz-adv-x="766" unicode="H" /><glyph d="M31 83H77Q88 83 96.5 93.5Q105 104 105 114V583Q105 593 96.5 603.5Q88 614 77 614H31V700H336V614H290Q279 614 270.5 603.5Q262 593 262 583V114Q262 104 270.5 93.5Q279 83 290 83H336V0H31Z" glyph-name="I" horiz-adv-x="367" unicode="I" /><glyph d="M31 83H77Q88 83 96.5 93.5Q105 104 105 114V583Q105 593 96.5 603.5Q88 614 77 614H31V700H336V614H290Q279 614 270.5 603.5Q262 593 262 583V114Q262 104 270.5 93.5Q279 83 290 83H336V0H31ZM167 875H313V825L216 737H139Z" glyph-name="Iacute" horiz-adv-x="367" unicode="&#205;" /><glyph d="M31 83H77Q88 83 96.5 93.5Q105 104 105 114V583Q105 593 96.5 603.5Q88 614 77 614H31V700H336V614H290Q279 614 270.5 603.5Q262 593 262 583V114Q262 104 270.5 93.5Q279 83 290 83H336V0H31ZM54 774 125 875H245L312 774V737H259L181 797L103 737H54Z" glyph-name="Icircumflex" horiz-adv-x="367" unicode="&#206;" /><glyph d="M31 83H77Q88 83 96.5 93.5Q105 104 105 114V583Q105 593 96.5 603.5Q88 614 77 614H31V700H336V614H290Q279 614 270.5 603.5Q262 593 262 583V114Q262 104 270.5 93.5Q279 83 290 83H336V0H31ZM88 741Q56 741 34.5 762Q13 783 13 814Q13 844 34.5 865.5Q56 887 88 887Q120 887 141.5 865.5Q163 844 163 814Q163 783 141.5 762Q120 741 88 741ZM280 741Q248 741 226.5 762Q205 783 205 814Q205 844 226.5 865.5Q248 887 280 887Q312 887 333.5 865.5Q355 844 355 814Q355 783 333.5 762Q312 741 280 741Z" glyph-name="Idieresis" horiz-adv-x="367" unicode="&#207;" /><glyph d="M31 83H77Q88 83 96.5 93.5Q105 104 105 114V583Q105 593 96.5 603.5Q88 614 77 614H31V700H336V614H290Q279 614 270.5 603.5Q262 593 262 583V114Q262 104 270.5 93.5Q279 83 290 83H336V0H31ZM152 737 55 825V875H201L229 737Z" glyph-name="Igrave" horiz-adv-x="367" unicode="&#204;" /><glyph d="M270 583Q270 593 261.5 603.5Q253 614 242 614H196V700H501V614H455Q444 614 435.5 603.5Q427 593 427 583V174Q427 80 371.5 36Q316 -8 200 -8Q146 -8 107 1.5Q68 11 33 27V135H116Q129 116 147 104Q165 92 197 92Q270 92 270 177Z" glyph-name="J" horiz-adv-x="532" unicode="J" /><glyph d="M31 83H69Q80 83 89 93.5Q98 104 98 114V583Q98 593 89 603.5Q80 614 69 614H31V700H322V614H254V346L449 552Q478 582 472.5 598Q467 614 438 614H428V700H695V614H671Q658 614 647.5 605Q637 596 619 582L442 410L645 110Q652 101 659.5 92Q667 83 678 83H704V0H493V75L341 311L254 226V83H322V0H31Z" glyph-name="K" horiz-adv-x="735" unicode="K" /><glyph d="M31 83H69Q80 83 89 93.5Q98 104 98 114V583Q98 593 89 603.5Q80 614 69 614H31V700H348V614H254V90H460L474 234H576V0H31Z" glyph-name="L" horiz-adv-x="607" unicode="L" /><glyph d="M31 306 98 332V583Q98 593 89 603.5Q80 614 69 614H31V700H348V614H254V395L437 468V377L254 304V90H460L474 233H576V0H31V83H69Q80 83 89 93.5Q98 104 98 114V241L31 215Z" glyph-name="Lslash" horiz-adv-x="607" unicode="&#321;" /><glyph d="M382 0 215 599H212V83H282V0H31V83H69Q80 83 89 93.5Q98 104 98 114V583Q98 593 89 603.5Q80 614 69 614H31V700H326L458 228H461L594 700H887V614H848Q837 614 828 603.5Q819 593 819 583V114Q819 104 828 93.5Q837 83 848 83H887V0H594V83H663V599H660L490 0Z" glyph-name="M" horiz-adv-x="918" unicode="M" /><glyph d="M31 83H69Q80 83 89 93.5Q98 104 98 114V583Q98 593 89 603.5Q80 614 69 614H31V700H255L533 251H536V614H458V700H716V614H679Q668 614 659.5 603.5Q651 593 651 583V0H519L215 488H212V83H292V0H31Z" glyph-name="N" horiz-adv-x="747" unicode="N" /><glyph d="M31 83H69Q80 83 89 93.5Q98 104 98 114V583Q98 593 89 603.5Q80 614 69 614H31V700H255L533 251H536V614H458V700H716V614H679Q668 614 659.5 603.5Q651 593 651 583V0H519L215 488H212V83H292V0H31ZM207 812Q221 836 243.5 853.5Q266 871 306 871Q324 871 342.5 866.5Q361 862 379 857Q397 852 412 847.5Q427 843 437 843Q454 843 463 851.5Q472 860 477 875H543V800Q529 776 506.5 758.5Q484 741 444 741Q426 741 407.5 746Q389 751 371 757Q353 763 338 768Q323 773 313 773Q296 773 287 763.5Q278 754 273 739H207Z" glyph-name="Ntilde" horiz-adv-x="747" unicode="&#209;" /><glyph d="M381 -8Q312 -8 249.5 15.5Q187 39 140 84.5Q93 130 65.5 196.5Q38 263 38 350Q38 437 65.5 503.5Q93 570 140 615.5Q187 661 249.5 684.5Q312 708 381 708Q450 708 512.5 684.5Q575 661 622 615.5Q669 570 696.5 503.5Q724 437 724 350Q724 263 696.5 196.5Q669 130 622 84.5Q575 39 512.5 15.5Q450 -8 381 -8ZM381 92Q420 92 453.5 108Q487 124 511.5 155.5Q536 187 550 235Q564 283 564 347Q564 411 550 459.5Q536 508 511.5 540Q487 572 453.5 588Q420 604 381 604Q341 604 307.5 588Q274 572 249.5 540Q225 508 211.5 459.5Q198 411 198 347Q198 283 211.5 235Q225 187 249.5 155.5Q274 124 307.5 108Q341 92 381 92Z" glyph-name="O" horiz-adv-x="762" unicode="O" /><glyph d="M410 0Q322 0 253 20.5Q184 41 136 83.5Q88 126 63 191.5Q38 257 38 347Q38 523 136.5 611.5Q235 700 414 700H949V500H855L840 607H618V399H712L721 479H811V232H721L713 312H618V90H847L861 213H960V0ZM414 607Q305 607 251.5 545.5Q198 484 198 347Q198 210 251 150Q304 90 414 90H462V607Z" glyph-name="OE" horiz-adv-x="991" unicode="&#338;" /><glyph d="M381 -8Q312 -8 249.5 15.5Q187 39 140 84.5Q93 130 65.5 196.5Q38 263 38 350Q38 437 65.5 503.5Q93 570 140 615.5Q187 661 249.5 684.5Q312 708 381 708Q450 708 512.5 684.5Q575 661 622 615.5Q669 570 696.5 503.5Q724 437 724 350Q724 263 696.5 196.5Q669 130 622 84.5Q575 39 512.5 15.5Q450 -8 381 -8ZM381 92Q420 92 453.5 108Q487 124 511.5 155.5Q536 187 550 235Q564 283 564 347Q564 411 550 459.5Q536 508 511.5 540Q487 572 453.5 588Q420 604 381 604Q341 604 307.5 588Q274 572 249.5 540Q225 508 211.5 459.5Q198 411 198 347Q198 283 211.5 235Q225 187 249.5 155.5Q274 124 307.5 108Q341 92 381 92ZM364 880H510V830L413 742H336Z" glyph-name="Oacute" horiz-adv-x="762" unicode="&#211;" /><glyph d="M381 -8Q312 -8 249.5 15.5Q187 39 140 84.5Q93 130 65.5 196.5Q38 263 38 350Q38 437 65.5 503.5Q93 570 140 615.5Q187 661 249.5 684.5Q312 708 381 708Q450 708 512.5 684.5Q575 661 622 615.5Q669 570 696.5 503.5Q724 437 724 350Q724 263 696.5 196.5Q669 130 622 84.5Q575 39 512.5 15.5Q450 -8 381 -8ZM381 92Q420 92 453.5 108Q487 124 511.5 155.5Q536 187 550 235Q564 283 564 347Q564 411 550 459.5Q536 508 511.5 540Q487 572 453.5 588Q420 604 381 604Q341 604 307.5 588Q274 572 249.5 540Q225 508 211.5 459.5Q198 411 198 347Q198 283 211.5 235Q225 187 249.5 155.5Q274 124 307.5 108Q341 92 381 92ZM251 779 322 880H442L509 779V742H456L378 802L300 742H251Z" glyph-name="Ocircumflex" horiz-adv-x="762" unicode="&#212;" /><glyph d="M381 -8Q312 -8 249.5 15.5Q187 39 140 84.5Q93 130 65.5 196.5Q38 263 38 350Q38 437 65.5 503.5Q93 570 140 615.5Q187 661 249.5 684.5Q312 708 381 708Q450 708 512.5 684.5Q575 661 622 615.5Q669 570 696.5 503.5Q724 437 724 350Q724 263 696.5 196.5Q669 130 622 84.5Q575 39 512.5 15.5Q450 -8 381 -8ZM381 92Q420 92 453.5 108Q487 124 511.5 155.5Q536 187 550 235Q564 283 564 347Q564 411 550 459.5Q536 508 511.5 540Q487 572 453.5 588Q420 604 381 604Q341 604 307.5 588Q274 572 249.5 540Q225 508 211.5 459.5Q198 411 198 347Q198 283 211.5 235Q225 187 249.5 155.5Q274 124 307.5 108Q341 92 381 92ZM285 746Q253 746 231.5 767Q210 788 210 819Q210 849 231.5 870.5Q253 892 285 892Q317 892 338.5 870.5Q360 849 360 819Q360 788 338.5 767Q317 746 285 746ZM477 746Q445 746 423.5 767Q402 788 402 819Q402 849 423.5 870.5Q445 892 477 892Q509 892 530.5 870.5Q552 849 552 819Q552 788 530.5 767Q509 746 477 746Z" glyph-name="Odieresis" horiz-adv-x="762" unicode="&#214;" /><glyph d="M381 -8Q312 -8 249.5 15.5Q187 39 140 84.5Q93 130 65.5 196.5Q38 263 38 350Q38 437 65.5 503.5Q93 570 140 615.5Q187 661 249.5 684.5Q312 708 381 708Q450 708 512.5 684.5Q575 661 622 615.5Q669 570 696.5 503.5Q724 437 724 350Q724 263 696.5 196.5Q669 130 622 84.5Q575 39 512.5 15.5Q450 -8 381 -8ZM381 92Q420 92 453.5 108Q487 124 511.5 155.5Q536 187 550 235Q564 283 564 347Q564 411 550 459.5Q536 508 511.5 540Q487 572 453.5 588Q420 604 381 604Q341 604 307.5 588Q274 572 249.5 540Q225 508 211.5 459.5Q198 411 198 347Q198 283 211.5 235Q225 187 249.5 155.5Q274 124 307.5 108Q341 92 381 92ZM349 742 252 830V880H398L426 742Z" glyph-name="Ograve" horiz-adv-x="762" unicode="&#210;" /><glyph d="M625 612Q671 566 697.5 500.5Q724 435 724 350Q724 263 696.5 196.5Q669 130 622 84.5Q575 39 512.5 15.5Q450 -8 381 -8Q277 -8 195 42L141 -29H52L139 85Q92 131 65 197Q38 263 38 350Q38 437 65.5 503.5Q93 570 140 615.5Q187 661 249.5 684.5Q312 708 381 708Q486 708 570 656L619 721H708ZM198 347Q198 299 204.5 262.5Q211 226 223 197L497 560Q474 583 444.5 593.5Q415 604 381 604Q341 604 307.5 588Q274 572 249.5 540Q225 508 211.5 459.5Q198 411 198 347ZM381 92Q420 92 453.5 108Q487 124 511.5 155.5Q536 187 550 235Q564 283 564 347Q564 394 557.5 431Q551 468 539 497L265 134Q288 112 317.5 102Q347 92 381 92Z" glyph-name="Oslash" horiz-adv-x="762" unicode="&#216;" /><glyph d="M381 -8Q312 -8 249.5 15.5Q187 39 140 84.5Q93 130 65.5 196.5Q38 263 38 350Q38 437 65.5 503.5Q93 570 140 615.5Q187 661 249.5 684.5Q312 708 381 708Q450 708 512.5 684.5Q575 661 622 615.5Q669 570 696.5 503.5Q724 437 724 350Q724 263 696.5 196.5Q669 130 622 84.5Q575 39 512.5 15.5Q450 -8 381 -8ZM381 92Q420 92 453.5 108Q487 124 511.5 155.5Q536 187 550 235Q564 283 564 347Q564 411 550 459.5Q536 508 511.5 540Q487 572 453.5 588Q420 604 381 604Q341 604 307.5 588Q274 572 249.5 540Q225 508 211.5 459.5Q198 411 198 347Q198 283 211.5 235Q225 187 249.5 155.5Q274 124 307.5 108Q341 92 381 92ZM213 817Q227 841 249.5 858.5Q272 876 312 876Q330 876 348.5 871.5Q367 867 385 862Q403 857 418 852.5Q433 848 443 848Q460 848 469 856.5Q478 865 483 880H549V805Q535 781 512.5 763.5Q490 746 450 746Q432 746 413.5 751Q395 756 377 762Q359 768 344 773Q329 778 319 778Q302 778 293 768.5Q284 759 279 744H213Z" glyph-name="Otilde" horiz-adv-x="762" unicode="&#213;" /><glyph d="M31 0V83H69Q80 83 89 93.5Q98 104 98 114V583Q98 593 89 603.5Q80 614 69 614H31V700H330Q395 700 447 687.5Q499 675 535.5 648Q572 621 591.5 579.5Q611 538 611 481Q611 368 535 315Q459 262 326 262H254V83H341V0ZM254 349H326Q364 349 388 359Q412 369 426 386Q440 403 445.5 427Q451 451 451 479Q451 507 445.5 530.5Q440 554 426 571.5Q412 589 388 598.5Q364 608 326 608H254Z" glyph-name="P" horiz-adv-x="644" unicode="P" /><glyph d="M542 50Q588 42 621.5 31.5Q655 21 679.5 8.5Q704 -4 721 -17.5Q738 -31 750 -45V-124H619Q605 -101 585 -82Q565 -63 536.5 -48.5Q508 -34 470 -24Q432 -14 381 -8Q301 1 237.5 26Q174 51 130 94Q86 137 62 200Q38 263 38 350Q38 437 65.5 503.5Q93 570 140 615.5Q187 661 249.5 684.5Q312 708 381 708Q450 708 512.5 684.5Q575 661 622 615.5Q669 570 696.5 503.5Q724 437 724 350Q724 232 676.5 158Q629 84 542 52ZM381 92Q420 92 453.5 108Q487 124 511.5 155.5Q536 187 550 235Q564 283 564 347Q564 411 550 459.5Q536 508 511.5 540Q487 572 453.5 588Q420 604 381 604Q341 604 307.5 588Q274 572 249.5 540Q225 508 211.5 459.5Q198 411 198 347Q198 283 211.5 235Q225 187 249.5 155.5Q274 124 307.5 108Q341 92 381 92Z" glyph-name="Q" horiz-adv-x="762" unicode="Q" /><glyph d="M254 301V83H341V0H31V83H69Q80 83 89 93.5Q98 104 98 114V583Q98 593 89 603.5Q80 614 69 614H31V700H333Q464 700 537.5 651.5Q611 603 611 503Q611 432 570 396Q529 360 451 345V341Q481 335 502.5 325.5Q524 316 540.5 298Q557 280 570 251.5Q583 223 594 180L613 108Q617 94 624 88.5Q631 83 638 83H671V0H472L439 190Q435 222 427 243.5Q419 265 405.5 277.5Q392 290 370.5 295.5Q349 301 318 301ZM254 379H329Q367 379 390.5 387.5Q414 396 427.5 411.5Q441 427 446 448Q451 469 451 494Q451 519 446 540Q441 561 427.5 576Q414 591 390.5 599.5Q367 608 329 608H254Z" glyph-name="R" horiz-adv-x="702" unicode="R" /><glyph d="M263 -8Q229 -8 202 -5.5Q175 -3 155 0H36V211H142L156 102Q174 95 197 91Q220 87 258 87Q322 87 351 114Q380 141 380 187Q380 217 365 235.5Q350 254 325 266Q300 278 266.5 286Q233 294 197 305Q127 325 86 370.5Q45 416 45 503Q45 603 110 655.5Q175 708 286 708Q322 708 349.5 705.5Q377 703 392 700H502V509H398L384 601Q368 607 346 611Q324 615 292 615Q236 615 206.5 592.5Q177 570 177 525Q177 498 189.5 480Q202 462 224 450Q246 438 274 430Q302 422 334 414Q381 402 416.5 386.5Q452 371 476 347.5Q500 324 512 291.5Q524 259 524 212Q524 104 457.5 48Q391 -8 263 -8Z" glyph-name="S" horiz-adv-x="564" unicode="S" /><glyph d="M263 -8Q229 -8 202 -5.5Q175 -3 155 0H36V211H142L156 102Q174 95 197 91Q220 87 258 87Q322 87 351 114Q380 141 380 187Q380 217 365 235.5Q350 254 325 266Q300 278 266.5 286Q233 294 197 305Q127 325 86 370.5Q45 416 45 503Q45 603 110 655.5Q175 708 286 708Q322 708 349.5 705.5Q377 703 392 700H502V509H398L384 601Q368 607 346 611Q324 615 292 615Q236 615 206.5 592.5Q177 570 177 525Q177 498 189.5 480Q202 462 224 450Q246 438 274 430Q302 422 334 414Q381 402 416.5 386.5Q452 371 476 347.5Q500 324 512 291.5Q524 259 524 212Q524 104 457.5 48Q391 -8 263 -8ZM160 843V880H213L291 820L369 880H418V843L347 742H227Z" glyph-name="Scaron" horiz-adv-x="564" unicode="&#352;" /><glyph d="M185 83H229Q240 83 249 93.5Q258 104 258 114V610H145L134 464H37V700H636V464H539L527 610H414V114Q414 104 423 93.5Q432 83 443 83H487V0H185Z" glyph-name="T" horiz-adv-x="673" unicode="T" /><glyph d="M31 83H69Q80 83 89 93.5Q98 104 98 114V583Q98 593 89 603.5Q80 614 69 614H31V700H333V614H254V541H344Q402 541 451 532Q500 523 536 501.5Q572 480 592 443.5Q612 407 612 352Q612 298 591.5 261.5Q571 225 535 203Q499 181 449 172Q399 163 340 163H254V83H341V0H31ZM254 449V250H340Q401 250 426.5 275.5Q452 301 452 350Q452 399 426.5 424Q401 449 340 449Z" glyph-name="Thorn" horiz-adv-x="645" unicode="&#222;" /><glyph d="M398 92Q432 92 458.5 99.5Q485 107 503.5 125.5Q522 144 532 176Q542 208 542 257V614H463V700H723V614H685Q674 614 665 603.5Q656 593 656 583V268Q656 133 590 62.5Q524 -8 380 -8Q242 -8 170.5 62Q99 132 99 268V583Q99 593 90 603.5Q81 614 70 614H31V700H334V614H255V257Q255 208 264.5 176Q274 144 292.5 125.5Q311 107 337.5 99.5Q364 92 398 92Z" glyph-name="U" horiz-adv-x="754" unicode="U" /><glyph d="M398 92Q432 92 458.5 99.5Q485 107 503.5 125.5Q522 144 532 176Q542 208 542 257V614H463V700H723V614H685Q674 614 665 603.5Q656 593 656 583V268Q656 133 590 62.5Q524 -8 380 -8Q242 -8 170.5 62Q99 132 99 268V583Q99 593 90 603.5Q81 614 70 614H31V700H334V614H255V257Q255 208 264.5 176Q274 144 292.5 125.5Q311 107 337.5 99.5Q364 92 398 92ZM384 875H530V825L433 737H356Z" glyph-name="Uacute" horiz-adv-x="754" unicode="&#218;" /><glyph d="M398 92Q432 92 458.5 99.5Q485 107 503.5 125.5Q522 144 532 176Q542 208 542 257V614H463V700H723V614H685Q674 614 665 603.5Q656 593 656 583V268Q656 133 590 62.5Q524 -8 380 -8Q242 -8 170.5 62Q99 132 99 268V583Q99 593 90 603.5Q81 614 70 614H31V700H334V614H255V257Q255 208 264.5 176Q274 144 292.5 125.5Q311 107 337.5 99.5Q364 92 398 92ZM271 774 342 875H462L529 774V737H476L398 797L320 737H271Z" glyph-name="Ucircumflex" horiz-adv-x="754" unicode="&#219;" /><glyph d="M398 92Q432 92 458.5 99.5Q485 107 503.5 125.5Q522 144 532 176Q542 208 542 257V614H463V700H723V614H685Q674 614 665 603.5Q656 593 656 583V268Q656 133 590 62.5Q524 -8 380 -8Q242 -8 170.5 62Q99 132 99 268V583Q99 593 90 603.5Q81 614 70 614H31V700H334V614H255V257Q255 208 264.5 176Q274 144 292.5 125.5Q311 107 337.5 99.5Q364 92 398 92ZM305 741Q273 741 251.5 762Q230 783 230 814Q230 844 251.5 865.5Q273 887 305 887Q337 887 358.5 865.5Q380 844 380 814Q380 783 358.5 762Q337 741 305 741ZM497 741Q465 741 443.5 762Q422 783 422 814Q422 844 443.5 865.5Q465 887 497 887Q529 887 550.5 865.5Q572 844 572 814Q572 783 550.5 762Q529 741 497 741Z" glyph-name="Udieresis" horiz-adv-x="754" unicode="&#220;" /><glyph d="M398 92Q432 92 458.5 99.5Q485 107 503.5 125.5Q522 144 532 176Q542 208 542 257V614H463V700H723V614H685Q674 614 665 603.5Q656 593 656 583V268Q656 133 590 62.5Q524 -8 380 -8Q242 -8 170.5 62Q99 132 99 268V583Q99 593 90 603.5Q81 614 70 614H31V700H334V614H255V257Q255 208 264.5 176Q274 144 292.5 125.5Q311 107 337.5 99.5Q364 92 398 92ZM369 737 272 825V875H418L446 737Z" glyph-name="Ugrave" horiz-adv-x="754" unicode="&#217;" /><glyph d="M87 587Q82 598 73.5 606Q65 614 54 614H31V700H321V614H238L391 147H393L528 546Q551 614 494 614H457V700H720V614H699Q686 614 676 605.5Q666 597 661 583L450 0H291Z" glyph-name="V" horiz-adv-x="751" unicode="V" /><glyph d="M502 434 393 0H224L80 587Q75 598 66.5 606Q58 614 47 614H31V700H314V614H231L329 179H331L461 700H580L709 179H711L799 546Q822 614 765 614H728V700H984V614H970Q957 614 947 605.5Q937 597 932 583L781 0H612L504 434Z" glyph-name="W" horiz-adv-x="1015" unicode="W" /><glyph d="M609 111Q620 95 630.5 89Q641 83 652 83H670V0H383V83H453L320 273L236 133Q223 109 229.5 96Q236 83 258 83H285V0H31V83H59Q69 83 79.5 88.5Q90 94 95 102L261 357L102 586Q91 602 82.5 608Q74 614 63 614H31V700H318V614H258L384 433L457 556Q478 587 468 600.5Q458 614 437 614H416V700H670V614H638Q628 614 618 608.5Q608 603 603 595L445 346Z" glyph-name="X" horiz-adv-x="701" unicode="X" /><glyph d="M208 83H252Q263 83 272 93.5Q281 104 281 114V286L86 591Q71 614 54 614H31V700H318V614H239L380 383H382L480 544Q500 577 489 595.5Q478 614 446 614H417V700H677V614H660Q637 614 620 587L437 292V114Q437 104 446 93.5Q455 83 466 83H510V0H208Z" glyph-name="Y" horiz-adv-x="708" unicode="Y" /><glyph d="M208 83H252Q263 83 272 93.5Q281 104 281 114V286L86 591Q71 614 54 614H31V700H318V614H239L380 383H382L480 544Q500 577 489 595.5Q478 614 446 614H417V700H677V614H660Q637 614 620 587L437 292V114Q437 104 446 93.5Q455 83 466 83H510V0H208ZM350 875H496V825L399 737H322Z" glyph-name="Yacute" horiz-adv-x="708" unicode="&#221;" /><glyph d="M208 83H252Q263 83 272 93.5Q281 104 281 114V286L86 591Q71 614 54 614H31V700H318V614H239L380 383H382L480 544Q500 577 489 595.5Q478 614 446 614H417V700H677V614H660Q637 614 620 587L437 292V114Q437 104 446 93.5Q455 83 466 83H510V0H208ZM271 719Q239 719 217.5 740Q196 761 196 792Q196 822 217.5 843.5Q239 865 271 865Q303 865 324.5 843.5Q346 822 346 792Q346 761 324.5 740Q303 719 271 719ZM463 719Q431 719 409.5 740Q388 761 388 792Q388 822 409.5 843.5Q431 865 463 865Q495 865 516.5 843.5Q538 822 538 792Q538 761 516.5 740Q495 719 463 719Z" glyph-name="Ydieresis" horiz-adv-x="708" unicode="&#376;" /><glyph d="M196 94V90H448L462 213H561V0H31V103L396 603V607H166L151 500H57V700H561V594Z" glyph-name="Z" horiz-adv-x="592" unicode="Z" /><glyph d="M196 94V90H448L462 213H561V0H31V103L396 603V607H166L151 500H57V700H561V594ZM176 838V875H229L307 815L385 875H434V838L363 737H243Z" glyph-name="Zcaron" horiz-adv-x="592" unicode="&#381;" /><glyph d="M200 -6Q163 -6 132.5 4Q102 14 79.5 34Q57 54 44.5 83.5Q32 113 32 152Q32 193 47.5 223.5Q63 254 90.5 273.5Q118 293 156 302.5Q194 312 239 312Q272 312 296.5 309Q321 306 346 300V355Q346 433 255 433Q208 433 180.5 418Q153 403 134 386H67V493Q104 510 155.5 521.5Q207 533 284 533Q386 533 439 496Q492 459 492 369V108Q492 99 500 91Q508 83 517 83H545V13Q530 4 508 -1.5Q486 -7 457 -7Q411 -7 386.5 10Q362 27 352 59Q323 23 285.5 8.5Q248 -6 200 -6ZM254 80Q282 80 304.5 90Q327 100 346 117V229Q311 235 269 235Q224 235 199 216.5Q174 198 174 158Q174 118 195.5 99Q217 80 254 80Z" glyph-name="a" horiz-adv-x="574" unicode="a" /><glyph d="M200 -6Q163 -6 132.5 4Q102 14 79.5 34Q57 54 44.5 83.5Q32 113 32 152Q32 193 47.5 223.5Q63 254 90.5 273.5Q118 293 156 302.5Q194 312 239 312Q272 312 296.5 309Q321 306 346 300V355Q346 433 255 433Q208 433 180.5 418Q153 403 134 386H67V493Q104 510 155.5 521.5Q207 533 284 533Q386 533 439 496Q492 459 492 369V108Q492 99 500 91Q508 83 517 83H545V13Q530 4 508 -1.5Q486 -7 457 -7Q411 -7 386.5 10Q362 27 352 59Q323 23 285.5 8.5Q248 -6 200 -6ZM254 80Q282 80 304.5 90Q327 100 346 117V229Q311 235 269 235Q224 235 199 216.5Q174 198 174 158Q174 118 195.5 99Q217 80 254 80ZM257 700H403V650L306 562H229Z" glyph-name="aacute" horiz-adv-x="574" unicode="&#225;" /><glyph d="M200 -6Q163 -6 132.5 4Q102 14 79.5 34Q57 54 44.5 83.5Q32 113 32 152Q32 193 47.5 223.5Q63 254 90.5 273.5Q118 293 156 302.5Q194 312 239 312Q272 312 296.5 309Q321 306 346 300V355Q346 433 255 433Q208 433 180.5 418Q153 403 134 386H67V493Q104 510 155.5 521.5Q207 533 284 533Q386 533 439 496Q492 459 492 369V108Q492 99 500 91Q508 83 517 83H545V13Q530 4 508 -1.5Q486 -7 457 -7Q411 -7 386.5 10Q362 27 352 59Q323 23 285.5 8.5Q248 -6 200 -6ZM254 80Q282 80 304.5 90Q327 100 346 117V229Q311 235 269 235Q224 235 199 216.5Q174 198 174 158Q174 118 195.5 99Q217 80 254 80ZM144 599 215 700H335L402 599V562H349L271 622L193 562H144Z" glyph-name="acircumflex" horiz-adv-x="574" unicode="&#226;" /><glyph d="M203 700H349V650L252 562H175Z" glyph-name="acute" horiz-adv-x="440" unicode="&#180;" /><glyph d="M200 -6Q163 -6 132.5 4Q102 14 79.5 34Q57 54 44.5 83.5Q32 113 32 152Q32 193 47.5 223.5Q63 254 90.5 273.5Q118 293 156 302.5Q194 312 239 312Q272 312 296.5 309Q321 306 346 300V355Q346 433 255 433Q208 433 180.5 418Q153 403 134 386H67V493Q104 510 155.5 521.5Q207 533 284 533Q386 533 439 496Q492 459 492 369V108Q492 99 500 91Q508 83 517 83H545V13Q530 4 508 -1.5Q486 -7 457 -7Q411 -7 386.5 10Q362 27 352 59Q323 23 285.5 8.5Q248 -6 200 -6ZM254 80Q282 80 304.5 90Q327 100 346 117V229Q311 235 269 235Q224 235 199 216.5Q174 198 174 158Q174 118 195.5 99Q217 80 254 80ZM178 566Q146 566 124.5 587Q103 608 103 639Q103 669 124.5 690.5Q146 712 178 712Q210 712 231.5 690.5Q253 669 253 639Q253 608 231.5 587Q210 566 178 566ZM370 566Q338 566 316.5 587Q295 608 295 639Q295 669 316.5 690.5Q338 712 370 712Q402 712 423.5 690.5Q445 669 445 639Q445 608 423.5 587Q402 566 370 566Z" glyph-name="adieresis" horiz-adv-x="574" unicode="&#228;" /><glyph d="M200 -6Q163 -6 132.5 4Q102 14 79.5 33.5Q57 53 44.5 82.5Q32 112 32 151Q32 233 96.5 273Q161 313 271 313H346V355Q346 433 255 433Q208 433 180.5 419.5Q153 406 134 390H67V493Q104 510 155.5 521.5Q207 533 284 533Q343 533 383 520.5Q423 508 446 478Q507 533 603 533Q718 533 778 471Q838 409 838 275Q838 261 837 247.5Q836 234 836 230H493Q498 154 531 118.5Q564 83 625 83Q649 83 665.5 87.5Q682 92 694.5 99.5Q707 107 717 117.5Q727 128 736 140H819V44Q787 24 740 8.5Q693 -7 613 -7Q539 -7 485.5 15Q432 37 399 79Q373 50 348.5 33.5Q324 17 300 8Q276 -1 251.5 -3.5Q227 -6 200 -6ZM254 80Q285 80 312 93Q339 106 365 136Q348 180 345 230H274Q226 230 200 211.5Q174 193 174 156Q174 116 195.5 98Q217 80 254 80ZM603 446Q558 446 529.5 415Q501 384 494 313H692Q690 385 669 415.5Q648 446 603 446Z" glyph-name="ae" horiz-adv-x="870" unicode="&#230;" /><glyph d="M200 -6Q163 -6 132.5 4Q102 14 79.5 34Q57 54 44.5 83.5Q32 113 32 152Q32 193 47.5 223.5Q63 254 90.5 273.5Q118 293 156 302.5Q194 312 239 312Q272 312 296.5 309Q321 306 346 300V355Q346 433 255 433Q208 433 180.5 418Q153 403 134 386H67V493Q104 510 155.5 521.5Q207 533 284 533Q386 533 439 496Q492 459 492 369V108Q492 99 500 91Q508 83 517 83H545V13Q530 4 508 -1.5Q486 -7 457 -7Q411 -7 386.5 10Q362 27 352 59Q323 23 285.5 8.5Q248 -6 200 -6ZM254 80Q282 80 304.5 90Q327 100 346 117V229Q311 235 269 235Q224 235 199 216.5Q174 198 174 158Q174 118 195.5 99Q217 80 254 80ZM242 562 145 650V700H291L319 562Z" glyph-name="agrave" horiz-adv-x="574" unicode="&#224;" /><glyph d="M291 -8Q166 -8 100.5 44.5Q35 97 35 191Q35 231 46 261.5Q57 292 76 316Q95 340 121.5 358Q148 376 180 390Q157 419 145.5 450Q134 481 134 527Q134 568 149.5 601.5Q165 635 192.5 658.5Q220 682 259.5 695Q299 708 347 708Q369 708 394.5 705Q420 702 428 700H550V520H446L430 594Q417 599 405.5 602.5Q394 606 370 606Q323 606 306.5 584.5Q290 563 290 529Q290 497 306 472.5Q322 448 348 422L513 256Q524 279 531.5 303Q539 327 544 350H498V433H712V350H686Q661 350 654 325Q642 286 627.5 248Q613 210 594 175L659 110Q673 97 682.5 90Q692 83 703 83H712V0H556L499 58Q460 27 408.5 9.5Q357 -8 291 -8ZM317 91Q349 91 376 102Q403 113 426 133L239 326Q221 309 208 281.5Q195 254 195 212Q195 187 202 165Q209 143 224 126.5Q239 110 262 100.5Q285 91 317 91Z" glyph-name="ampersand" horiz-adv-x="743" unicode="&amp;" /><glyph d="M200 -6Q163 -6 132.5 4Q102 14 79.5 34Q57 54 44.5 83.5Q32 113 32 152Q32 193 47.5 223.5Q63 254 90.5 273.5Q118 293 156 302.5Q194 312 239 312Q272 312 296.5 309Q321 306 346 300V355Q346 433 255 433Q208 433 180.5 418Q153 403 134 386H67V493Q104 510 155.5 521.5Q207 533 284 533Q386 533 439 496Q492 459 492 369V108Q492 99 500 91Q508 83 517 83H545V13Q530 4 508 -1.5Q486 -7 457 -7Q411 -7 386.5 10Q362 27 352 59Q323 23 285.5 8.5Q248 -6 200 -6ZM254 80Q282 80 304.5 90Q327 100 346 117V229Q311 235 269 235Q224 235 199 216.5Q174 198 174 158Q174 118 195.5 99Q217 80 254 80ZM274 566Q231 566 200 592.5Q169 619 169 666Q169 713 200 740Q231 767 274 767Q317 767 348 740Q379 713 379 666Q379 619 348 592.5Q317 566 274 566ZM274 612Q297 612 312 626.5Q327 641 327 666Q327 692 312 706.5Q297 721 274 721Q251 721 236.5 706.5Q222 692 222 666Q222 641 236.5 626.5Q251 612 274 612Z" glyph-name="aring" horiz-adv-x="574" unicode="&#229;" /><glyph d="M269 700 403 486V452H309L218 584H215L125 452H31V486L164 700Z" glyph-name="asciicircum" horiz-adv-x="434" unicode="^" /><glyph d="M260 339Q277 339 285.5 346.5Q294 354 300 367H370V286Q356 262 331.5 242Q307 222 267 222Q249 222 231 226Q213 230 196.5 235.5Q180 241 165.5 245Q151 249 141 249Q124 249 115.5 240.5Q107 232 101 219H31V300Q45 324 69.5 343Q94 362 134 362Q152 362 170 358.5Q188 355 204.5 350.5Q221 346 235.5 342.5Q250 339 260 339Z" glyph-name="asciitilde" horiz-adv-x="401" unicode="~" /><glyph d="M249 403 231 357H169L151 403L196 520L115 422L66 416L36 469L66 508L192 528L66 548L36 588L67 641L116 633L196 535L151 654L169 700H231L249 654L204 535L284 633L333 641L364 588L334 548L208 528L334 508L364 469L334 416L285 422L204 520Z" glyph-name="asterisk" horiz-adv-x="400" unicode="*" /><glyph d="M460 -134Q382 -134 306 -112.5Q230 -91 171 -45.5Q112 0 75.5 71Q39 142 39 240Q39 344 78.5 423.5Q118 503 180 557Q242 611 318.5 639Q395 667 469 667Q545 667 617.5 645Q690 623 745.5 581Q801 539 835 477.5Q869 416 869 337Q869 267 849 216Q829 165 796 131.5Q763 98 720 82Q677 66 632 66Q566 66 535 85.5Q504 105 493 137Q473 108 442.5 87Q412 66 366 66Q309 66 273.5 100.5Q238 135 238 200Q238 310 303 387Q332 421 373 440Q414 459 462 459Q501 459 524 447.5Q547 436 564 419Q580 433 599 443Q618 453 636 453H682L625 202Q619 175 622 154Q625 133 652 133Q707 133 743.5 183Q780 233 780 337Q780 398 756 445.5Q732 493 690.5 526Q649 559 592 576Q535 593 469 593Q406 593 346 571.5Q286 550 239 506.5Q192 463 163.5 396.5Q135 330 135 240Q135 160 160.5 103Q186 46 230 10Q274 -26 333 -43Q392 -60 460 -60Q535 -60 593.5 -44.5Q652 -29 697 0H747V-58Q698 -93 622.5 -113.5Q547 -134 460 -134ZM410 142Q433 142 451 153.5Q469 165 487 185L531 371Q523 374 511.5 376.5Q500 379 483 379Q456 379 434.5 364.5Q413 350 398 325Q383 300 375 266.5Q367 233 367 195Q367 169 380 155.5Q393 142 410 142Z" glyph-name="at" horiz-adv-x="907" unicode="@" /><glyph d="M200 -6Q163 -6 132.5 4Q102 14 79.5 34Q57 54 44.5 83.5Q32 113 32 152Q32 193 47.5 223.5Q63 254 90.5 273.5Q118 293 156 302.5Q194 312 239 312Q272 312 296.5 309Q321 306 346 300V355Q346 433 255 433Q208 433 180.5 418Q153 403 134 386H67V493Q104 510 155.5 521.5Q207 533 284 533Q386 533 439 496Q492 459 492 369V108Q492 99 500 91Q508 83 517 83H545V13Q530 4 508 -1.5Q486 -7 457 -7Q411 -7 386.5 10Q362 27 352 59Q323 23 285.5 8.5Q248 -6 200 -6ZM254 80Q282 80 304.5 90Q327 100 346 117V229Q311 235 269 235Q224 235 199 216.5Q174 198 174 158Q174 118 195.5 99Q217 80 254 80ZM106 637Q120 661 142.5 678.5Q165 696 205 696Q223 696 241.5 691.5Q260 687 278 682Q296 677 311 672.5Q326 668 336 668Q353 668 362 676.5Q371 685 376 700H442V625Q428 601 405.5 583.5Q383 566 343 566Q325 566 306.5 571Q288 576 270 582Q252 588 237 593Q222 598 212 598Q195 598 186 588.5Q177 579 172 564H106Z" glyph-name="atilde" horiz-adv-x="574" unicode="&#227;" /><glyph d="M345 -7Q285 -7 249 9.5Q213 26 189 52Q178 32 163.5 16Q149 0 140 0H59V587Q59 595 51 604.5Q43 614 34 614H-4V700H180Q205 700 205 666V455Q235 487 275.5 510Q316 533 373 533Q410 533 445.5 519.5Q481 506 509 475.5Q537 445 554 394.5Q571 344 571 270Q571 194 551.5 141Q532 88 500 55Q468 22 427.5 7.5Q387 -7 345 -7ZM302 428Q280 428 254 421.5Q228 415 205 406V106Q222 92 245 84Q268 76 300 76Q322 76 344.5 83.5Q367 91 384 111.5Q401 132 412 167Q423 202 423 257Q423 309 413 342.5Q403 376 386.5 395Q370 414 348 421Q326 428 302 428Z" glyph-name="b" horiz-adv-x="605" unicode="b" /><glyph d="M259 -49 17 741H116L358 -49Z" glyph-name="backslash" horiz-adv-x="372" unicode="\" /><glyph d="M145 -49H50V741H145Z" glyph-name="bar" horiz-adv-x="195" unicode="|" /><glyph d="M110 253Q110 274 97 291Q84 308 54 308H31V394H54Q84 394 97 411Q110 428 110 449V613Q110 675 145 708Q180 741 254 741H337V655H265Q254 655 245 644.5Q236 634 236 624V460Q236 419 217 393Q198 367 147 353V350Q198 336 217 310Q236 284 236 243V65Q236 55 245 44.5Q254 34 265 34H337V-49H254Q180 -49 145 -16Q110 17 110 79Z" glyph-name="braceleft" horiz-adv-x="368" unicode="{" /><glyph d="M258 439Q258 418 271 401Q284 384 314 384H337V298H314Q284 298 271 281Q258 264 258 243V79Q258 17 223 -16Q188 -49 114 -49H31V34H103Q114 34 123 44.5Q132 55 132 65V232Q132 273 151 299Q170 325 221 339V342Q170 356 151 382Q132 408 132 449V624Q132 634 123 644.5Q114 655 103 655H31V741H114Q188 741 223 708Q258 675 258 613Z" glyph-name="braceright" horiz-adv-x="368" unicode="}" /><glyph d="M42 741H269V655H168V34H269V-49H42Z" glyph-name="bracketleft" horiz-adv-x="300" unicode="[" /><glyph d="M258 -49H31V34H132V655H31V741H258Z" glyph-name="bracketright" horiz-adv-x="300" unicode="]" /><glyph d="M220 562Q190 562 168 570Q146 578 130 590.5Q114 603 103.5 619Q93 635 87 650V700H169Q179 657 220 657Q261 657 271 700H353V650Q347 635 336.5 619Q326 603 310 590.5Q294 578 272 570Q250 562 220 562Z" glyph-name="breve" horiz-adv-x="440" unicode="&#728;" /><glyph d="M50 308H146L145 -49H50ZM50 741H145L146 393H50Z" glyph-name="brokenbar" horiz-adv-x="195" unicode="&#166;" /><glyph d="M180 145Q151 145 126 154Q101 163 82.5 180.5Q64 198 53 222.5Q42 247 42 279Q42 310 53 335.5Q64 361 82.5 378.5Q101 396 126 405.5Q151 415 180 415Q209 415 234 405.5Q259 396 278 378.5Q297 361 307.5 335.5Q318 310 318 279Q318 247 307.5 222.5Q297 198 278 180.5Q259 163 234 154Q209 145 180 145Z" glyph-name="bullet" horiz-adv-x="360" unicode="&#8226;" /><glyph d="M305 -7Q168 -7 100.5 63.5Q33 134 33 261Q33 324 52.5 374.5Q72 425 108.5 460.5Q145 496 196.5 514.5Q248 533 312 533Q376 533 419.5 525Q463 517 489 506V386H401Q387 413 367 426.5Q347 440 309 440Q249 440 215.5 397Q182 354 182 260Q182 166 213 125Q244 84 308 84Q332 84 350 89Q368 94 380.5 102Q393 110 402.5 120Q412 130 420 140H491V37Q462 20 417 6.5Q372 -7 305 -7Z" glyph-name="c" horiz-adv-x="542" unicode="c" /><glyph d="M91 663V700H144L222 640L300 700H349V663L278 562H158Z" glyph-name="caron" horiz-adv-x="440" unicode="&#711;" /><glyph d="M288 -175Q261 -175 242.5 -170Q224 -165 208 -158V-101H242Q252 -115 276 -115Q304 -115 304 -93Q304 -71 269 -71H247V-3Q139 11 86 80Q33 149 33 261Q33 324 52.5 374.5Q72 425 108.5 460.5Q145 496 196.5 514.5Q248 533 312 533Q376 533 419.5 525Q463 517 489 506V386H401Q387 413 367 426.5Q347 440 309 440Q249 440 215.5 397Q182 354 182 260Q182 166 213 125Q244 84 308 84Q332 84 350 89Q368 94 380.5 102Q393 110 402.5 120Q412 130 420 140H491V37Q462 20 418.5 7Q375 -6 310 -7V-25Q354 -27 373.5 -46Q393 -65 393 -98Q393 -134 366 -154.5Q339 -175 288 -175Z" glyph-name="ccedilla" horiz-adv-x="542" unicode="&#231;" /><glyph d="M243 0V-25Q287 -27 306.5 -46Q326 -65 326 -98Q326 -134 299 -154.5Q272 -175 221 -175Q194 -175 175.5 -170Q157 -165 141 -158V-101H175Q185 -115 209 -115Q237 -115 237 -93Q237 -71 202 -71H180V0Z" glyph-name="cedilla" horiz-adv-x="440" unicode="&#184;" /><glyph d="M343 589V532Q394 530 430 523Q466 516 489 506V383H407Q396 404 381 417.5Q366 431 343 436V88Q375 96 393.5 112.5Q412 129 426 145H491V40Q466 26 430 12.5Q394 -1 343 -5V-102H269V-6Q150 3 91.5 73Q33 143 33 261Q33 319 49.5 366Q66 413 96.5 447.5Q127 482 171 503.5Q215 525 269 531V589ZM182 260Q182 182 203 140.5Q224 99 269 88V434Q227 421 204.5 378.5Q182 336 182 260Z" glyph-name="cent" horiz-adv-x="542" unicode="&#162;" /><glyph d="M90 599 161 700H281L348 599V562H295L217 622L139 562H90Z" glyph-name="circumflex" horiz-adv-x="440" unicode="&#710;" /><glyph d="M122 284Q87 284 63.5 307Q40 330 40 364Q40 398 63.5 421.5Q87 445 122 445Q156 445 180 421.5Q204 398 204 364Q204 330 180 307Q156 284 122 284ZM122 -6Q87 -6 63.5 17Q40 40 40 74Q40 108 63.5 131.5Q87 155 122 155Q156 155 180 131.5Q204 108 204 74Q204 40 180 17Q156 -6 122 -6Z" glyph-name="colon" horiz-adv-x="244" unicode=":" /><glyph d="M39 -46Q71 -41 86.5 -30.5Q102 -20 102 -6Q102 8 92.5 12.5Q83 17 70 25Q56 35 48 48.5Q40 62 40 85Q40 115 62.5 135Q85 155 119 155Q154 155 180 131.5Q206 108 206 59Q206 -19 165.5 -60.5Q125 -102 39 -110Z" glyph-name="comma" horiz-adv-x="244" unicode="," /><glyph d="M395 -8Q323 -8 259 15.5Q195 39 147 84.5Q99 130 70.5 196.5Q42 263 42 350Q42 437 70.5 503.5Q99 570 147 615.5Q195 661 259 684.5Q323 708 395 708Q467 708 531 684.5Q595 661 643 615.5Q691 570 719.5 503.5Q748 437 748 350Q748 263 719.5 196.5Q691 130 643 84.5Q595 39 531 15.5Q467 -8 395 -8ZM395 31Q460 31 516 52Q572 73 613 114Q654 155 677.5 214Q701 273 701 350Q701 426 677.5 485.5Q654 545 613 586Q572 627 516 648Q460 669 395 669Q330 669 274 648Q218 627 177 586Q136 545 112.5 485.5Q89 426 89 350Q89 273 112.5 214Q136 155 177 114Q218 73 274 52Q330 31 395 31ZM402 154Q309 154 259 203.5Q209 253 209 349Q209 397 222.5 434Q236 471 260.5 496.5Q285 522 318.5 535.5Q352 549 393 549Q419 549 435 547.5Q451 546 460 544H541V413H471L460 472Q441 479 414 479Q374 479 349 450Q324 421 324 353Q324 223 410 223Q438 223 458 235Q478 247 492 265H543V194Q518 176 482 165Q446 154 402 154Z" glyph-name="copyright" horiz-adv-x="790" unicode="&#169;" /><glyph d="M252 -8Q213 -8 174 5Q135 18 104 48.5Q73 79 53.5 130Q34 181 34 256Q34 330 55 382.5Q76 435 109 468.5Q142 502 182 517.5Q222 533 260 533Q315 533 349.5 514.5Q384 496 410 465V614H342V700H531Q556 700 556 666V110Q556 102 564 92.5Q572 83 581 83H617V0H439Q428 0 421 15.5Q414 31 412 59Q386 30 346.5 11Q307 -8 252 -8ZM301 80Q336 80 362 91.5Q388 103 410 122V410Q390 419 364.5 426Q339 433 313 433Q287 433 263.5 424.5Q240 416 222 396Q204 376 193 343Q182 310 182 260Q182 206 192 171Q202 136 219 116Q236 96 257 88Q278 80 301 80Z" glyph-name="d" horiz-adv-x="645" unicode="d" /><glyph d="M160 269V311L220 451L77 396L31 426V513L77 543L221 487L169 619V649L193 700H290L314 649V619L262 487L406 543L452 513V426L406 396L262 452L323 313V271L270 -49H213Z" glyph-name="dagger" horiz-adv-x="483" unicode="&#8224;" /><glyph d="M169 2V32L221 164L77 108L31 138V225L77 255L218 200L166 296V355L218 450L77 396L31 426V513L77 543L221 487L169 619V649L193 700H290L314 649V619L262 487L406 543L452 513V426L406 396L264 451L317 355V296L265 200L406 255L452 225V138L406 108L262 164L314 32V2L290 -49H193Z" glyph-name="daggerdbl" horiz-adv-x="483" unicode="&#8225;" /><glyph d="M194 424Q164 424 137.5 434Q111 444 90.5 462.5Q70 481 58.5 507Q47 533 47 565Q47 597 58.5 623Q70 649 90.5 667.5Q111 686 137.5 696Q164 706 194 706Q224 706 250.5 696Q277 686 297.5 667.5Q318 649 329.5 623Q341 597 341 565Q341 533 329.5 507Q318 481 297.5 462.5Q277 444 250.5 434Q224 424 194 424ZM194 483Q228 483 250 505.5Q272 528 272 565Q272 603 250 625Q228 647 194 647Q160 647 139 625Q118 603 118 565Q118 528 139 505.5Q160 483 194 483Z" glyph-name="degree" horiz-adv-x="388" unicode="&#176;" /><glyph d="M124 566Q92 566 70.5 587Q49 608 49 639Q49 669 70.5 690.5Q92 712 124 712Q156 712 177.5 690.5Q199 669 199 639Q199 608 177.5 587Q156 566 124 566ZM316 566Q284 566 262.5 587Q241 608 241 639Q241 669 262.5 690.5Q284 712 316 712Q348 712 369.5 690.5Q391 669 391 639Q391 608 369.5 587Q348 566 316 566Z" glyph-name="dieresis" horiz-adv-x="440" unicode="&#168;" /><glyph d="M36 288V403H513V288ZM275 444Q240 444 216.5 467Q193 490 193 524Q193 558 216.5 581.5Q240 605 275 605Q309 605 333 581.5Q357 558 357 524Q357 490 333 467Q309 444 275 444ZM275 86Q240 86 216.5 109Q193 132 193 166Q193 200 216.5 223.5Q240 247 275 247Q309 247 333 223.5Q357 200 357 166Q357 132 333 109Q309 86 275 86Z" glyph-name="divide" horiz-adv-x="549" unicode="&#247;" /><glyph d="M33 178H122Q128 160 136 145Q144 130 156 118.5Q168 107 186 99Q204 91 230 88V297Q186 308 150.5 323Q115 338 89.5 361.5Q64 385 50 419Q36 453 36 503Q36 596 93.5 647.5Q151 699 248 707V764H322V707Q381 705 423 696.5Q465 688 500 677V528H413Q408 543 400.5 556.5Q393 570 382.5 581Q372 592 357.5 600.5Q343 609 322 613V415Q371 401 409 385.5Q447 370 472 347.5Q497 325 510 292.5Q523 260 523 212Q523 113 466 58Q409 3 304 -6V-102H230V-7Q199 -6 173.5 -4Q148 -2 124.5 1.5Q101 5 79 9Q57 13 33 18ZM163 525Q163 487 184.5 468.5Q206 450 248 436V613Q208 605 185.5 583.5Q163 562 163 525ZM384 187Q384 224 363.5 243Q343 262 304 276V91Q342 100 363 125Q384 150 384 187Z" glyph-name="dollar" horiz-adv-x="563" unicode="$" /><glyph d="M220 566Q187 566 164 588.5Q141 611 141 643Q141 675 164 698Q187 721 220 721Q253 721 276 698Q299 675 299 643Q299 611 276 588.5Q253 566 220 566Z" glyph-name="dotaccent" horiz-adv-x="440" unicode="&#729;" /><glyph d="M29 83H67Q76 83 83.5 91.5Q91 100 91 108V410Q91 418 83.5 427.5Q76 437 67 437H25V525H214Q226 525 232 512Q238 499 238 469V108Q238 99 246 91Q254 83 263 83H301V0H29Z" glyph-name="dotlessi" horiz-adv-x="329" unicode="&#305;" /><glyph d="M182 235Q187 157 221 120Q255 83 318 83Q342 83 359.5 87Q377 91 390 98.5Q403 106 413 116.5Q423 127 433 140H516V44Q484 24 436 8.5Q388 -7 306 -7Q169 -7 101 64.5Q33 136 33 260Q33 323 52 374Q71 425 105.5 460Q140 495 188.5 514Q237 533 296 533Q414 533 474.5 471Q535 409 535 275Q535 261 534 250Q533 239 533 235ZM296 446Q250 446 221 416Q192 386 184 318H389Q385 387 363 416.5Q341 446 296 446Z" glyph-name="e" horiz-adv-x="567" unicode="e" /><glyph d="M182 235Q187 157 221 120Q255 83 318 83Q342 83 359.5 87Q377 91 390 98.5Q403 106 413 116.5Q423 127 433 140H516V44Q484 24 436 8.5Q388 -7 306 -7Q169 -7 101 64.5Q33 136 33 260Q33 323 52 374Q71 425 105.5 460Q140 495 188.5 514Q237 533 296 533Q414 533 474.5 471Q535 409 535 275Q535 261 534 250Q533 239 533 235ZM296 446Q250 446 221 416Q192 386 184 318H389Q385 387 363 416.5Q341 446 296 446ZM277 700H423V650L326 562H249Z" glyph-name="eacute" horiz-adv-x="567" unicode="&#233;" /><glyph d="M182 235Q187 157 221 120Q255 83 318 83Q342 83 359.5 87Q377 91 390 98.5Q403 106 413 116.5Q423 127 433 140H516V44Q484 24 436 8.5Q388 -7 306 -7Q169 -7 101 64.5Q33 136 33 260Q33 323 52 374Q71 425 105.5 460Q140 495 188.5 514Q237 533 296 533Q414 533 474.5 471Q535 409 535 275Q535 261 534 250Q533 239 533 235ZM296 446Q250 446 221 416Q192 386 184 318H389Q385 387 363 416.5Q341 446 296 446ZM164 599 235 700H355L422 599V562H369L291 622L213 562H164Z" glyph-name="ecircumflex" horiz-adv-x="567" unicode="&#234;" /><glyph d="M182 235Q187 157 221 120Q255 83 318 83Q342 83 359.5 87Q377 91 390 98.5Q403 106 413 116.5Q423 127 433 140H516V44Q484 24 436 8.5Q388 -7 306 -7Q169 -7 101 64.5Q33 136 33 260Q33 323 52 374Q71 425 105.5 460Q140 495 188.5 514Q237 533 296 533Q414 533 474.5 471Q535 409 535 275Q535 261 534 250Q533 239 533 235ZM296 446Q250 446 221 416Q192 386 184 318H389Q385 387 363 416.5Q341 446 296 446ZM198 566Q166 566 144.5 587Q123 608 123 639Q123 669 144.5 690.5Q166 712 198 712Q230 712 251.5 690.5Q273 669 273 639Q273 608 251.5 587Q230 566 198 566ZM390 566Q358 566 336.5 587Q315 608 315 639Q315 669 336.5 690.5Q358 712 390 712Q422 712 443.5 690.5Q465 669 465 639Q465 608 443.5 587Q422 566 390 566Z" glyph-name="edieresis" horiz-adv-x="567" unicode="&#235;" /><glyph d="M182 235Q187 157 221 120Q255 83 318 83Q342 83 359.5 87Q377 91 390 98.5Q403 106 413 116.5Q423 127 433 140H516V44Q484 24 436 8.5Q388 -7 306 -7Q169 -7 101 64.5Q33 136 33 260Q33 323 52 374Q71 425 105.5 460Q140 495 188.5 514Q237 533 296 533Q414 533 474.5 471Q535 409 535 275Q535 261 534 250Q533 239 533 235ZM296 446Q250 446 221 416Q192 386 184 318H389Q385 387 363 416.5Q341 446 296 446ZM262 562 165 650V700H311L339 562Z" glyph-name="egrave" horiz-adv-x="567" unicode="&#232;" /><glyph d="M437 373Q506 352 545 309Q584 266 584 199Q584 102 514 47Q444 -8 311 -8Q178 -8 108 47Q38 102 38 199Q38 266 77 309Q116 352 185 373V377Q129 395 98.5 430Q68 465 68 522Q68 566 85.5 600.5Q103 635 135.5 659Q168 683 212.5 695.5Q257 708 311 708Q365 708 409.5 695.5Q454 683 486.5 659Q519 635 536.5 600.5Q554 566 554 522Q554 465 524 430Q494 395 437 377ZM311 88Q372 88 400.5 122.5Q429 157 429 207Q429 257 400.5 291.5Q372 326 311 326Q280 326 257.5 317Q235 308 221 292Q207 276 200 254Q193 232 193 207Q193 182 200 160Q207 138 221 122Q235 106 257.5 97Q280 88 311 88ZM311 420Q356 420 379.5 442.5Q403 465 403 513Q403 561 379.5 585Q356 609 311 609Q219 609 219 513Q219 420 311 420Z" glyph-name="eight" horiz-adv-x="622" unicode="8" /><glyph d="M122 -6Q87 -6 63.5 17Q40 40 40 74Q40 108 63.5 131.5Q87 155 122 155Q156 155 180 131.5Q204 108 204 74Q204 40 180 17Q156 -6 122 -6ZM510 -6Q475 -6 451.5 17Q428 40 428 74Q428 108 451.5 131.5Q475 155 510 155Q544 155 568 131.5Q592 108 592 74Q592 40 568 17Q544 -6 510 -6ZM316 -6Q281 -6 257.5 17Q234 40 234 74Q234 108 257.5 131.5Q281 155 316 155Q350 155 374 131.5Q398 108 398 74Q398 40 374 17Q350 -6 316 -6Z" glyph-name="ellipsis" horiz-adv-x="632" unicode="&#8230;" /><glyph d="M46 334H667V231H46Z" glyph-name="emdash" horiz-adv-x="713" unicode="&#8212;" /><glyph d="M46 334H407V231H46Z" glyph-name="endash" horiz-adv-x="453" unicode="&#8211;" /><glyph d="M40 362V477H487V362ZM40 152V267H487V152Z" glyph-name="equal" horiz-adv-x="527" unicode="=" /><glyph d="M213 529V553L255 592Q227 601 196 607V700H245Q299 689 343 673L371 699H445V675L409 642Q492 585 538.5 499Q585 413 585 290Q585 208 563.5 151.5Q542 95 504.5 59.5Q467 24 416.5 8.5Q366 -7 309 -7Q252 -7 201.5 11Q151 29 113.5 62Q76 95 54.5 143Q33 191 33 251Q33 311 52.5 358.5Q72 406 106 439Q140 472 186 489.5Q232 507 284 507Q333 507 368 487Q403 467 425 435Q411 477 383 509Q355 541 322 561L287 529ZM309 85Q364 85 400.5 125.5Q437 166 437 250Q437 335 400.5 376Q364 417 309 417Q254 417 217.5 376Q181 335 181 250Q181 166 217.5 125.5Q254 85 309 85Z" glyph-name="eth" horiz-adv-x="618" unicode="&#240;" /><glyph d="M44 614V700H200V614L158 206H86ZM122 -6Q87 -6 63.5 17Q40 40 40 74Q40 108 63.5 131.5Q87 155 122 155Q156 155 180 131.5Q204 108 204 74Q204 40 180 17Q156 -6 122 -6Z" glyph-name="exclam" horiz-adv-x="244" unicode="!" /><glyph d="M122 473Q88 473 64 496.5Q40 520 40 554Q40 588 64 611Q88 634 122 634Q157 634 180.5 611Q204 588 204 554Q204 520 180.5 496.5Q157 473 122 473ZM44 14 86 422H158L200 14V-72H44Z" glyph-name="exclamdown" horiz-adv-x="244" unicode="&#161;" /><glyph d="M25 525H87V565Q87 640 131 675Q175 710 253 710Q285 710 305 706Q325 702 340 696V614H306Q289 614 276 612.5Q263 611 253 605.5Q243 600 238 589Q233 578 233 560V525H333V437H233V108Q233 99 241 91Q249 83 258 83H304V0H29V83H62Q71 83 79 91.5Q87 100 87 108V437H25Z" glyph-name="f" horiz-adv-x="365" unicode="f" /><glyph d="M336 83H377V437H233V83H273V0H29V83H62Q71 83 79 91.5Q87 100 87 108V437H25V525H87V561Q87 636 131 671Q175 706 253 706Q285 706 305 702Q325 698 340 692V610H306Q289 610 276 608.5Q263 607 253 601.5Q243 596 238 585Q233 574 233 556V525H377V563Q377 638 421 674Q465 710 543 710Q575 710 595 706Q615 702 630 696V614H596Q579 614 566 612.5Q553 611 543 605.5Q533 600 528 589Q523 578 523 560V525H623V437H523V108Q523 99 531 91Q539 83 548 83H594V0H336Z" glyph-name="f_f" horiz-adv-x="655" unicode="&#64256;" /><glyph d="M336 83H377V437H233V83H273V0H29V83H62Q71 83 79 91.5Q87 100 87 108V437H25V525H87V561Q87 636 131 671Q175 706 253 706Q285 706 305 702Q325 698 340 692V610H306Q289 610 276 608.5Q263 607 253 601.5Q243 596 238 585Q233 574 233 556V525H377V565Q377 640 421 675Q465 710 543 710Q575 710 593 706Q611 702 626 696V614H596Q579 614 566 612.5Q553 611 543 605.5Q533 600 528 589Q523 578 523 560V525H789Q801 525 807 512Q813 499 813 469V108Q813 99 821 91Q829 83 838 83H876V0H626V83H666V437H523V83H563V0H336ZM738 566Q705 566 682 588.5Q659 611 659 643Q659 675 682 698Q705 721 738 721Q771 721 794 698Q817 675 817 643Q817 611 794 588.5Q771 566 738 566Z" glyph-name="f_f_i" horiz-adv-x="904" unicode="&#64259;" /><glyph d="M25 525H87V561Q87 636 131 671Q175 706 253 706Q285 706 305 702Q325 698 340 692V610H306Q289 610 276 608.5Q263 607 253 601.5Q243 596 238 585Q233 574 233 556V525H377V565Q377 640 422 675Q467 710 549 710Q569 710 590.5 707.5Q612 705 631 700H788Q813 700 813 666V108Q813 99 821 91Q829 83 838 83H879V0H626V83H667V614H596Q579 614 566 612.5Q553 611 543 605.5Q533 600 528 589Q523 578 523 560V525H623V437H523V83H563V0H336V83H377V437H233V83H273V0H29V83H62Q71 83 79 91.5Q87 100 87 108V437H25Z" glyph-name="f_f_l" horiz-adv-x="908" unicode="&#64260;" /><glyph d="M25 525H87V565Q87 640 131 675Q175 710 253 710Q285 710 303 706Q321 702 336 696V614H306Q289 614 276 612.5Q263 611 253 605.5Q243 600 238 589Q233 578 233 560V525H499Q511 525 517 512Q523 499 523 469V108Q523 99 531 91Q539 83 548 83H586V0H336V83H376V437H233V83H273V0H29V83H62Q71 83 79 91.5Q87 100 87 108V437H25ZM448 566Q415 566 392 588.5Q369 611 369 643Q369 675 392 698Q415 721 448 721Q481 721 504 698Q527 675 527 643Q527 611 504 588.5Q481 566 448 566Z" glyph-name="f_i" horiz-adv-x="614" unicode="&#64257;" /><glyph d="M25 525H87V565Q87 640 132 675Q177 710 259 710Q279 710 300.5 707.5Q322 705 341 700H498Q523 700 523 666V108Q523 99 531 91Q539 83 548 83H589V0H336V83H377V614H306Q289 614 276 612.5Q263 611 253 605.5Q243 600 238 589Q233 578 233 560V525H333V437H233V83H273V0H29V83H62Q71 83 79 91.5Q87 100 87 108V437H25Z" glyph-name="f_l" horiz-adv-x="618" unicode="&#64258;" /><glyph d="M508 225Q508 168 488.5 124.5Q469 81 434 51.5Q399 22 349 7Q299 -8 238 -8Q167 -8 118.5 4.5Q70 17 31 34V163H118Q132 131 160 111.5Q188 92 236 92Q260 92 281.5 99.5Q303 107 318.5 122.5Q334 138 343.5 162Q353 186 353 219Q353 252 344 275.5Q335 299 320.5 314Q306 329 286.5 336Q267 343 246 343Q223 343 206.5 338.5Q190 334 177.5 327.5Q165 321 155.5 312.5Q146 304 139 296H46V700H480V533H381L370 586H158V408H161Q179 421 210.5 432Q242 443 289 443Q335 443 375 430.5Q415 418 444.5 391Q474 364 491 323Q508 282 508 225Z" glyph-name="five" horiz-adv-x="545" unicode="5" /><glyph d="M575 -6Q497 -6 455 25Q413 56 413 109Q413 180 492 205V207Q428 227 428 287Q428 335 469.5 363Q511 391 575 391Q639 391 680 363Q721 335 721 287Q721 226 658 207V205Q737 180 737 109Q737 56 695 25Q653 -6 575 -6ZM575 61Q604 61 617 77Q630 93 630 117Q630 141 617 157.5Q604 174 575 174Q546 174 533 157.5Q520 141 520 117Q520 93 533 77Q546 61 575 61ZM575 233Q596 233 607 245Q618 257 618 278Q618 299 607 311Q596 323 575 323Q554 323 542.5 311Q531 299 531 278Q531 257 542.5 245Q554 233 575 233ZM575 729H667L174 -34H82ZM148 309Q106 309 77.5 316Q49 323 27 332V415H85Q94 397 108 388Q122 379 145 379Q167 379 183 393.5Q199 408 199 437Q199 466 184 479.5Q169 493 149 493Q128 493 116 485.5Q104 478 97 470H34V700H288V595H221L215 623H112V534H114Q125 542 143.5 549.5Q162 557 187 557Q238 557 272.5 529.5Q307 502 307 439Q307 376 263.5 342.5Q220 309 148 309Z" glyph-name="fiveeighths" horiz-adv-x="769" unicode="&#8541;" /><glyph d="M42 438H111L126 565Q134 641 177 675.5Q220 710 299 710Q326 710 345 705.5Q364 701 379 696V614H350Q319 614 300 602Q281 590 277 560L262 438H352V351H252L215 46Q209 -4 181 -43Q153 -82 97 -100H25V-17Q42 -9 52.5 4.5Q63 18 68 55L101 351H42Z" glyph-name="florin" horiz-adv-x="404" unicode="&#402;" /><glyph d="M295 83Q306 83 314.5 93.5Q323 104 323 114V167H31V286L331 700H476V265H550V167H476V114Q476 104 484.5 93.5Q493 83 504 83H550V0H249V83ZM123 265H323V540H319L123 269Z" glyph-name="four" horiz-adv-x="581" unicode="4" /><glyph d="M323 729H415L-78 -34H-170Z" glyph-name="fraction" horiz-adv-x="245" unicode="&#8260;" /><glyph d="M237 -175Q176 -175 133.5 -166Q91 -157 64 -141.5Q37 -126 24.5 -103.5Q12 -81 12 -54Q12 -32 20 -14.5Q28 3 41 16.5Q54 30 70.5 39.5Q87 49 104 56Q85 66 73 86Q61 106 61 132Q61 165 78.5 190.5Q96 216 122 233Q89 255 71 287.5Q53 320 53 362Q53 401 68.5 432.5Q84 464 111.5 486.5Q139 509 178 521Q217 533 265 533Q301 533 336 525H520V437H489Q482 437 474.5 431.5Q467 426 467 419Q477 391 477 362Q477 324 461.5 293.5Q446 263 418.5 241.5Q391 220 352 208.5Q313 197 265 197Q213 197 169 211Q167 203 166 193.5Q165 184 165 177Q165 145 209 145H355Q440 145 480 113.5Q520 82 520 14Q520 -28 504.5 -62.5Q489 -97 455.5 -122Q422 -147 368 -161Q314 -175 237 -175ZM243 -89Q316 -89 351.5 -70.5Q387 -52 387 -20Q387 3 371.5 14.5Q356 26 317 26H139Q135 15 134 3.5Q133 -8 133 -20Q133 -54 158 -71.5Q183 -89 243 -89ZM265 272Q302 272 324.5 294.5Q347 317 347 362Q347 407 324.5 429.5Q302 452 265 452Q228 452 205.5 429.5Q183 407 183 362Q183 317 205.5 294.5Q228 272 265 272Z" glyph-name="g" horiz-adv-x="552" unicode="g" /><glyph d="M25 525H87Q89 561 107 594.5Q125 628 157 653.5Q189 679 236 694.5Q283 710 343 710Q388 710 428.5 702Q469 694 499.5 676.5Q530 659 548 630.5Q566 602 566 561Q566 522 542.5 491.5Q519 461 485 436Q447 408 434 395Q421 382 421 367Q421 359 423.5 353.5Q426 348 433 342Q440 336 453.5 329.5Q467 323 490 314Q524 300 550 286Q576 272 594 253.5Q612 235 621 211Q630 187 630 153Q630 80 583 36.5Q536 -7 442 -7Q394 -7 361 -1.5Q328 4 297 15V131H374Q382 111 397 95Q412 79 443 79Q470 79 485 92Q500 105 500 130Q500 155 475.5 169.5Q451 184 400 204Q352 223 324 253.5Q296 284 296 330Q296 357 302.5 376.5Q309 396 320 412.5Q331 429 345.5 443Q360 457 375 472Q400 496 412.5 513.5Q425 531 425 556Q425 581 405.5 597.5Q386 614 347 614Q316 614 294 604.5Q272 595 258.5 580Q245 565 239 546.5Q233 528 233 510V83H272V0H29V83H62Q71 83 79 91.5Q87 100 87 108V437H25Z" glyph-name="germandbls" horiz-adv-x="663" unicode="&#223;" /><glyph d="M188 562 91 650V700H237L265 562Z" glyph-name="grave" horiz-adv-x="440" unicode="`" /><glyph d="M460 281 74 88H40V196L312 326V329L40 461V571H74L460 378Z" glyph-name="greater" horiz-adv-x="496" unicode="&gt;" /><glyph d="M50 221V298L189 480H268V429L170 263V260L268 93V40H189ZM261 221V298L400 480H479V429L381 263V260L479 93V40H400Z" glyph-name="guillemotleft" horiz-adv-x="529" unicode="&#171;" /><glyph d="M50 91 148 257V260L50 427V480H129L268 299V222L129 40H50ZM261 91 359 257V260L261 427V480H340L479 299V222L340 40H261Z" glyph-name="guillemotright" horiz-adv-x="529" unicode="&#187;" /><glyph d="M50 221V298L189 480H268V429L170 263V260L268 93V40H189Z" glyph-name="guilsinglleft" horiz-adv-x="318" unicode="&#8249;" /><glyph d="M50 91 148 257V260L50 427V480H129L268 299V222L129 40H50Z" glyph-name="guilsinglright" horiz-adv-x="318" unicode="&#8250;" /><glyph d="M359 83H419V352Q419 391 403 405Q387 419 350 419Q318 419 289.5 413Q261 407 235 399V83H296V0H29V83H64Q73 83 81 91.5Q89 100 89 108V587Q89 595 81 604.5Q73 614 64 614H26V700H210Q235 700 235 666V458Q271 492 320.5 512.5Q370 533 429 533Q456 533 481 527Q506 521 524.5 506Q543 491 554 465.5Q565 440 565 402V108Q565 99 573 91Q581 83 590 83H618V0H359Z" glyph-name="h" horiz-adv-x="647" unicode="h" /><glyph d="M113 700H234V650L167 562H90ZM276 700H397V650L330 562H253Z" glyph-name="hungarumlaut" horiz-adv-x="440" unicode="&#733;" /><glyph d="M46 352H277V243H46Z" glyph-name="hyphen" horiz-adv-x="323" unicode="-" /><glyph d="M29 83H67Q76 83 83.5 91.5Q91 100 91 108V410Q91 418 83.5 427.5Q76 437 67 437H25V525H214Q226 525 232 512Q238 499 238 469V108Q238 99 246 91Q254 83 263 83H301V0H29ZM163 566Q130 566 107 588.5Q84 611 84 643Q84 675 107 698Q130 721 163 721Q196 721 219 698Q242 675 242 643Q242 611 219 588.5Q196 566 163 566Z" glyph-name="i" horiz-adv-x="329" unicode="i" /><glyph d="M29 83H67Q76 83 83.5 91.5Q91 100 91 108V410Q91 418 83.5 427.5Q76 437 67 437H25V525H214Q226 525 232 512Q238 499 238 469V108Q238 99 246 91Q254 83 263 83H301V0H29ZM139 700H285V650L188 562H111Z" glyph-name="iacute" horiz-adv-x="329" unicode="&#237;" /><glyph d="M29 83H67Q76 83 83.5 91.5Q91 100 91 108V410Q91 418 83.5 427.5Q76 437 67 437H25V525H214Q226 525 232 512Q238 499 238 469V108Q238 99 246 91Q254 83 263 83H301V0H29ZM26 599 97 700H217L284 599V562H231L153 622L75 562H26Z" glyph-name="icircumflex" horiz-adv-x="329" unicode="&#238;" /><glyph d="M29 83H67Q76 83 83.5 91.5Q91 100 91 108V410Q91 418 83.5 427.5Q76 437 67 437H25V525H214Q226 525 232 512Q238 499 238 469V108Q238 99 246 91Q254 83 263 83H301V0H29ZM60 566Q28 566 6.5 587Q-15 608 -15 639Q-15 669 6.5 690.5Q28 712 60 712Q92 712 113.5 690.5Q135 669 135 639Q135 608 113.5 587Q92 566 60 566ZM252 566Q220 566 198.5 587Q177 608 177 639Q177 669 198.5 690.5Q220 712 252 712Q284 712 305.5 690.5Q327 669 327 639Q327 608 305.5 587Q284 566 252 566Z" glyph-name="idieresis" horiz-adv-x="329" unicode="&#239;" /><glyph d="M29 83H67Q76 83 83.5 91.5Q91 100 91 108V410Q91 418 83.5 427.5Q76 437 67 437H25V525H214Q226 525 232 512Q238 499 238 469V108Q238 99 246 91Q254 83 263 83H301V0H29ZM124 562 27 650V700H173L201 562Z" glyph-name="igrave" horiz-adv-x="329" unicode="&#236;" /><glyph d="M-18 -84H16Q58 -84 74.5 -67.5Q91 -51 91 -13V410Q91 418 83.5 427.5Q76 437 67 437H25V525H214Q226 525 232 512Q238 499 238 469V-22Q238 -63 226.5 -91Q215 -119 193 -136Q171 -153 139 -160.5Q107 -168 67 -168Q18 -168 -18 -157ZM163 566Q130 566 107 588.5Q84 611 84 643Q84 675 107 698Q130 721 163 721Q196 721 219 698Q242 675 242 643Q242 611 219 588.5Q196 566 163 566Z" glyph-name="j" horiz-adv-x="304" unicode="j" /><glyph d="M29 83H64Q73 83 81 91.5Q89 100 89 108V587Q89 595 81 604.5Q73 614 64 614H26V700H210Q235 700 235 666V268L367 397Q379 410 376.5 423.5Q374 437 359 437H339V525H576V437H548Q537 437 525.5 431.5Q514 426 506 418L394 309L531 111Q551 83 570 83H580V0H437L294 212L235 155V83H286V0H29Z" glyph-name="k" horiz-adv-x="609" unicode="k" /><glyph d="M29 83H68Q77 83 85 91.5Q93 100 93 108V587Q93 595 85 604.5Q77 614 68 614H26V700H214Q239 700 239 666V108Q239 99 247.5 91Q256 83 264 83H305V0H29Z" glyph-name="l" horiz-adv-x="334" unicode="l" /><glyph d="M36 378 422 571H456V463L184 333V330L456 198V88H422L36 281Z" glyph-name="less" horiz-adv-x="496" unicode="&lt;" /><glyph d="M31 356 93 395V587Q93 595 85 604.5Q77 614 68 614H26V700H214Q239 700 239 666V488L301 528V437L239 397V108Q239 99 247.5 91Q256 83 264 83H305V0H29V83H68Q77 83 85 91.5Q93 100 93 108V304L31 265Z" glyph-name="lslash" horiz-adv-x="333" unicode="&#322;" /><glyph d="M29 83H64Q73 83 81 91.5Q89 100 89 108V410Q89 418 81 427.5Q73 437 64 437H25V525H204Q217 525 224.5 511Q232 497 234 456Q267 484 314 508.5Q361 533 421 533Q464 533 499 515.5Q534 498 548 451Q565 466 585.5 480.5Q606 495 630 506.5Q654 518 681.5 525.5Q709 533 740 533Q766 533 790 527Q814 521 832.5 506Q851 491 862 465.5Q873 440 873 402V108Q873 99 881 91Q889 83 898 83H926V0H671V83H727V356Q727 394 713 406.5Q699 419 664 419Q636 419 607.5 413.5Q579 408 554 400V83H611V0H352V83H408V356Q408 394 394 406.5Q380 419 345 419Q317 419 288.5 413.5Q260 408 235 400V83H292V0H29Z" glyph-name="m" horiz-adv-x="954" unicode="m" /><glyph d="M353 585H87V679H353Z" glyph-name="macron" horiz-adv-x="440" unicode="&#175;" /><glyph d="M36 288V403H513V288Z" glyph-name="minus" horiz-adv-x="549" unicode="&#8722;" /><glyph d="M277 263 130 116 54 192 201 339 54 486 130 562 277 415 424 562 499 486 352 339 499 192 424 116Z" glyph-name="multiply" horiz-adv-x="553" unicode="&#215;" /><glyph d="M29 83H64Q73 83 81 91.5Q89 100 89 108V410Q89 418 81 427.5Q73 437 64 437H25V525H204Q217 525 224.5 511.5Q232 498 234 457Q271 492 320 512.5Q369 533 429 533Q456 533 481 527Q506 521 524.5 506Q543 491 554 465.5Q565 440 565 402V108Q565 99 573 91Q581 83 590 83H618V0H359V83H419V352Q419 391 403 405Q387 419 350 419Q318 419 289.5 413Q261 407 235 399V83H296V0H29Z" glyph-name="n" horiz-adv-x="647" unicode="n" /><glyph d="M242 92Q402 92 414 327Q386 295 344.5 275.5Q303 256 250 256Q203 256 164 270Q125 284 96.5 311Q68 338 52 377.5Q36 417 36 468Q36 520 54.5 564Q73 608 107.5 640Q142 672 190.5 690Q239 708 299 708Q359 708 409.5 688.5Q460 669 497 627.5Q534 586 554.5 521Q575 456 575 365Q575 275 551.5 205Q528 135 483 88Q438 41 374 16.5Q310 -8 229 -8Q176 -8 133 -1Q90 6 63 16V140H147Q158 121 179.5 106.5Q201 92 242 92ZM296 354Q336 354 365.5 365.5Q395 377 415 391Q413 508 386.5 561.5Q360 615 299 615Q268 615 247.5 603.5Q227 592 214.5 572.5Q202 553 197 527Q192 501 192 473Q192 416 218 385Q244 354 296 354Z" glyph-name="nine" horiz-adv-x="613" unicode="9" /><glyph d="M29 83H64Q73 83 81 91.5Q89 100 89 108V410Q89 418 81 427.5Q73 437 64 437H25V525H204Q217 525 224.5 511.5Q232 498 234 457Q271 492 320 512.5Q369 533 429 533Q456 533 481 527Q506 521 524.5 506Q543 491 554 465.5Q565 440 565 402V108Q565 99 573 91Q581 83 590 83H618V0H359V83H419V352Q419 391 403 405Q387 419 350 419Q318 419 289.5 413Q261 407 235 399V83H296V0H29ZM155 637Q169 661 191.5 678.5Q214 696 254 696Q272 696 290.5 691.5Q309 687 327 682Q345 677 360 672.5Q375 668 385 668Q402 668 411 676.5Q420 685 425 700H491V625Q477 601 454.5 583.5Q432 566 392 566Q374 566 355.5 571Q337 576 319 582Q301 588 286 593Q271 598 261 598Q244 598 235 588.5Q226 579 221 564H155Z" glyph-name="ntilde" horiz-adv-x="647" unicode="&#241;" /><glyph d="M64 528H152L177 700H266L241 528H332L357 700H446L421 528H492V411H404L389 313H460V196H372L344 0H255L283 196H192L164 0H75L103 196H32V313H120L135 411H64ZM209 313H300L315 411H224Z" glyph-name="numbersign" horiz-adv-x="524" unicode="#" /><glyph d="M309 -7Q252 -7 201.5 11Q151 29 113.5 63.5Q76 98 54.5 147.5Q33 197 33 260Q33 323 54.5 374Q76 425 113.5 460Q151 495 201.5 514Q252 533 309 533Q366 533 416.5 514Q467 495 504.5 460Q542 425 563.5 374Q585 323 585 260Q585 197 563.5 147.5Q542 98 504.5 63.5Q467 29 416.5 11Q366 -7 309 -7ZM309 85Q364 85 400.5 127.5Q437 170 437 259Q437 349 400.5 393Q364 437 309 437Q254 437 217.5 393Q181 349 181 259Q181 170 217.5 127.5Q254 85 309 85Z" glyph-name="o" horiz-adv-x="618" unicode="o" /><glyph d="M309 -7Q252 -7 201.5 11Q151 29 113.5 63.5Q76 98 54.5 147.5Q33 197 33 260Q33 323 54.5 374Q76 425 113.5 460Q151 495 201.5 514Q252 533 309 533Q366 533 416.5 514Q467 495 504.5 460Q542 425 563.5 374Q585 323 585 260Q585 197 563.5 147.5Q542 98 504.5 63.5Q467 29 416.5 11Q366 -7 309 -7ZM309 85Q364 85 400.5 127.5Q437 170 437 259Q437 349 400.5 393Q364 437 309 437Q254 437 217.5 393Q181 349 181 259Q181 170 217.5 127.5Q254 85 309 85ZM292 700H438V650L341 562H264Z" glyph-name="oacute" horiz-adv-x="618" unicode="&#243;" /><glyph d="M309 -7Q252 -7 201.5 11Q151 29 113.5 63.5Q76 98 54.5 147.5Q33 197 33 260Q33 323 54.5 374Q76 425 113.5 460Q151 495 201.5 514Q252 533 309 533Q366 533 416.5 514Q467 495 504.5 460Q542 425 563.5 374Q585 323 585 260Q585 197 563.5 147.5Q542 98 504.5 63.5Q467 29 416.5 11Q366 -7 309 -7ZM309 85Q364 85 400.5 127.5Q437 170 437 259Q437 349 400.5 393Q364 437 309 437Q254 437 217.5 393Q181 349 181 259Q181 170 217.5 127.5Q254 85 309 85ZM179 599 250 700H370L437 599V562H384L306 622L228 562H179Z" glyph-name="ocircumflex" horiz-adv-x="618" unicode="&#244;" /><glyph d="M309 -7Q252 -7 201.5 11Q151 29 113.5 63.5Q76 98 54.5 147.5Q33 197 33 260Q33 323 54.5 374Q76 425 113.5 460Q151 495 201.5 514Q252 533 309 533Q366 533 416.5 514Q467 495 504.5 460Q542 425 563.5 374Q585 323 585 260Q585 197 563.5 147.5Q542 98 504.5 63.5Q467 29 416.5 11Q366 -7 309 -7ZM309 85Q364 85 400.5 127.5Q437 170 437 259Q437 349 400.5 393Q364 437 309 437Q254 437 217.5 393Q181 349 181 259Q181 170 217.5 127.5Q254 85 309 85ZM213 566Q181 566 159.5 587Q138 608 138 639Q138 669 159.5 690.5Q181 712 213 712Q245 712 266.5 690.5Q288 669 288 639Q288 608 266.5 587Q245 566 213 566ZM405 566Q373 566 351.5 587Q330 608 330 639Q330 669 351.5 690.5Q373 712 405 712Q437 712 458.5 690.5Q480 669 480 639Q480 608 458.5 587Q437 566 405 566Z" glyph-name="odieresis" horiz-adv-x="618" unicode="&#246;" /><glyph d="M302 -7Q245 -7 195.5 11Q146 29 110 63.5Q74 98 53.5 147.5Q33 197 33 260Q33 323 53.5 374Q74 425 110 460Q146 495 195.5 514Q245 533 302 533Q365 533 415.5 511Q466 489 499 447Q529 489 576 511Q623 533 688 533Q806 533 864.5 471Q923 409 923 275Q923 261 922 250Q921 239 921 235H577Q582 157 614.5 120Q647 83 710 83Q757 83 780 99.5Q803 116 821 140H904V44Q888 34 869 25Q850 16 826 9Q802 2 770.5 -2.5Q739 -7 698 -7Q625 -7 575.5 14Q526 35 497 74Q464 34 414 13.5Q364 -7 302 -7ZM304 85Q359 85 394 127.5Q429 170 429 259Q429 349 394 393Q359 437 304 437Q249 437 215 393Q181 349 181 259Q181 170 215 127.5Q249 85 304 85ZM688 446Q642 446 615 416Q588 386 580 318H777Q774 387 753.5 416.5Q733 446 688 446Z" glyph-name="oe" horiz-adv-x="955" unicode="&#339;" /><glyph d="M291 0Q277 -14 267.5 -26Q258 -38 258 -57Q258 -69 267 -76.5Q276 -84 299 -84H318V-148Q304 -156 287.5 -160.5Q271 -165 245 -165Q200 -165 174.5 -145.5Q149 -126 149 -91Q149 -74 156 -59.5Q163 -45 174.5 -33.5Q186 -22 200 -13.5Q214 -5 228 0Z" glyph-name="ogonek" horiz-adv-x="440" unicode="&#731;" /><glyph d="M309 -7Q252 -7 201.5 11Q151 29 113.5 63.5Q76 98 54.5 147.5Q33 197 33 260Q33 323 54.5 374Q76 425 113.5 460Q151 495 201.5 514Q252 533 309 533Q366 533 416.5 514Q467 495 504.5 460Q542 425 563.5 374Q585 323 585 260Q585 197 563.5 147.5Q542 98 504.5 63.5Q467 29 416.5 11Q366 -7 309 -7ZM309 85Q364 85 400.5 127.5Q437 170 437 259Q437 349 400.5 393Q364 437 309 437Q254 437 217.5 393Q181 349 181 259Q181 170 217.5 127.5Q254 85 309 85ZM277 562 180 650V700H326L354 562Z" glyph-name="ograve" horiz-adv-x="618" unicode="&#242;" /><glyph d="M31 83H107Q118 83 126.5 93.5Q135 104 135 114V554L66 523H31V606L187 700H292V114Q292 104 300.5 93.5Q309 83 320 83H383V0H31Z" glyph-name="one" horiz-adv-x="414" unicode="1" /><glyph d="M572 -6Q494 -6 452 25Q410 56 410 109Q410 180 489 205V207Q425 227 425 287Q425 335 466.5 363Q508 391 572 391Q636 391 677 363Q718 335 718 287Q718 226 655 207V205Q734 180 734 109Q734 56 692 25Q650 -6 572 -6ZM572 61Q601 61 614 77Q627 93 627 117Q627 141 614 157.5Q601 174 572 174Q543 174 530 157.5Q517 141 517 117Q517 93 530 77Q543 61 572 61ZM572 233Q593 233 604 245Q615 257 615 278Q615 299 604 311Q593 323 572 323Q551 323 539.5 311Q528 299 528 278Q528 257 539.5 245Q551 233 572 233ZM572 729H664L171 -34H79ZM29 375H76Q81 375 86 380.5Q91 386 91 391V607L52 586H27V655L123 700H203V391Q203 386 208 380.5Q213 375 218 375H260V315H29Z" glyph-name="oneeighth" horiz-adv-x="766" unicode="&#8539;" /><glyph d="M442 42Q442 68 449.5 89Q457 110 470 127.5Q483 145 500 160Q517 175 536 188Q551 199 565 208.5Q579 218 590 228Q601 238 607.5 248.5Q614 259 614 272Q614 294 602 305Q590 316 570 316Q548 316 533.5 305Q519 294 511 277H453V370Q479 379 510 385Q541 391 581 391Q647 391 686.5 363Q726 335 726 278Q726 252 716.5 232.5Q707 213 691.5 198.5Q676 184 657 172.5Q638 161 620 150Q590 133 566.5 116Q543 99 538 80H645L651 112H719V0H442ZM572 729H664L171 -34H79ZM29 375H76Q81 375 86 380.5Q91 386 91 391V607L52 586H27V655L123 700H203V391Q203 386 208 380.5Q213 375 218 375H260V315H29Z" glyph-name="onehalf" horiz-adv-x="757" unicode="&#189;" /><glyph d="M499 60H525Q530 60 535 65.5Q540 71 540 76V99H374V178L542 385H649V164H690V99H649V76Q649 71 654 65.5Q659 60 664 60H690V0H499ZM442 164H542V288H540L442 167ZM580 729H672L179 -34H87ZM29 375H76Q81 375 86 380.5Q91 386 91 391V607L52 586H27V655L123 700H203V391Q203 386 208 380.5Q213 375 218 375H260V315H29Z" glyph-name="onequarter" horiz-adv-x="717" unicode="&#188;" /><glyph d="M29 375H76Q81 375 86 380.5Q91 386 91 391V607L52 586H27V655L123 700H203V391Q203 386 208 380.5Q213 375 218 375H260V315H29Z" glyph-name="onesuperior" horiz-adv-x="287" unicode="&#185;" /><glyph d="M560 -6Q518 -6 489.5 -0.5Q461 5 439 14V98H497Q505 86 519 75Q533 64 556 64Q578 64 594.5 76Q611 88 611 114Q611 161 551 161H518V226H548Q609 226 609 272Q609 293 597.5 305Q586 317 563 317Q542 317 528.5 307Q515 297 507 285H451V370Q477 379 508.5 385Q540 391 575 391Q639 391 677 367Q715 343 715 289Q715 250 692.5 228.5Q670 207 632 199V196Q721 184 721 107Q721 53 677.5 23.5Q634 -6 560 -6ZM29 375H76Q81 375 86 380.5Q91 386 91 391V607L52 586H27V655L123 700H203V391Q203 386 208 380.5Q213 375 218 375H260V315H29ZM572 729H664L171 -34H79Z" glyph-name="onethird" horiz-adv-x="752" unicode="&#8531;" /><glyph d="M170 254Q109 254 69 287Q29 320 29 386Q29 421 41.5 446.5Q54 472 77 488.5Q100 505 132 513Q164 521 203 521Q230 521 250 519Q270 517 291 512V555Q291 616 218 616Q179 616 157 605Q135 594 119 581H59V674Q91 688 135.5 698Q180 708 245 708Q336 708 380.5 676.5Q425 645 425 568V357Q425 349 431.5 342Q438 335 446 335H468V271Q454 263 434 258Q414 253 388 253Q349 253 327 267Q305 281 297 307Q272 278 240.5 266Q209 254 170 254ZM221 332Q242 332 259.5 339.5Q277 347 291 360V449Q277 451 262.5 452.5Q248 454 232 454Q197 454 178 439.5Q159 425 159 393Q159 361 175.5 346.5Q192 332 221 332Z" glyph-name="ordfeminine" horiz-adv-x="495" unicode="&#170;" /><glyph d="M266 253Q216 253 173 268.5Q130 284 98.5 313Q67 342 48.5 383.5Q30 425 30 478Q30 531 48.5 573.5Q67 616 98.5 646Q130 676 173 692Q216 708 266 708Q315 708 358 692Q401 676 432.5 646Q464 616 482 573.5Q500 531 500 478Q500 425 482 383.5Q464 342 432.5 313Q401 284 358 268.5Q315 253 266 253ZM266 336Q308 336 336 370.5Q364 405 364 477Q364 549 336 584.5Q308 620 266 620Q223 620 194.5 584.5Q166 549 166 477Q166 405 194.5 370.5Q223 336 266 336Z" glyph-name="ordmasculine" horiz-adv-x="530" unicode="&#186;" /><glyph d="M505 459Q543 424 564 373.5Q585 323 585 260Q585 197 563.5 147.5Q542 98 504.5 63.5Q467 29 416.5 11Q366 -7 309 -7Q227 -7 165 27L121 -29H42L114 63Q76 98 54.5 147Q33 196 33 260Q33 323 54.5 374Q76 425 113.5 460Q151 495 201.5 514Q252 533 309 533Q390 533 455 496L495 546H574ZM179 259Q179 229 182.5 205.5Q186 182 193 163L388 410Q356 438 309 438Q254 438 216.5 393Q179 348 179 259ZM309 84Q336 84 360 94.5Q384 105 401.5 127Q419 149 429 182Q439 215 439 259Q439 317 424 356L229 109Q246 95 266 89.5Q286 84 309 84Z" glyph-name="oslash" horiz-adv-x="618" unicode="&#248;" /><glyph d="M309 -7Q252 -7 201.5 11Q151 29 113.5 63.5Q76 98 54.5 147.5Q33 197 33 260Q33 323 54.5 374Q76 425 113.5 460Q151 495 201.5 514Q252 533 309 533Q366 533 416.5 514Q467 495 504.5 460Q542 425 563.5 374Q585 323 585 260Q585 197 563.5 147.5Q542 98 504.5 63.5Q467 29 416.5 11Q366 -7 309 -7ZM309 85Q364 85 400.5 127.5Q437 170 437 259Q437 349 400.5 393Q364 437 309 437Q254 437 217.5 393Q181 349 181 259Q181 170 217.5 127.5Q254 85 309 85ZM141 637Q155 661 177.5 678.5Q200 696 240 696Q258 696 276.5 691.5Q295 687 313 682Q331 677 346 672.5Q361 668 371 668Q388 668 397 676.5Q406 685 411 700H477V625Q463 601 440.5 583.5Q418 566 378 566Q360 566 341.5 571Q323 576 305 582Q287 588 272 593Q257 598 247 598Q230 598 221 588.5Q212 579 207 564H141Z" glyph-name="otilde" horiz-adv-x="618" unicode="&#245;" /><glyph d="M29 -84H64Q73 -84 81 -76Q89 -68 89 -59V410Q89 418 81 427.5Q73 437 64 437H25V525H204Q216 525 223.5 513Q231 501 233 464Q262 493 301 513Q340 533 393 533Q430 533 465.5 519Q501 505 529 474Q557 443 574 393.5Q591 344 591 274Q591 201 571.5 151Q552 101 520 69.5Q488 38 447.5 24Q407 10 365 10Q320 10 289 19.5Q258 29 235 46V-84H302V-162H29ZM322 428Q302 428 279.5 422.5Q257 417 235 409V116Q252 105 272 99Q292 93 320 93Q342 93 364.5 99.5Q387 106 404 124.5Q421 143 432 175.5Q443 208 443 261Q443 311 433 343.5Q423 376 406.5 394.5Q390 413 368 420.5Q346 428 322 428Z" glyph-name="p" horiz-adv-x="625" unicode="p" /><glyph d="M260 303Q210 305 168.5 316.5Q127 328 97 351.5Q67 375 50 411.5Q33 448 33 501Q33 558 52.5 596.5Q72 635 106 658Q140 681 186.5 690.5Q233 700 287 700H563V614H525Q514 614 505 603.5Q496 593 496 583V-91H412V608H344V-91H260Z" glyph-name="paragraph" horiz-adv-x="594" unicode="&#182;" /><glyph d="M311 662Q285 653 259 634.5Q233 616 212 580Q191 544 178 488.5Q165 433 165 351Q165 263 178 204.5Q191 146 212 110Q233 74 259 55.5Q285 37 311 28V-49H267Q223 -38 181.5 -10.5Q140 17 107.5 65Q75 113 55.5 183.5Q36 254 36 351Q36 444 55.5 512.5Q75 581 107.5 628Q140 675 181.5 702.5Q223 730 267 741H311Z" glyph-name="parenleft" horiz-adv-x="342" unicode="(" /><glyph d="M31 741H75Q119 730 160.5 702.5Q202 675 234.5 628Q267 581 286.5 512.5Q306 444 306 351Q306 254 286.5 183.5Q267 113 234.5 65Q202 17 160.5 -10.5Q119 -38 75 -49H31V28Q56 37 82 55.5Q108 74 129 110Q150 146 163.5 204.5Q177 263 177 351Q177 433 163.5 488.5Q150 544 129 580Q108 616 82 634.5Q56 653 31 662Z" glyph-name="parenright" horiz-adv-x="342" unicode=")" /><glyph d="M203 334Q168 334 137 345.5Q106 357 83 380Q60 403 46 438Q32 473 32 521Q32 569 46 604Q60 639 83 662Q106 685 137 696.5Q168 708 203 708Q237 708 268.5 696.5Q300 685 323 662Q346 639 360 604Q374 569 374 521Q374 473 360 438Q346 403 323 380Q300 357 268.5 345.5Q237 334 203 334ZM613 -8Q578 -8 547 3.5Q516 15 493 38Q470 61 456 96Q442 131 442 179Q442 227 456 262Q470 297 493 320Q516 343 547 354.5Q578 366 613 366Q647 366 678.5 354.5Q710 343 733 320Q756 297 770 262Q784 227 784 179Q784 131 770 96Q756 61 733 38Q710 15 678.5 3.5Q647 -8 613 -8ZM208 -34H116L609 729H701ZM203 408Q232 408 247 433.5Q262 459 262 519Q262 579 247 605.5Q232 632 203 632Q174 632 159 605.5Q144 579 144 519Q144 459 159 433.5Q174 408 203 408ZM613 66Q642 66 657 91.5Q672 117 672 177Q672 237 657 263.5Q642 290 613 290Q584 290 569 263.5Q554 237 554 177Q554 117 569 91.5Q584 66 613 66Z" glyph-name="percent" horiz-adv-x="816" unicode="%" /><glyph d="M122 -6Q87 -6 63.5 17Q40 40 40 74Q40 108 63.5 131.5Q87 155 122 155Q156 155 180 131.5Q204 108 204 74Q204 40 180 17Q156 -6 122 -6Z" glyph-name="period" horiz-adv-x="244" unicode="." /><glyph d="M122 215Q87 215 63.5 238Q40 261 40 295Q40 329 63.5 352.5Q87 376 122 376Q156 376 180 352.5Q204 329 204 295Q204 261 180 238Q156 215 122 215Z" glyph-name="periodcentered" horiz-adv-x="244" unicode="&#183;" /><glyph d="M203 334Q168 334 137 345.5Q106 357 83 380Q60 403 46 438Q32 473 32 521Q32 569 46 604Q60 639 83 662Q106 685 137 696.5Q168 708 203 708Q237 708 268.5 696.5Q300 685 323 662Q346 639 360 604Q374 569 374 521Q374 473 360 438Q346 403 323 380Q300 357 268.5 345.5Q237 334 203 334ZM613 -8Q578 -8 547 3.5Q516 15 493 38Q470 61 456 96Q442 131 442 179Q442 227 456 262Q470 297 493 320Q516 343 547 354.5Q578 366 613 366Q647 366 678.5 354.5Q710 343 733 320Q756 297 770 262Q784 227 784 179Q784 131 770 96Q756 61 733 38Q710 15 678.5 3.5Q647 -8 613 -8ZM982 -8Q947 -8 916 3.5Q885 15 862 38Q839 61 825 96Q811 131 811 179Q811 227 825 262Q839 297 862 320Q885 343 916 354.5Q947 366 982 366Q1016 366 1047.5 354.5Q1079 343 1102 320Q1125 297 1139 262Q1153 227 1153 179Q1153 131 1139 96Q1125 61 1102 38Q1079 15 1047.5 3.5Q1016 -8 982 -8ZM208 -34H116L609 729H701ZM982 66Q1011 66 1026 91.5Q1041 117 1041 177Q1041 237 1026 263.5Q1011 290 982 290Q953 290 938 263.5Q923 237 923 177Q923 117 938 91.5Q953 66 982 66ZM203 408Q232 408 247 433.5Q262 459 262 519Q262 579 247 605.5Q232 632 203 632Q174 632 159 605.5Q144 579 144 519Q144 459 159 433.5Q174 408 203 408ZM613 66Q642 66 657 91.5Q672 117 672 177Q672 237 657 263.5Q642 290 613 290Q584 290 569 263.5Q554 237 554 177Q554 117 569 91.5Q584 66 613 66Z" glyph-name="perthousand" horiz-adv-x="1185" unicode="&#8240;" /><glyph d="M336 288V100H214V288H36V403H214V591H336V403H513V288Z" glyph-name="plus" horiz-adv-x="549" unicode="+" /><glyph d="M333 -84H400V62Q374 39 338 24.5Q302 10 252 10Q213 10 174 21.5Q135 33 104 61.5Q73 90 53.5 138.5Q34 187 34 261Q34 334 54.5 385.5Q75 437 107 470Q139 503 178.5 518Q218 533 256 533Q310 533 345.5 515.5Q381 498 407 468Q416 502 431.5 513.5Q447 525 458 525H546V-59Q546 -68 554 -76Q562 -84 571 -84H609V-162H333ZM301 97Q359 97 400 124V414Q381 421 358.5 426.5Q336 432 313 432Q287 432 263.5 424Q240 416 222 396.5Q204 377 193 345Q182 313 182 264Q182 211 192 178.5Q202 146 219 128Q236 110 257 103.5Q278 97 301 97Z" glyph-name="q" horiz-adv-x="605" unicode="q" /><glyph d="M139 206Q135 233 134.5 256Q134 279 140 301.5Q146 324 160.5 347Q175 370 202 398Q211 407 224 420.5Q237 434 249.5 451Q262 468 270.5 488Q279 508 279 530Q279 565 261 585.5Q243 606 211 606Q174 606 153.5 587.5Q133 569 119 545H32V674Q77 690 118 699Q159 708 216 708Q318 708 378.5 661.5Q439 615 439 525Q439 495 432 472Q425 449 412 430.5Q399 412 380.5 395.5Q362 379 340 363Q311 341 288 323.5Q265 306 250 288.5Q235 271 228 251.5Q221 232 223 206ZM191 -6Q156 -6 132.5 17Q109 40 109 74Q109 108 132.5 131.5Q156 155 191 155Q225 155 249 131.5Q273 108 273 74Q273 40 249 17Q225 -6 191 -6Z" glyph-name="question" horiz-adv-x="472" unicode="?" /><glyph d="M256 -80Q154 -80 93.5 -33.5Q33 13 33 103Q33 133 40 156Q47 179 60 197.5Q73 216 91.5 232Q110 248 132 265Q161 287 184 304.5Q207 322 222 339.5Q237 357 244 376.5Q251 396 249 422H333Q337 395 337.5 372Q338 349 332 326.5Q326 304 311.5 281Q297 258 270 230Q261 221 248 207.5Q235 194 222.5 177Q210 160 201.5 140Q193 120 193 98Q193 63 211 42.5Q229 22 261 22Q298 22 318.5 40.5Q339 59 353 83H440V-46Q395 -62 354 -71Q313 -80 256 -80ZM281 473Q247 473 223 496.5Q199 520 199 554Q199 588 223 611Q247 634 281 634Q316 634 339.5 611Q363 588 363 554Q363 520 339.5 496.5Q316 473 281 473Z" glyph-name="questiondown" horiz-adv-x="472" unicode="&#191;" /><glyph d="M44 627V700H184V627L150 476H78ZM225 627V700H365V627L331 476H259Z" glyph-name="quotedbl" horiz-adv-x="409" unicode="&quot;" /><glyph d="M213 -37Q243 -34 258 -24Q273 -14 273 -1Q273 13 263.5 16.5Q254 20 242 28Q228 37 221 50Q214 63 214 85Q214 114 235.5 132.5Q257 151 289 151Q322 151 347 129Q372 107 372 60Q372 -14 333 -53Q294 -92 213 -99ZM31 -37Q61 -34 76 -24Q91 -14 91 -1Q91 13 81.5 16.5Q72 20 60 28Q46 37 39 50Q32 63 32 85Q32 114 53.5 132.5Q75 151 107 151Q140 151 165 129Q190 107 190 60Q190 -14 151 -53Q112 -92 31 -99Z" glyph-name="quotedblbase" horiz-adv-x="403" unicode="&#8222;" /><glyph d="M190 641Q160 638 145 628Q130 618 130 605Q130 591 139.5 587.5Q149 584 161 576Q175 567 182 554Q189 541 189 519Q189 490 167.5 471.5Q146 453 114 453Q81 453 56 475Q31 497 31 544Q31 618 70 657Q109 696 190 703ZM372 641Q342 638 327 628Q312 618 312 605Q312 591 321.5 587.5Q331 584 343 576Q357 567 364 554Q371 541 371 519Q371 490 349.5 471.5Q328 453 296 453Q263 453 238 475Q213 497 213 544Q213 618 252 657Q291 696 372 703Z" glyph-name="quotedblleft" horiz-adv-x="403" unicode="&#8220;" /><glyph d="M213 519Q243 522 258 532Q273 542 273 555Q273 569 263.5 572.5Q254 576 242 584Q228 593 221 606Q214 619 214 641Q214 670 235.5 688.5Q257 707 289 707Q322 707 347 685Q372 663 372 616Q372 542 333 503Q294 464 213 457ZM31 519Q61 522 76 532Q91 542 91 555Q91 569 81.5 572.5Q72 576 60 584Q46 593 39 606Q32 619 32 641Q32 670 53.5 688.5Q75 707 107 707Q140 707 165 685Q190 663 190 616Q190 542 151 503Q112 464 31 457Z" glyph-name="quotedblright" horiz-adv-x="403" unicode="&#8221;" /><glyph d="M190 641Q160 638 145 628Q130 618 130 605Q130 591 139.5 587.5Q149 584 161 576Q175 567 182 554Q189 541 189 519Q189 490 167.5 471.5Q146 453 114 453Q81 453 56 475Q31 497 31 544Q31 618 70 657Q109 696 190 703Z" glyph-name="quoteleft" horiz-adv-x="221" unicode="&#8216;" /><glyph d="M31 519Q61 522 76 532Q91 542 91 555Q91 569 81.5 572.5Q72 576 60 584Q46 593 39 606Q32 619 32 641Q32 670 53.5 688.5Q75 707 107 707Q140 707 165 685Q190 663 190 616Q190 542 151 503Q112 464 31 457Z" glyph-name="quoteright" horiz-adv-x="221" unicode="&#8217;" /><glyph d="M31 -37Q61 -34 76 -24Q91 -14 91 -1Q91 13 81.5 16.5Q72 20 60 28Q46 37 39 50Q32 63 32 85Q32 114 53.5 132.5Q75 151 107 151Q140 151 165 129Q190 107 190 60Q190 -14 151 -53Q112 -92 31 -99Z" glyph-name="quotesinglbase" horiz-adv-x="221" unicode="&#8218;" /><glyph d="M44 627V700H184V627L150 476H78Z" glyph-name="quotesingle" horiz-adv-x="228" unicode="'" /><glyph d="M29 83H64Q73 83 81 91.5Q89 100 89 108V410Q89 418 81 427.5Q73 437 64 437H25V525H204Q217 525 224.5 510Q232 495 234 449Q260 481 293.5 505.5Q327 530 379 530Q394 530 411 525V417H386Q329 417 293 407Q257 397 235 385V83H308V0H29Z" glyph-name="r" horiz-adv-x="443" unicode="r" /><glyph d="M213 350Q177 350 144 362Q111 374 86.5 397Q62 420 47 453.5Q32 487 32 529Q32 572 47 605Q62 638 86.5 661Q111 684 144 696Q177 708 213 708Q249 708 281.5 696Q314 684 339 661Q364 638 379 605Q394 572 394 529Q394 487 379 453.5Q364 420 339 397Q314 374 281.5 362Q249 350 213 350ZM213 383Q243 383 268.5 392.5Q294 402 313.5 420.5Q333 439 344 466Q355 493 355 529Q355 565 344 592Q333 619 313.5 637.5Q294 656 268.5 665.5Q243 675 213 675Q183 675 157.5 665.5Q132 656 112.5 637.5Q93 619 82 592Q71 565 71 529Q71 493 82 466Q93 439 112.5 420.5Q132 402 157.5 392.5Q183 383 213 383ZM132 473H140Q147 473 147 481V582Q147 589 140 589H132V619H218Q291 619 291 569Q291 539 256 529V528Q270 526 277 518.5Q284 511 289 492L292 479Q293 473 298 473H304V444H242L236 492Q234 503 229.5 507.5Q225 512 214 512H203V473H220V444H132ZM201 541H213Q227 541 231.5 547.5Q236 554 236 565Q236 576 231.5 581.5Q227 587 213 587H201Z" glyph-name="registered" horiz-adv-x="426" unicode="&#174;" /><glyph d="M220 566Q177 566 146 592.5Q115 619 115 666Q115 713 146 740Q177 767 220 767Q263 767 294 740Q325 713 325 666Q325 619 294 592.5Q263 566 220 566ZM220 612Q243 612 258 626.5Q273 641 273 666Q273 692 258 706.5Q243 721 220 721Q197 721 182.5 706.5Q168 692 168 666Q168 641 182.5 626.5Q197 612 220 612Z" glyph-name="ring" horiz-adv-x="440" unicode="&#730;" /><glyph d="M223 -6Q152 -6 108.5 2.5Q65 11 33 22V140H117Q126 112 156.5 96Q187 80 222 80Q264 80 288 96.5Q312 113 312 142Q312 171 290 185.5Q268 200 205 209Q120 221 79.5 255.5Q39 290 39 367Q39 445 95.5 488Q152 531 253 531Q315 531 358 525Q401 519 433 508V392H352Q339 415 314.5 429Q290 443 248 443Q207 443 185.5 428Q164 413 164 388Q164 376 168.5 366.5Q173 357 185 349Q197 341 218 335Q239 329 272 324Q320 317 353.5 306Q387 295 409 276.5Q431 258 441 231Q451 204 451 164Q451 87 396.5 40.5Q342 -6 223 -6Z" glyph-name="s" horiz-adv-x="482" unicode="s" /><glyph d="M223 -6Q152 -6 108.5 2.5Q65 11 33 22V140H117Q126 112 156.5 96Q187 80 222 80Q264 80 288 96.5Q312 113 312 142Q312 171 290 185.5Q268 200 205 209Q120 221 79.5 255.5Q39 290 39 367Q39 445 95.5 488Q152 531 253 531Q315 531 358 525Q401 519 433 508V392H352Q339 415 314.5 429Q290 443 248 443Q207 443 185.5 428Q164 413 164 388Q164 376 168.5 366.5Q173 357 185 349Q197 341 218 335Q239 329 272 324Q320 317 353.5 306Q387 295 409 276.5Q431 258 441 231Q451 204 451 164Q451 87 396.5 40.5Q342 -6 223 -6ZM120 663V700H173L251 640L329 700H378V663L307 562H187Z" glyph-name="scaron" horiz-adv-x="482" unicode="&#353;" /><glyph d="M256 -133Q220 -133 192 -130.5Q164 -128 141.5 -123.5Q119 -119 100 -113.5Q81 -108 64 -102V26H155Q166 -6 189 -25.5Q212 -45 254 -45Q302 -45 323 -27Q344 -9 344 23Q344 41 337.5 52.5Q331 64 315 73Q299 82 272 90Q245 98 204 110Q122 133 79 170.5Q36 208 36 277Q36 331 62 362.5Q88 394 134 411Q106 432 93 461.5Q80 491 80 533Q80 614 136 661Q192 708 294 708Q328 708 354.5 706Q381 704 402.5 700.5Q424 697 441.5 692Q459 687 476 681V561H385Q374 589 355.5 604Q337 619 293 619Q248 619 227.5 601Q207 583 207 556Q207 541 212.5 529Q218 517 232 507.5Q246 498 271 489Q296 480 334 471Q383 459 419.5 445Q456 431 480 411Q504 391 516 363Q528 335 528 296Q528 248 501.5 215Q475 182 425 164Q457 142 471 114Q485 86 485 45Q485 6 471.5 -26.5Q458 -59 430 -83Q402 -107 358.5 -120Q315 -133 256 -133ZM220 370Q185 361 173 344.5Q161 328 161 304Q161 291 165.5 280.5Q170 270 181.5 261Q193 252 212.5 243.5Q232 235 263 226L339 204Q366 214 381 231Q396 248 396 274Q396 304 367.5 321.5Q339 339 286 353Z" glyph-name="section" horiz-adv-x="564" unicode="&#167;" /><glyph d="M37 -46Q69 -41 84.5 -30.5Q100 -20 100 -6Q100 8 90.5 12.5Q81 17 68 25Q54 35 46 48.5Q38 62 38 85Q38 115 60.5 135Q83 155 117 155Q152 155 178 131.5Q204 108 204 59Q204 -19 163.5 -60.5Q123 -102 37 -110ZM122 284Q87 284 63.5 307Q40 330 40 364Q40 398 63.5 421.5Q87 445 122 445Q156 445 180 421.5Q204 398 204 364Q204 330 180 307Q156 284 122 284Z" glyph-name="semicolon" horiz-adv-x="244" unicode=";" /><glyph d="M407 584H141L130 493H31V700H510V573L260 0H103V61L407 580Z" glyph-name="seven" horiz-adv-x="541" unicode="7" /><glyph d="M554 -6Q476 -6 434 25Q392 56 392 109Q392 180 471 205V207Q407 227 407 287Q407 335 448.5 363Q490 391 554 391Q618 391 659 363Q700 335 700 287Q700 226 637 207V205Q716 180 716 109Q716 56 674 25Q632 -6 554 -6ZM554 61Q583 61 596 77Q609 93 609 117Q609 141 596 157.5Q583 174 554 174Q525 174 512 157.5Q499 141 499 117Q499 93 512 77Q525 61 554 61ZM554 233Q575 233 586 245Q597 257 597 278Q597 299 586 311Q575 323 554 323Q533 323 521.5 311Q510 299 510 278Q510 257 521.5 245Q533 233 554 233ZM541 729H633L140 -34H48ZM69 360 238 617V619H100L94 573H27V700H310V613L179 315H69Z" glyph-name="seveneighths" horiz-adv-x="748" unicode="&#8542;" /><glyph d="M371 608Q210 608 199 373Q227 405 268.5 424.5Q310 444 363 444Q409 444 448.5 430Q488 416 516.5 389Q545 362 561 322.5Q577 283 577 232Q577 180 558.5 136Q540 92 505.5 60Q471 28 422.5 10Q374 -8 314 -8Q254 -8 203.5 13Q153 34 116 77Q79 120 58.5 184Q38 248 38 335Q38 425 61.5 494.5Q85 564 130 611.5Q175 659 239 683.5Q303 708 384 708Q437 708 474.5 703Q512 698 539 691V568H453Q448 574 442 581Q436 588 426.5 594Q417 600 403.5 604Q390 608 371 608ZM317 346Q277 346 247.5 334Q218 322 198 308Q200 191 226 138Q252 85 314 85Q345 85 365.5 96.5Q386 108 398.5 127.5Q411 147 416 173Q421 199 421 227Q421 284 395 315Q369 346 317 346Z" glyph-name="six" horiz-adv-x="613" unicode="6" /><glyph d="M113 -49H14L256 741H355Z" glyph-name="slash" horiz-adv-x="372" unicode="/" /><glyph glyph-name="space" horiz-adv-x="169" unicode=" " /><glyph d="M156 -164Q180 -162 190.5 -155Q201 -148 201 -138Q201 -129 193.5 -125Q186 -121 178 -116Q167 -108 162 -98Q157 -88 157 -71Q157 -48 174 -33Q191 -18 217 -18Q244 -18 264 -35.5Q284 -53 284 -91Q284 -209 156 -219Z" glyph-name="space_uni0326" horiz-adv-x="440" unicode="&#63171;" /><glyph d="M31 396H74Q66 426 61 454Q56 482 56 506Q56 558 75.5 596Q95 634 128 659Q161 684 204.5 696Q248 708 297 708Q357 708 403 697.5Q449 687 495 670V527H408Q400 543 391.5 557.5Q383 572 371 583Q359 594 342.5 600Q326 606 302 606Q263 606 239 582.5Q215 559 215 511Q215 493 219 463Q223 433 228 396H392V309H239Q242 281 244 255Q246 229 246 206Q246 186 243.5 168Q241 150 236 133Q274 124 314.5 120.5Q355 117 399 117L410 191H509V0H456Q365 0 295.5 11Q226 22 178 45Q146 19 102 0H31V83Q70 89 92.5 117.5Q115 146 115 191Q115 218 110 247.5Q105 277 97 309H31Z" glyph-name="sterling" horiz-adv-x="540" unicode="&#163;" /><glyph d="M25 525H87V665H233V525H339V437H233V149Q233 107 249.5 95Q266 83 307 83H343V5Q326 0 303 -4Q280 -8 249 -8Q211 -8 181 -1.5Q151 5 130 21.5Q109 38 98 65Q87 92 87 133V437H25Z" glyph-name="t" horiz-adv-x="372" unicode="t" /><glyph d="M-2 -84H33Q42 -84 50 -76Q58 -68 58 -59V587Q58 595 50 604.5Q42 614 33 614H-5V700H179Q204 700 204 666V469Q233 496 270 514.5Q307 533 358 533Q395 533 431.5 519Q468 505 496.5 474Q525 443 542.5 393.5Q560 344 560 274Q560 201 539.5 151Q519 101 486.5 69.5Q454 38 413 24Q372 10 330 10Q287 10 256.5 19Q226 28 204 43V-84H271V-162H-2ZM287 428Q268 428 246.5 423Q225 418 204 410V113Q220 103 239.5 98Q259 93 285 93Q307 93 330 99.5Q353 106 371 124.5Q389 143 400.5 175.5Q412 208 412 261Q412 311 401.5 343.5Q391 376 373.5 394.5Q356 413 333.5 420.5Q311 428 287 428Z" glyph-name="thorn" horiz-adv-x="594" unicode="&#254;" /><glyph d="M238 -8Q168 -8 120 1Q72 10 31 26V158H118Q132 132 160 112Q188 92 236 92Q284 92 318.5 119.5Q353 147 353 202Q353 310 227 310H175V403H219Q350 403 350 509Q350 554 327 579Q304 604 255 604Q210 604 183 585.5Q156 567 141 542H58V672Q104 689 155 698.5Q206 708 266 708Q321 708 364.5 697.5Q408 687 438.5 665Q469 643 485 608.5Q501 574 501 526Q501 454 461.5 416Q422 378 353 363V359Q511 337 511 194Q511 144 490.5 106.5Q470 69 433.5 43.5Q397 18 347 5Q297 -8 238 -8Z" glyph-name="three" horiz-adv-x="548" unicode="3" /><glyph d="M579 -6Q501 -6 459 25Q417 56 417 109Q417 180 496 205V207Q432 227 432 287Q432 335 473.5 363Q515 391 579 391Q643 391 684 363Q725 335 725 287Q725 226 662 207V205Q741 180 741 109Q741 56 699 25Q657 -6 579 -6ZM579 61Q608 61 621 77Q634 93 634 117Q634 141 621 157.5Q608 174 579 174Q550 174 537 157.5Q524 141 524 117Q524 93 537 77Q550 61 579 61ZM579 233Q600 233 611 245Q622 257 622 278Q622 299 611 311Q600 323 579 323Q558 323 546.5 311Q535 299 535 278Q535 257 546.5 245Q558 233 579 233ZM579 729H671L178 -34H86ZM148 309Q106 309 77.5 314.5Q49 320 27 329V413H85Q93 401 107 390Q121 379 144 379Q166 379 182.5 391Q199 403 199 429Q199 476 139 476H106V541H136Q197 541 197 587Q197 608 185.5 620Q174 632 151 632Q130 632 116.5 622Q103 612 95 600H39V685Q65 694 96.5 700Q128 706 163 706Q227 706 265 682Q303 658 303 604Q303 565 280.5 543.5Q258 522 220 514V511Q309 499 309 422Q309 368 265.5 338.5Q222 309 148 309Z" glyph-name="threeeighths" horiz-adv-x="773" unicode="&#8540;" /><glyph d="M500 60H526Q531 60 536 65.5Q541 71 541 76V99H375V178L543 385H650V164H691V99H650V76Q650 71 655 65.5Q660 60 665 60H691V0H500ZM443 164H543V288H541L443 167ZM587 729H679L186 -34H94ZM148 309Q106 309 77.5 314.5Q49 320 27 329V413H85Q93 401 107 390Q121 379 144 379Q166 379 182.5 391Q199 403 199 429Q199 476 139 476H106V541H136Q197 541 197 587Q197 608 185.5 620Q174 632 151 632Q130 632 116.5 622Q103 612 95 600H39V685Q65 694 96.5 700Q128 706 163 706Q227 706 265 682Q303 658 303 604Q303 565 280.5 543.5Q258 522 220 514V511Q309 499 309 422Q309 368 265.5 338.5Q222 309 148 309Z" glyph-name="threequarters" horiz-adv-x="718" unicode="&#190;" /><glyph d="M148 309Q106 309 77.5 314.5Q49 320 27 329V413H85Q93 401 107 390Q121 379 144 379Q166 379 182.5 391Q199 403 199 429Q199 476 139 476H106V541H136Q197 541 197 587Q197 608 185.5 620Q174 632 151 632Q130 632 116.5 622Q103 612 95 600H39V685Q65 694 96.5 700Q128 706 163 706Q227 706 265 682Q303 658 303 604Q303 565 280.5 543.5Q258 522 220 514V511Q309 499 309 422Q309 368 265.5 338.5Q222 309 148 309Z" glyph-name="threesuperior" horiz-adv-x="340" unicode="&#179;" /><glyph d="M52 637Q66 661 88.5 678.5Q111 696 151 696Q169 696 187.5 691.5Q206 687 224 682Q242 677 257 672.5Q272 668 282 668Q299 668 308 676.5Q317 685 322 700H388V625Q374 601 351.5 583.5Q329 566 289 566Q271 566 252.5 571Q234 576 216 582Q198 588 183 593Q168 598 158 598Q141 598 132 588.5Q123 579 118 564H52Z" glyph-name="tilde" horiz-adv-x="440" unicode="&#732;" /><glyph d="M313 461H327Q332 461 335.5 465Q339 469 339 474V645Q339 649 335.5 653Q332 657 327 657H313V700H455L499 541H500L545 700H687V657H672Q668 657 664.5 653Q661 649 661 645V474Q661 469 664.5 465Q668 461 672 461H687V420H553V461H580V641H579L514 420H463L399 641H398V461H425V420H313ZM98 461H113Q118 461 121.5 465Q125 469 125 474V655H90L85 600H35V700H299V600H249L243 655H208V474Q208 469 211.5 465Q215 461 220 461H236V420H98Z" glyph-name="trademark" horiz-adv-x="719" unicode="&#8482;" /><glyph d="M415 191H514V0H38V63Q38 112 54 151.5Q70 191 96.5 223Q123 255 156 282Q189 309 223 334Q250 354 276 373.5Q302 393 322.5 413.5Q343 434 355 457Q367 480 367 507Q367 552 344.5 579Q322 606 277 606Q229 606 200.5 583Q172 560 157 527H70V670Q116 687 169 697.5Q222 708 282 708Q339 708 384 696Q429 684 461 659.5Q493 635 510 597.5Q527 560 527 508Q527 460 507.5 423Q488 386 457.5 357Q427 328 389 304.5Q351 281 314 260Q257 228 216 192.5Q175 157 167 115H404Z" glyph-name="two" horiz-adv-x="564" unicode="2" /><glyph d="M32 357Q32 383 39.5 404Q47 425 60 442.5Q73 460 90 475Q107 490 126 503Q141 514 155 523.5Q169 533 180 543Q191 553 197.5 563.5Q204 574 204 587Q204 609 192 620Q180 631 160 631Q138 631 123.5 620Q109 609 101 592H43V685Q69 694 100 700Q131 706 171 706Q237 706 276.5 678Q316 650 316 593Q316 567 306.5 547.5Q297 528 281.5 513.5Q266 499 247 487.5Q228 476 210 465Q180 448 156.5 431Q133 414 128 395H235L241 427H309V315H32Z" glyph-name="twosuperior" horiz-adv-x="347" unicode="&#178;" /><glyph d="M605 -6Q563 -6 534.5 -0.5Q506 5 484 14V98H542Q550 86 564 75Q578 64 601 64Q623 64 639.5 76Q656 88 656 114Q656 161 596 161H563V226H593Q654 226 654 272Q654 293 642.5 305Q631 317 608 317Q587 317 573.5 307Q560 297 552 285H496V370Q522 379 553.5 385Q585 391 620 391Q684 391 722 367Q760 343 760 289Q760 250 737.5 228.5Q715 207 677 199V196Q766 184 766 107Q766 53 722.5 23.5Q679 -6 605 -6ZM617 729H709L216 -34H124ZM32 357Q32 383 39.5 404Q47 425 60 442.5Q73 460 90 475Q107 490 126 503Q141 514 155 523.5Q169 533 180 543Q191 553 197.5 563.5Q204 574 204 587Q204 609 192 620Q180 631 160 631Q138 631 123.5 620Q109 609 101 592H43V685Q69 694 100 700Q131 706 171 706Q237 706 276.5 678Q316 650 316 593Q316 567 306.5 547.5Q297 528 281.5 513.5Q266 499 247 487.5Q228 476 210 465Q180 448 156.5 431Q133 414 128 395H235L241 427H309V315H32Z" glyph-name="twothirds" horiz-adv-x="797" unicode="&#8532;" /><glyph d="M225 -7Q198 -7 172.5 -1Q147 5 127.5 20Q108 35 96 60Q84 85 84 123V412Q84 421 75.5 429Q67 437 59 437H25V525H230V169Q230 126 249.5 111Q269 96 304 96Q333 96 361.5 103.5Q390 111 414 121V437H345V525H560V110Q560 102 568 92.5Q576 83 585 83H619V0H445Q432 0 425 13Q418 26 415 65Q379 31 333.5 12Q288 -7 225 -7Z" glyph-name="u" horiz-adv-x="648" unicode="u" /><glyph d="M225 -7Q198 -7 172.5 -1Q147 5 127.5 20Q108 35 96 60Q84 85 84 123V412Q84 421 75.5 429Q67 437 59 437H25V525H230V169Q230 126 249.5 111Q269 96 304 96Q333 96 361.5 103.5Q390 111 414 121V437H345V525H560V110Q560 102 568 92.5Q576 83 585 83H619V0H445Q432 0 425 13Q418 26 415 65Q379 31 333.5 12Q288 -7 225 -7ZM287 700H433V650L336 562H259Z" glyph-name="uacute" horiz-adv-x="648" unicode="&#250;" /><glyph d="M225 -7Q198 -7 172.5 -1Q147 5 127.5 20Q108 35 96 60Q84 85 84 123V412Q84 421 75.5 429Q67 437 59 437H25V525H230V169Q230 126 249.5 111Q269 96 304 96Q333 96 361.5 103.5Q390 111 414 121V437H345V525H560V110Q560 102 568 92.5Q576 83 585 83H619V0H445Q432 0 425 13Q418 26 415 65Q379 31 333.5 12Q288 -7 225 -7ZM174 599 245 700H365L432 599V562H379L301 622L223 562H174Z" glyph-name="ucircumflex" horiz-adv-x="648" unicode="&#251;" /><glyph d="M225 -7Q198 -7 172.5 -1Q147 5 127.5 20Q108 35 96 60Q84 85 84 123V412Q84 421 75.5 429Q67 437 59 437H25V525H230V169Q230 126 249.5 111Q269 96 304 96Q333 96 361.5 103.5Q390 111 414 121V437H345V525H560V110Q560 102 568 92.5Q576 83 585 83H619V0H445Q432 0 425 13Q418 26 415 65Q379 31 333.5 12Q288 -7 225 -7ZM208 566Q176 566 154.5 587Q133 608 133 639Q133 669 154.5 690.5Q176 712 208 712Q240 712 261.5 690.5Q283 669 283 639Q283 608 261.5 587Q240 566 208 566ZM400 566Q368 566 346.5 587Q325 608 325 639Q325 669 346.5 690.5Q368 712 400 712Q432 712 453.5 690.5Q475 669 475 639Q475 608 453.5 587Q432 566 400 566Z" glyph-name="udieresis" horiz-adv-x="648" unicode="&#252;" /><glyph d="M225 -7Q198 -7 172.5 -1Q147 5 127.5 20Q108 35 96 60Q84 85 84 123V412Q84 421 75.5 429Q67 437 59 437H25V525H230V169Q230 126 249.5 111Q269 96 304 96Q333 96 361.5 103.5Q390 111 414 121V437H345V525H560V110Q560 102 568 92.5Q576 83 585 83H619V0H445Q432 0 425 13Q418 26 415 65Q379 31 333.5 12Q288 -7 225 -7ZM272 562 175 650V700H321L349 562Z" glyph-name="ugrave" horiz-adv-x="648" unicode="&#249;" /><glyph d="M18 -162V-84H395V-162Z" glyph-name="underscore" horiz-adv-x="413" unicode="_" /><glyph glyph-name="uni00A0" horiz-adv-x="169" unicode="&#160;" /><glyph d="M46 352H277V243H46Z" glyph-name="uni00AD" horiz-adv-x="323" unicode="&#173;" /><glyph glyph-name="uni2009" horiz-adv-x="101" unicode="&#8201;" /><glyph d="M76 409Q66 437 44 437H25V525H280V437H214L321 137H323L408 371Q419 400 417 418.5Q415 437 382 437H366V525H588V437H571Q546 437 533 406L366 0H240Z" glyph-name="v" horiz-adv-x="620" unicode="v" /><glyph d="M423 341 319 0H194L76 409Q71 421 63 429Q55 437 44 437H25V525H257V437H211L280 175H282L384 525H496L598 175H600L653 371Q663 406 657 421.5Q651 437 620 437H605V525H824V437H807Q795 437 784.5 430Q774 423 769 406L650 0H525L425 341Z" glyph-name="w" horiz-adv-x="856" unicode="w" /><glyph d="M510 111Q534 83 553 83H559V0H304V83H362L268 200L216 133Q199 112 202.5 97.5Q206 83 228 83H241V0H29V83H39Q50 83 61.5 88.5Q73 94 81 102L210 257L82 409Q70 423 62 430Q54 437 43 437H25V525H286V437H230L321 324L380 398Q392 413 390 425Q388 437 368 437H349V525H555V437H544Q534 437 524 431.5Q514 426 507 418L380 265Z" glyph-name="x" horiz-adv-x="591" unicode="x" /><glyph d="M106 -162V-85Q148 -72 184.5 -49.5Q221 -27 248 7L75 409Q70 422 62.5 429.5Q55 437 44 437H25V525H279V437H210L323 166L407 371Q413 385 416 397Q419 409 417 418Q415 427 407 432Q399 437 383 437H367V525H598V437H576Q553 437 540 406L368 19Q337 -49 300 -93.5Q263 -138 225 -162Z" glyph-name="y" horiz-adv-x="630" unicode="y" /><glyph d="M106 -162V-85Q148 -72 184.5 -49.5Q221 -27 248 7L75 409Q70 422 62.5 429.5Q55 437 44 437H25V525H279V437H210L323 166L407 371Q413 385 416 397Q419 409 417 418Q415 427 407 432Q399 437 383 437H367V525H598V437H576Q553 437 540 406L368 19Q337 -49 300 -93.5Q263 -138 225 -162ZM306 700H452V650L355 562H278Z" glyph-name="yacute" horiz-adv-x="630" unicode="&#253;" /><glyph d="M106 -162V-85Q148 -72 184.5 -49.5Q221 -27 248 7L75 409Q70 422 62.5 429.5Q55 437 44 437H25V525H279V437H210L323 166L407 371Q413 385 416 397Q419 409 417 418Q415 427 407 432Q399 437 383 437H367V525H598V437H576Q553 437 540 406L368 19Q337 -49 300 -93.5Q263 -138 225 -162ZM227 566Q195 566 173.5 587Q152 608 152 639Q152 669 173.5 690.5Q195 712 227 712Q259 712 280.5 690.5Q302 669 302 639Q302 608 280.5 587Q259 566 227 566ZM419 566Q387 566 365.5 587Q344 608 344 639Q344 669 365.5 690.5Q387 712 419 712Q451 712 472.5 690.5Q494 669 494 639Q494 608 472.5 587Q451 566 419 566Z" glyph-name="ydieresis" horiz-adv-x="630" unicode="&#255;" /><glyph d="M68 385H200L76 591Q62 614 44 614H31V700H298V614H233L343 411H345L416 544Q434 579 424 596.5Q414 614 382 614H363V700H607V614H590Q566 614 550 587L432 385H570V313H397V253H570V181H397V114Q397 104 406 93.5Q415 83 426 83H470V0H168V83H212Q223 83 232 93.5Q241 104 241 114V181H68V253H241V313H68Z" glyph-name="yen" horiz-adv-x="638" unicode="&#165;" /><glyph d="M31 91 322 436H145L131 348H47V525H490V431L198 87H384L396 175H483V0H31Z" glyph-name="z" horiz-adv-x="523" unicode="z" /><glyph d="M31 91 322 436H145L131 348H47V525H490V431L198 87H384L396 175H483V0H31ZM141 663V700H194L272 640L350 700H399V663L328 562H208Z" glyph-name="zcaron" horiz-adv-x="523" unicode="&#382;" /><glyph d="M341 -8Q281 -8 226 14Q171 36 129.5 80Q88 124 63 191.5Q38 259 38 350Q38 441 63 508.5Q88 576 129.5 620Q171 664 226 686Q281 708 341 708Q401 708 456 686Q511 664 552.5 620Q594 576 619 508.5Q644 441 644 350Q644 259 619 191.5Q594 124 552.5 80Q511 36 456 14Q401 -8 341 -8ZM341 92Q374 92 400.5 105.5Q427 119 445.5 149Q464 179 474 227.5Q484 276 484 347Q484 418 474 467Q464 516 445.5 546.5Q427 577 400.5 590.5Q374 604 341 604Q307 604 280.5 590.5Q254 577 235.5 546.5Q217 516 207.5 467Q198 418 198 347Q198 276 207.5 227.5Q217 179 235.5 149Q254 119 280.5 105.5Q307 92 341 92Z" glyph-name="zero" horiz-adv-x="682" unicode="0" /></font>
</defs>
</svg>
