<?xml version="1.0" standalone="no"?><!DOCTYPE svg PUBLIC "-//W3C//DTD SVG 1.1//EN" "http://www.w3.org/Graphics/SVG/1.1/DTD/svg11.dtd" ><svg version="1.1" xmlns="http://www.w3.org/2000/svg"><defs><font horiz-adv-x="0" id="font"><font-face ascent="800" bbox="-191 -243 1392 931" cap-height="700" descent="-200" font-family="Stag Sans Web USCC" font-stretch="normal" font-style="normal" font-weight="900" units-per-em="1000" x-height="500" /><missing-glyph horiz-adv-x="120" /><glyph d="M23 53 228 700H544L754 53V0H487L458 113H267L238 0H23ZM314 294H413L366 481H363Z" glyph-name="A" horiz-adv-x="777" unicode="A" /><glyph d="M437 0V113H263L218 0H16V53L296 700H966V518H710V437H881V266H710V177H974V0ZM337 294H437V517H427Z" glyph-name="AE" horiz-adv-x="1019" unicode="&#198;" /><glyph d="M23 53 228 700H544L754 53V0H487L458 113H267L238 0H23ZM314 294H413L366 481H363ZM301 726V763L334 878H565V834L457 726Z" glyph-name="Aacute" horiz-adv-x="779" unicode="&#193;" /><glyph d="M23 53 228 700H544L754 53V0H487L458 113H267L238 0H23ZM314 294H413L366 481H363ZM207 767 299 878H469L561 767V726H424L381 757L339 726H207Z" glyph-name="Acircumflex" horiz-adv-x="779" unicode="&#194;" /><glyph d="M23 53 228 700H544L754 53V0H487L458 113H267L238 0H23ZM314 294H413L366 481H363ZM268 722Q219 722 190 746.5Q161 771 161 816Q161 861 190 885.5Q219 910 268 910Q316 910 345 885.5Q374 861 374 816Q374 771 345 746.5Q316 722 268 722ZM500 722Q452 722 423 746.5Q394 771 394 816Q394 861 423 885.5Q452 910 500 910Q549 910 578 885.5Q607 861 607 816Q607 771 578 746.5Q549 722 500 722Z" glyph-name="Adieresis" horiz-adv-x="779" unicode="&#196;" /><glyph d="M23 53 228 700H544L754 53V0H487L458 113H267L238 0H23ZM314 294H413L366 481H363ZM311 726 203 834V878H434L467 763V726Z" glyph-name="Agrave" horiz-adv-x="779" unicode="&#192;" /><glyph d="M23 53 228 700H544L754 53V0H487L458 113H267L238 0H23ZM314 294H413L366 481H363ZM384 722Q362 722 342 729Q322 736 306.5 749.5Q291 763 282 782.5Q273 802 273 826Q273 850 282 869.5Q291 889 306.5 902.5Q322 916 342 923.5Q362 931 384 931Q406 931 426 923.5Q446 916 461.5 902.5Q477 889 486 869.5Q495 850 495 826Q495 802 486 782.5Q477 763 461.5 749.5Q446 736 426 729Q406 722 384 722ZM384 797Q397 797 404.5 805Q412 813 412 826Q412 840 404.5 848Q397 856 384 856Q372 856 364.5 848Q357 840 357 826Q357 813 364.5 805Q372 797 384 797Z" glyph-name="Aring" horiz-adv-x="779" unicode="&#197;" /><glyph d="M23 53 228 700H544L754 53V0H487L458 113H267L238 0H23ZM314 294H413L366 481H363ZM196 771Q205 827 236.5 860Q268 893 319 893Q356 893 386 883.5Q416 874 433 874Q453 874 459 893H572V847Q563 791 532.5 757.5Q502 724 453 724Q412 724 382 734Q352 744 335 744Q315 744 309 725H196Z" glyph-name="Atilde" horiz-adv-x="779" unicode="&#195;" /><glyph d="M54 700H367Q659 700 659 518Q659 452 625 418.5Q591 385 528 368V364Q603 352 643.5 312Q684 272 684 200Q684 150 662 112.5Q640 75 599 50Q558 25 499 12.5Q440 0 367 0H54ZM349 156Q380 156 397 170.5Q414 185 414 220Q414 255 397 268.5Q380 282 349 282H325V156ZM348 427Q407 427 407 483Q407 539 349 539H325V427Z" glyph-name="B" horiz-adv-x="707" unicode="B" /><glyph d="M400 -12Q314 -12 245.5 10.5Q177 33 129.5 77.5Q82 122 56.5 188Q31 254 31 341Q31 432 58 501Q85 570 135.5 617Q186 664 259 688Q332 712 425 712Q502 712 558.5 695Q615 678 650 651V483H534Q521 493 494.5 506.5Q468 520 433 520Q406 520 384 511.5Q362 503 346.5 483.5Q331 464 322 432Q313 400 313 352Q313 300 320.5 266Q328 232 342 211.5Q356 191 376 182.5Q396 174 422 174Q464 174 492.5 186.5Q521 199 538 214H650V60Q610 31 549.5 9.5Q489 -12 400 -12Z" glyph-name="C" horiz-adv-x="691" unicode="C" /><glyph d="M650 60Q614 34 562 14Q510 -6 435 -11V-25Q517 -31 517 -95Q517 -112 511 -126.5Q505 -141 490.5 -152Q476 -163 451 -169Q426 -175 388 -175Q353 -175 332.5 -170.5Q312 -166 295 -159V-92H331Q336 -94 341.5 -96Q347 -98 356 -98Q377 -98 377 -87Q377 -82 373 -79.5Q369 -77 356 -77H341V-9Q194 5 112.5 93Q31 181 31 341Q31 432 58 501Q85 570 135.5 617Q186 664 259 688Q332 712 425 712Q502 712 558.5 695Q615 678 650 651V483H534Q521 493 494.5 506.5Q468 520 433 520Q406 520 384 511.5Q362 503 346.5 483.5Q331 464 322 432Q313 400 313 352Q313 300 320.5 266Q328 232 342 211.5Q356 191 376 182.5Q396 174 422 174Q464 174 492.5 186.5Q521 199 538 214H650Z" glyph-name="Ccedilla" horiz-adv-x="691" unicode="&#199;" /><glyph d="M54 700H364Q560 700 651.5 611Q743 522 743 356Q743 269 721 202.5Q699 136 651.5 91Q604 46 530.5 23Q457 0 355 0H54ZM346 174Q375 174 397 182Q419 190 434 209.5Q449 229 456.5 262Q464 295 464 344Q464 442 435.5 480.5Q407 519 346 519H330V174Z" glyph-name="D" horiz-adv-x="773" unicode="D" /><glyph d="M54 700H586V518H330V437H501V266H330V177H594V0H54Z" glyph-name="E" horiz-adv-x="639" unicode="E" /><glyph d="M54 700H586V518H330V437H501V266H330V177H594V0H54ZM246 726V763L279 878H510V834L402 726Z" glyph-name="Eacute" horiz-adv-x="641" unicode="&#201;" /><glyph d="M54 700H586V518H330V437H501V266H330V177H594V0H54ZM152 767 244 878H414L506 767V726H369L326 757L284 726H152Z" glyph-name="Ecircumflex" horiz-adv-x="641" unicode="&#202;" /><glyph d="M54 700H586V518H330V437H501V266H330V177H594V0H54ZM213 722Q164 722 135 746.5Q106 771 106 816Q106 861 135 885.5Q164 910 213 910Q261 910 290 885.5Q319 861 319 816Q319 771 290 746.5Q261 722 213 722ZM445 722Q397 722 368 746.5Q339 771 339 816Q339 861 368 885.5Q397 910 445 910Q494 910 523 885.5Q552 861 552 816Q552 771 523 746.5Q494 722 445 722Z" glyph-name="Edieresis" horiz-adv-x="641" unicode="&#203;" /><glyph d="M54 700H586V518H330V437H501V266H330V177H594V0H54ZM256 726 148 834V878H379L412 763V726Z" glyph-name="Egrave" horiz-adv-x="641" unicode="&#200;" /><glyph d="M23 433H67V700H377Q573 700 664.5 611Q756 522 756 356Q756 269 734 202.5Q712 136 664.5 91Q617 46 543.5 23Q470 0 368 0H67V270H23ZM359 174Q388 174 410 182Q432 190 447 209.5Q462 229 469.5 262Q477 295 477 344Q477 442 448.5 480.5Q420 519 359 519H343V433H412V270H343V174Z" glyph-name="Eth" horiz-adv-x="786" unicode="&#208;" /><glyph d="M368 226Q378 196 396.5 186.5Q415 177 446 177Q480 177 503.5 188.5Q527 200 544 215H648V56Q612 28 553.5 8Q495 -12 412 -12Q356 -12 304 0Q252 12 208.5 40Q165 68 133 113.5Q101 159 86 226H26V332H73V362H26V468H85Q100 536 132 582.5Q164 629 209.5 658Q255 687 312 699.5Q369 712 434 712Q506 712 556.5 699Q607 686 648 663V488H535Q521 502 500.5 511.5Q480 521 449 521Q419 521 398.5 510.5Q378 500 367 468H495L479 362H355V332H475L459 226Z" glyph-name="Euro" horiz-adv-x="677" unicode="&#8364;" /><glyph d="M54 0V700H583V518H330V411H521V235H330V0Z" glyph-name="F" horiz-adv-x="632" unicode="F" /><glyph d="M405 -12Q302 -12 230.5 12Q159 36 114.5 81.5Q70 127 50 192.5Q30 258 30 341Q30 432 57.5 501Q85 570 137.5 617Q190 664 265.5 688Q341 712 437 712Q511 712 567 699Q623 686 665 662V487H550Q533 498 504 509Q475 520 439 520Q407 520 382.5 511Q358 502 341.5 480.5Q325 459 317 424.5Q309 390 309 339Q309 286 314.5 252Q320 218 331 198.5Q342 179 360 171.5Q378 164 404 164Q418 164 428 165Q438 166 443 168V242H392V391H694V42Q633 16 559.5 2Q486 -12 405 -12Z" glyph-name="G" horiz-adv-x="743" unicode="G" /><glyph d="M54 0V700H330V451H446V700H722V0H446V255H330V0Z" glyph-name="H" horiz-adv-x="776" unicode="H" /><glyph d="M57 0V700H333V0Z" glyph-name="I" horiz-adv-x="390" unicode="I" /><glyph d="M57 0V700H333V0ZM113 726V763L146 878H377V834L269 726Z" glyph-name="Iacute" horiz-adv-x="392" unicode="&#205;" /><glyph d="M57 0V700H333V0ZM19 767 111 878H281L373 767V726H236L193 757L151 726H19Z" glyph-name="Icircumflex" horiz-adv-x="392" unicode="&#206;" /><glyph d="M57 0V700H333V0ZM80 722Q31 722 2 746.5Q-27 771 -27 816Q-27 861 2 885.5Q31 910 80 910Q128 910 157 885.5Q186 861 186 816Q186 771 157 746.5Q128 722 80 722ZM312 722Q264 722 235 746.5Q206 771 206 816Q206 861 235 885.5Q264 910 312 910Q361 910 390 885.5Q419 861 419 816Q419 771 390 746.5Q361 722 312 722Z" glyph-name="Idieresis" horiz-adv-x="392" unicode="&#207;" /><glyph d="M57 0V700H333V0ZM123 726 15 834V878H246L279 763V726Z" glyph-name="Igrave" horiz-adv-x="392" unicode="&#204;" /><glyph d="M225 -10Q157 -10 105 4.5Q53 19 21 45V209H123Q146 188 192 188Q221 188 234.5 200Q248 212 248 233V700H524V242Q524 114 452.5 52Q381 -10 225 -10Z" glyph-name="J" horiz-adv-x="573" unicode="J" /><glyph d="M54 700H330V472L498 700H747V656L565 427L771 44V0H487L356 247L330 216V0H54Z" glyph-name="K" horiz-adv-x="793" unicode="K" /><glyph d="M54 0V700H330V182H572V0Z" glyph-name="L" horiz-adv-x="613" unicode="L" /><glyph d="M54 0V204L10 189V350L54 365V700H330V457L492 512V351L330 296V182H572V0Z" glyph-name="Lslash" horiz-adv-x="613" unicode="&#321;" /><glyph d="M54 700H400L481 402H484L566 700H911V0H645V393H642L532 0H383L273 393H270V0H54Z" glyph-name="M" horiz-adv-x="965" unicode="M" /><glyph d="M54 700H325L487 397H490V700H711V0H460L278 338H275V0H54Z" glyph-name="N" horiz-adv-x="765" unicode="N" /><glyph d="M54 700H325L487 397H490V700H711V0H460L278 338H275V0H54ZM213 771Q222 827 253.5 860Q285 893 336 893Q373 893 403 883.5Q433 874 450 874Q470 874 476 893H589V847Q580 791 549.5 757.5Q519 724 470 724Q429 724 399 734Q369 744 352 744Q332 744 326 725H213Z" glyph-name="Ntilde" horiz-adv-x="767" unicode="&#209;" /><glyph d="M398 -12Q317 -12 249.5 11.5Q182 35 133 80.5Q84 126 57 193Q30 260 30 347Q30 434 58 502Q86 570 135.5 616.5Q185 663 252.5 687.5Q320 712 398 712Q476 712 543 687.5Q610 663 659.5 616.5Q709 570 737.5 502Q766 434 766 347Q766 260 739 193Q712 126 663 80.5Q614 35 546.5 11.5Q479 -12 398 -12ZM398 173Q440 173 463.5 213Q487 253 487 347Q487 441 463.5 480Q440 519 398 519Q356 519 332.5 480Q309 441 309 347Q309 253 332.5 213Q356 173 398 173Z" glyph-name="O" horiz-adv-x="796" unicode="O" /><glyph d="M409 0Q213 0 121.5 89Q30 178 30 344Q30 431 52 497.5Q74 564 121.5 609Q169 654 242.5 677Q316 700 418 700H975V518H719V437H890V266H719V177H983V0ZM427 526Q398 526 376 518Q354 510 339 490.5Q324 471 316.5 438Q309 405 309 356Q309 307 316 273.5Q323 240 337.5 219.5Q352 199 374 190Q396 181 427 181H446V526Z" glyph-name="OE" horiz-adv-x="1028" unicode="&#338;" /><glyph d="M398 -12Q317 -12 249.5 11.5Q182 35 133 80.5Q84 126 57 193Q30 260 30 347Q30 434 58 502Q86 570 135.5 616.5Q185 663 252.5 687.5Q320 712 398 712Q476 712 543 687.5Q610 663 659.5 616.5Q709 570 737.5 502Q766 434 766 347Q766 260 739 193Q712 126 663 80.5Q614 35 546.5 11.5Q479 -12 398 -12ZM398 173Q440 173 463.5 213Q487 253 487 347Q487 441 463.5 480Q440 519 398 519Q356 519 332.5 480Q309 441 309 347Q309 253 332.5 213Q356 173 398 173ZM315 726V763L348 878H579V834L471 726Z" glyph-name="Oacute" horiz-adv-x="798" unicode="&#211;" /><glyph d="M398 -12Q317 -12 249.5 11.5Q182 35 133 80.5Q84 126 57 193Q30 260 30 347Q30 434 58 502Q86 570 135.5 616.5Q185 663 252.5 687.5Q320 712 398 712Q476 712 543 687.5Q610 663 659.5 616.5Q709 570 737.5 502Q766 434 766 347Q766 260 739 193Q712 126 663 80.5Q614 35 546.5 11.5Q479 -12 398 -12ZM398 173Q440 173 463.5 213Q487 253 487 347Q487 441 463.5 480Q440 519 398 519Q356 519 332.5 480Q309 441 309 347Q309 253 332.5 213Q356 173 398 173ZM221 767 313 878H483L575 767V726H438L395 757L353 726H221Z" glyph-name="Ocircumflex" horiz-adv-x="798" unicode="&#212;" /><glyph d="M398 -12Q317 -12 249.5 11.5Q182 35 133 80.5Q84 126 57 193Q30 260 30 347Q30 434 58 502Q86 570 135.5 616.5Q185 663 252.5 687.5Q320 712 398 712Q476 712 543 687.5Q610 663 659.5 616.5Q709 570 737.5 502Q766 434 766 347Q766 260 739 193Q712 126 663 80.5Q614 35 546.5 11.5Q479 -12 398 -12ZM398 173Q440 173 463.5 213Q487 253 487 347Q487 441 463.5 480Q440 519 398 519Q356 519 332.5 480Q309 441 309 347Q309 253 332.5 213Q356 173 398 173ZM282 722Q233 722 204 746.5Q175 771 175 816Q175 861 204 885.5Q233 910 282 910Q330 910 359 885.5Q388 861 388 816Q388 771 359 746.5Q330 722 282 722ZM514 722Q466 722 437 746.5Q408 771 408 816Q408 861 437 885.5Q466 910 514 910Q563 910 592 885.5Q621 861 621 816Q621 771 592 746.5Q563 722 514 722Z" glyph-name="Odieresis" horiz-adv-x="798" unicode="&#214;" /><glyph d="M398 -12Q317 -12 249.5 11.5Q182 35 133 80.5Q84 126 57 193Q30 260 30 347Q30 434 58 502Q86 570 135.5 616.5Q185 663 252.5 687.5Q320 712 398 712Q476 712 543 687.5Q610 663 659.5 616.5Q709 570 737.5 502Q766 434 766 347Q766 260 739 193Q712 126 663 80.5Q614 35 546.5 11.5Q479 -12 398 -12ZM398 173Q440 173 463.5 213Q487 253 487 347Q487 441 463.5 480Q440 519 398 519Q356 519 332.5 480Q309 441 309 347Q309 253 332.5 213Q356 173 398 173ZM325 726 217 834V878H448L481 763V726Z" glyph-name="Ograve" horiz-adv-x="798" unicode="&#210;" /><glyph d="M398 -12Q284 -12 200 33L149 -29H54V0L126 87Q80 133 55 197.5Q30 262 30 347Q30 434 58 502Q86 570 135.5 616.5Q185 663 252.5 687.5Q320 712 398 712Q455 712 505 699Q555 686 599 661L648 721H743V692L671 605Q716 558 741 493.5Q766 429 766 347Q766 260 739 193Q712 126 663 80.5Q614 35 546.5 11.5Q479 -12 398 -12ZM302 347Q302 335 302 324Q302 313 303 303L462 495Q438 526 398 526Q354 526 328 485Q302 444 302 347ZM398 166Q443 166 468.5 207.5Q494 249 494 347Q494 358 493.5 368Q493 378 492 388L335 197Q358 166 398 166Z" glyph-name="Oslash" horiz-adv-x="796" unicode="&#216;" /><glyph d="M398 -12Q317 -12 249.5 11.5Q182 35 133 80.5Q84 126 57 193Q30 260 30 347Q30 434 58 502Q86 570 135.5 616.5Q185 663 252.5 687.5Q320 712 398 712Q476 712 543 687.5Q610 663 659.5 616.5Q709 570 737.5 502Q766 434 766 347Q766 260 739 193Q712 126 663 80.5Q614 35 546.5 11.5Q479 -12 398 -12ZM398 173Q440 173 463.5 213Q487 253 487 347Q487 441 463.5 480Q440 519 398 519Q356 519 332.5 480Q309 441 309 347Q309 253 332.5 213Q356 173 398 173ZM210 771Q219 827 250.5 860Q282 893 333 893Q370 893 400 883.5Q430 874 447 874Q467 874 473 893H586V847Q577 791 546.5 757.5Q516 724 467 724Q426 724 396 734Q366 744 349 744Q329 744 323 725H210Z" glyph-name="Otilde" horiz-adv-x="798" unicode="&#213;" /><glyph d="M54 700H370Q453 700 510.5 685.5Q568 671 604 641Q640 611 656.5 566.5Q673 522 673 462Q673 343 596 286.5Q519 230 356 230H330V0H54ZM326 385H351Q382 385 395 406.5Q408 428 408 462Q408 496 395 513.5Q382 531 351 531H326Z" glyph-name="P" horiz-adv-x="698" unicode="P" /><glyph d="M378 -40Q291 -21 225.5 10.5Q160 42 116.5 89.5Q73 137 51.5 202.5Q30 268 30 355Q30 439 58 505.5Q86 572 135.5 617.5Q185 663 252.5 687.5Q320 712 398 712Q476 712 543 687.5Q610 663 659.5 616.5Q709 570 737.5 502.5Q766 435 766 349Q766 298 753 259.5Q740 221 718.5 192.5Q697 164 669 145Q641 126 612 113V109L779 94V-113H713ZM398 166Q419 166 435.5 175Q452 184 463.5 205Q475 226 481 261Q487 296 487 347Q487 441 463.5 480Q440 519 398 519Q356 519 332.5 480Q309 441 309 347Q309 296 315 261Q321 226 332.5 205Q344 184 360.5 175Q377 166 398 166Z" glyph-name="Q" horiz-adv-x="796" unicode="Q" /><glyph d="M360 217H330V0H54V700H381Q464 700 522.5 685Q581 670 617.5 640Q654 610 671 566.5Q688 523 688 466Q688 407 664.5 363Q641 319 602 288L722 53V0H464ZM322 384H351Q420 384 420 453Q420 526 351 526H322Z" glyph-name="R" horiz-adv-x="742" unicode="R" /><glyph d="M276 -12Q196 -12 133.5 3.5Q71 19 33 44V210H148Q165 193 196 183Q227 173 264 173Q296 173 315 179.5Q334 186 334 202Q334 221 313.5 227.5Q293 234 239 244Q191 253 152 267Q113 281 84.5 307.5Q56 334 40.5 374.5Q25 415 25 476Q25 536 47.5 580.5Q70 625 110 654Q150 683 205.5 697.5Q261 712 328 712Q404 712 461.5 699Q519 686 566 662V497H452Q437 509 404.5 519Q372 529 337 529Q301 529 286 522Q271 515 271 502Q271 484 290.5 477.5Q310 471 356 463Q428 450 474.5 431Q521 412 548 384Q575 356 586 317.5Q597 279 597 228Q597 116 516 52Q435 -12 276 -12Z" glyph-name="S" horiz-adv-x="626" unicode="S" /><glyph d="M276 -12Q196 -12 133.5 3.5Q71 19 33 44V210H148Q165 193 196 183Q227 173 264 173Q296 173 315 179.5Q334 186 334 202Q334 221 313.5 227.5Q293 234 239 244Q191 253 152 267Q113 281 84.5 307.5Q56 334 40.5 374.5Q25 415 25 476Q25 536 47.5 580.5Q70 625 110 654Q150 683 205.5 697.5Q261 712 328 712Q404 712 461.5 699Q519 686 566 662V497H452Q437 509 404.5 519Q372 529 337 529Q301 529 286 522Q271 515 271 502Q271 484 290.5 477.5Q310 471 356 463Q428 450 474.5 431Q521 412 548 384Q575 356 586 317.5Q597 279 597 228Q597 116 516 52Q435 -12 276 -12ZM490 837 398 726H228L136 837V878H273L316 847L358 878H490Z" glyph-name="Scaron" horiz-adv-x="628" unicode="&#352;" /><glyph d="M195 0V513H41V700H625V513H471V0Z" glyph-name="T" horiz-adv-x="666" unicode="T" /><glyph d="M54 700H330V593H370Q453 593 510.5 578.5Q568 564 604 534Q640 504 656.5 459.5Q673 415 673 355Q673 236 596 179.5Q519 123 356 123H330V0H54ZM326 278H351Q382 278 395 299.5Q408 321 408 355Q408 389 395 406.5Q382 424 351 424H326Z" glyph-name="Thorn" horiz-adv-x="698" unicode="&#222;" /><glyph d="M399 186Q440 186 455 206.5Q470 227 470 260V700H699V248Q699 184 677 136Q655 88 613.5 56Q572 24 513 8Q454 -8 381 -8Q216 -8 134 56.5Q52 121 52 248V700H328V260Q328 227 343 206.5Q358 186 399 186Z" glyph-name="U" horiz-adv-x="751" unicode="U" /><glyph d="M399 186Q440 186 455 206.5Q470 227 470 260V700H699V248Q699 184 677 136Q655 88 613.5 56Q572 24 513 8Q454 -8 381 -8Q216 -8 134 56.5Q52 121 52 248V700H328V260Q328 227 343 206.5Q358 186 399 186ZM312 726V763L345 878H576V834L468 726Z" glyph-name="Uacute" horiz-adv-x="753" unicode="&#218;" /><glyph d="M399 186Q440 186 455 206.5Q470 227 470 260V700H699V248Q699 184 677 136Q655 88 613.5 56Q572 24 513 8Q454 -8 381 -8Q216 -8 134 56.5Q52 121 52 248V700H328V260Q328 227 343 206.5Q358 186 399 186ZM218 767 310 878H480L572 767V726H435L392 757L350 726H218Z" glyph-name="Ucircumflex" horiz-adv-x="753" unicode="&#219;" /><glyph d="M399 186Q440 186 455 206.5Q470 227 470 260V700H699V248Q699 184 677 136Q655 88 613.5 56Q572 24 513 8Q454 -8 381 -8Q216 -8 134 56.5Q52 121 52 248V700H328V260Q328 227 343 206.5Q358 186 399 186ZM279 722Q230 722 201 746.5Q172 771 172 816Q172 861 201 885.5Q230 910 279 910Q327 910 356 885.5Q385 861 385 816Q385 771 356 746.5Q327 722 279 722ZM511 722Q463 722 434 746.5Q405 771 405 816Q405 861 434 885.5Q463 910 511 910Q560 910 589 885.5Q618 861 618 816Q618 771 589 746.5Q560 722 511 722Z" glyph-name="Udieresis" horiz-adv-x="753" unicode="&#220;" /><glyph d="M399 186Q440 186 455 206.5Q470 227 470 260V700H699V248Q699 184 677 136Q655 88 613.5 56Q572 24 513 8Q454 -8 381 -8Q216 -8 134 56.5Q52 121 52 248V700H328V260Q328 227 343 206.5Q358 186 399 186ZM322 726 214 834V878H445L478 763V726Z" glyph-name="Ugrave" horiz-adv-x="753" unicode="&#217;" /><glyph d="M21 647V700H294L398 305H401L506 700H743V647L538 0H227Z" glyph-name="V" horiz-adv-x="764" unicode="V" /><glyph d="M23 647V700H296L357 347H360L436 700H636L713 347H716L776 700H1009V647L854 0H583L511 300H508L435 0H178Z" glyph-name="W" horiz-adv-x="1032" unicode="W" /><glyph d="M24 53 193 355 34 647V700H318L412 509L500 700H733V647L577 373L743 53V0H459L358 216L257 0H24Z" glyph-name="X" horiz-adv-x="767" unicode="X" /><glyph d="M224 0V236L18 647V700H275L375 476H378L477 700H703V647L500 243V0Z" glyph-name="Y" horiz-adv-x="721" unicode="Y" /><glyph d="M224 0V236L18 647V700H275L375 476H378L477 700H703V647L500 243V0ZM290 726V763L323 878H554V834L446 726Z" glyph-name="Yacute" horiz-adv-x="723" unicode="&#221;" /><glyph d="M224 0V236L18 647V700H275L375 476H378L477 700H703V647L500 243V0ZM257 722Q208 722 179 746.5Q150 771 150 816Q150 861 179 885.5Q208 910 257 910Q305 910 334 885.5Q363 861 363 816Q363 771 334 746.5Q305 722 257 722ZM489 722Q441 722 412 746.5Q383 771 383 816Q383 861 412 885.5Q441 910 489 910Q538 910 567 885.5Q596 861 596 816Q596 771 567 746.5Q538 722 489 722Z" glyph-name="Ydieresis" horiz-adv-x="723" unicode="&#376;" /><glyph d="M42 187 299 512V516H57V700H600V503L343 188V184H600V0H42Z" glyph-name="Z" horiz-adv-x="642" unicode="Z" /><glyph d="M42 187 299 512V516H57V700H600V503L343 188V184H600V0H42ZM506 837 414 726H244L152 837V878H289L332 847L374 878H506Z" glyph-name="Zcaron" horiz-adv-x="644" unicode="&#381;" /><glyph d="M389 0Q363 0 349.5 12.5Q336 25 329 45Q276 -8 183 -8Q152 -8 123 1Q94 10 71.5 29Q49 48 35.5 77.5Q22 107 22 147Q22 232 76.5 270.5Q131 309 225 309Q251 309 273.5 307.5Q296 306 316 304V309Q316 339 300 350Q284 361 243 361Q210 361 184 354Q158 347 144 341H58V501Q94 515 159.5 527.5Q225 540 305 540Q445 540 509.5 490.5Q574 441 574 327V0ZM292 127Q304 127 316 133V207Q310 209 303 209.5Q296 210 292 210Q260 210 260 165Q260 142 270 134.5Q280 127 292 127Z" glyph-name="a" horiz-adv-x="615" unicode="a" /><glyph d="M389 0Q363 0 349.5 12.5Q336 25 329 45Q276 -8 183 -8Q152 -8 123 1Q94 10 71.5 29Q49 48 35.5 77.5Q22 107 22 147Q22 232 76.5 270.5Q131 309 225 309Q251 309 273.5 307.5Q296 306 316 304V309Q316 339 300 350Q284 361 243 361Q210 361 184 354Q158 347 144 341H58V501Q94 515 159.5 527.5Q225 540 305 540Q445 540 509.5 490.5Q574 441 574 327V0ZM292 127Q304 127 316 133V207Q310 209 303 209.5Q296 210 292 210Q260 210 260 165Q260 142 270 134.5Q280 127 292 127ZM220 558V595L253 710H484V666L376 558Z" glyph-name="aacute" horiz-adv-x="614" unicode="&#225;" /><glyph d="M389 0Q363 0 349.5 12.5Q336 25 329 45Q276 -8 183 -8Q152 -8 123 1Q94 10 71.5 29Q49 48 35.5 77.5Q22 107 22 147Q22 232 76.5 270.5Q131 309 225 309Q251 309 273.5 307.5Q296 306 316 304V309Q316 339 300 350Q284 361 243 361Q210 361 184 354Q158 347 144 341H58V501Q94 515 159.5 527.5Q225 540 305 540Q445 540 509.5 490.5Q574 441 574 327V0ZM292 127Q304 127 316 133V207Q310 209 303 209.5Q296 210 292 210Q260 210 260 165Q260 142 270 134.5Q280 127 292 127ZM123 599 215 710H385L477 599V558H340L297 589L255 558H123Z" glyph-name="acircumflex" horiz-adv-x="614" unicode="&#226;" /><glyph d="M123 558V595L156 710H387V666L279 558Z" glyph-name="acute" horiz-adv-x="418" unicode="&#180;" /><glyph d="M123 726V763L156 878H387V834L279 726Z" glyph-name="acute.cap" horiz-adv-x="418" /><glyph d="M389 0Q363 0 349.5 12.5Q336 25 329 45Q276 -8 183 -8Q152 -8 123 1Q94 10 71.5 29Q49 48 35.5 77.5Q22 107 22 147Q22 232 76.5 270.5Q131 309 225 309Q251 309 273.5 307.5Q296 306 316 304V309Q316 339 300 350Q284 361 243 361Q210 361 184 354Q158 347 144 341H58V501Q94 515 159.5 527.5Q225 540 305 540Q445 540 509.5 490.5Q574 441 574 327V0ZM292 127Q304 127 316 133V207Q310 209 303 209.5Q296 210 292 210Q260 210 260 165Q260 142 270 134.5Q280 127 292 127ZM184 546Q135 546 106 570.5Q77 595 77 640Q77 685 106 709.5Q135 734 184 734Q232 734 261 709.5Q290 685 290 640Q290 595 261 570.5Q232 546 184 546ZM416 546Q368 546 339 570.5Q310 595 310 640Q310 685 339 709.5Q368 734 416 734Q465 734 494 709.5Q523 685 523 640Q523 595 494 570.5Q465 546 416 546Z" glyph-name="adieresis" horiz-adv-x="614" unicode="&#228;" /><glyph d="M295 540Q401 540 451 496Q488 517 530.5 528.5Q573 540 619 540Q757 540 824 471.5Q891 403 891 260Q891 239 890 227Q889 215 888 209H574Q582 174 602.5 161.5Q623 149 661 149Q706 149 735.5 157Q765 165 785 175H867V43Q846 31 822 21.5Q798 12 768.5 5Q739 -2 702.5 -6Q666 -10 621 -10Q540 -10 482 10Q424 30 386 68Q369 50 351.5 35.5Q334 21 311.5 11.5Q289 2 261 -3Q233 -8 195 -8Q160 -8 128.5 1Q97 10 73.5 29Q50 48 36 77.5Q22 107 22 147Q22 232 74.5 271Q127 310 235 310H316V312Q316 339 299.5 350Q283 361 243 361Q210 361 184 354Q158 347 144 341H58V501Q76 508 102 515Q128 522 158.5 527.5Q189 533 224 536.5Q259 540 295 540ZM615 387Q598 387 586 373.5Q574 360 570 314H659Q657 357 646 372Q635 387 615 387ZM292 127Q305 127 315.5 133Q326 139 335 147Q324 174 319 209H292Q260 209 260 167Q260 144 270 135.5Q280 127 292 127Z" glyph-name="ae" horiz-adv-x="914" unicode="&#230;" /><glyph d="M389 0Q363 0 349.5 12.5Q336 25 329 45Q276 -8 183 -8Q152 -8 123 1Q94 10 71.5 29Q49 48 35.5 77.5Q22 107 22 147Q22 232 76.5 270.5Q131 309 225 309Q251 309 273.5 307.5Q296 306 316 304V309Q316 339 300 350Q284 361 243 361Q210 361 184 354Q158 347 144 341H58V501Q94 515 159.5 527.5Q225 540 305 540Q445 540 509.5 490.5Q574 441 574 327V0ZM292 127Q304 127 316 133V207Q310 209 303 209.5Q296 210 292 210Q260 210 260 165Q260 142 270 134.5Q280 127 292 127ZM227 558 119 666V710H350L383 595V558Z" glyph-name="agrave" horiz-adv-x="614" unicode="&#224;" /><glyph d="M503 27Q464 10 419 1Q374 -8 318 -8Q244 -8 189.5 7.5Q135 23 99 51.5Q63 80 45.5 120Q28 160 28 208Q28 245 39.5 275.5Q51 306 70.5 330Q90 354 116 372Q142 390 171 403Q160 426 154 450.5Q148 475 148 504Q148 550 165 588Q182 626 216.5 653.5Q251 681 302.5 696.5Q354 712 424 712Q495 712 540.5 700Q586 688 618 666V517H506Q500 522 488 528.5Q476 535 454 535Q436 535 427 525Q418 515 418 503Q418 484 429.5 468Q441 452 464 428L550 329Q561 349 570.5 374.5Q580 400 585 423H766V334Q752 296 730 254Q708 212 682 172L779 55V0H530ZM354 159Q370 159 385 162L278 281Q273 273 270 262.5Q267 252 267 241Q267 202 290.5 180.5Q314 159 354 159Z" glyph-name="ampersand" horiz-adv-x="810" unicode="&amp;" /><glyph d="M389 0Q363 0 349.5 12.5Q336 25 329 45Q276 -8 183 -8Q152 -8 123 1Q94 10 71.5 29Q49 48 35.5 77.5Q22 107 22 147Q22 232 76.5 270.5Q131 309 225 309Q251 309 273.5 307.5Q296 306 316 304V309Q316 339 300 350Q284 361 243 361Q210 361 184 354Q158 347 144 341H58V501Q94 515 159.5 527.5Q225 540 305 540Q445 540 509.5 490.5Q574 441 574 327V0ZM292 127Q304 127 316 133V207Q310 209 303 209.5Q296 210 292 210Q260 210 260 165Q260 142 270 134.5Q280 127 292 127ZM300 554Q278 554 258 561Q238 568 222.5 581.5Q207 595 198 614.5Q189 634 189 658Q189 682 198 701.5Q207 721 222.5 734.5Q238 748 258 755.5Q278 763 300 763Q322 763 342 755.5Q362 748 377.5 734.5Q393 721 402 701.5Q411 682 411 658Q411 634 402 614.5Q393 595 377.5 581.5Q362 568 342 561Q322 554 300 554ZM300 629Q313 629 320.5 637Q328 645 328 658Q328 672 320.5 680Q313 688 300 688Q288 688 280.5 680Q273 672 273 658Q273 645 280.5 637Q288 629 300 629Z" glyph-name="aring" horiz-adv-x="614" unicode="&#229;" /><glyph d="M18 496 151 700H342L476 496V450H296L248 514H245L198 450H18Z" glyph-name="asciicircum" horiz-adv-x="494" unicode="^" /><glyph d="M23 258Q32 321 68 360Q104 399 158 399Q196 399 226.5 388.5Q257 378 277 378Q290 378 297.5 385.5Q305 393 309 402H435V330Q426 267 390 228Q354 189 300 189Q282 189 264.5 192.5Q247 196 232 199.5Q217 203 204 206.5Q191 210 181 210Q168 210 160.5 202.5Q153 195 149 186H23Z" glyph-name="asciitilde" horiz-adv-x="458" unicode="~" /><glyph d="M283 566 347 623 401 640 451 482 399 464 320 472 390 434 423 389 288 292 255 336 236 419 217 336 183 292 49 389 82 434 152 472 73 464 21 482 71 640 125 623 188 566 153 644V700H319V644Z" glyph-name="asterisk" horiz-adv-x="472" unicode="*" /><glyph d="M330 70Q279 70 247 106Q215 142 215 213Q215 260 231 303.5Q247 347 275 380Q303 413 341.5 432.5Q380 452 425 452Q458 452 482.5 439Q507 426 524 406Q538 426 552.5 435.5Q567 445 594 445H713L662 219Q651 174 677 174Q693 174 711 183.5Q729 193 745 213Q761 233 771.5 264Q782 295 782 337Q782 450 705.5 511.5Q629 573 484 573Q421 573 360 552Q299 531 250.5 489.5Q202 448 172.5 385.5Q143 323 143 240Q143 167 166 114Q189 61 230 27Q271 -7 327 -23.5Q383 -40 449 -40Q527 -40 588 -23Q649 -6 701 25H739V-62Q690 -92 614.5 -113Q539 -134 448 -134Q362 -134 285.5 -112.5Q209 -91 151.5 -45.5Q94 0 60.5 71Q27 142 27 240Q27 309 46.5 367.5Q66 426 99.5 473.5Q133 521 178 557Q223 593 273.5 617.5Q324 642 378 654.5Q432 667 484 667Q571 667 645.5 645Q720 623 774.5 581Q829 539 860 477.5Q891 416 891 337Q891 267 866.5 215.5Q842 164 801 130.5Q760 97 707 81Q654 65 596 65Q539 65 507.5 82Q476 99 462 128Q439 105 408 87.5Q377 70 330 70ZM441 198Q449 198 457 200L485 322Q479 325 470 325Q457 325 446 317Q435 309 427.5 296Q420 283 416 266.5Q412 250 412 234Q412 217 419.5 207.5Q427 198 441 198Z" glyph-name="at" horiz-adv-x="918" unicode="@" /><glyph d="M389 0Q363 0 349.5 12.5Q336 25 329 45Q276 -8 183 -8Q152 -8 123 1Q94 10 71.5 29Q49 48 35.5 77.5Q22 107 22 147Q22 232 76.5 270.5Q131 309 225 309Q251 309 273.5 307.5Q296 306 316 304V309Q316 339 300 350Q284 361 243 361Q210 361 184 354Q158 347 144 341H58V501Q94 515 159.5 527.5Q225 540 305 540Q445 540 509.5 490.5Q574 441 574 327V0ZM292 127Q304 127 316 133V207Q310 209 303 209.5Q296 210 292 210Q260 210 260 165Q260 142 270 134.5Q280 127 292 127ZM112 603Q121 659 152.5 693.5Q184 728 235 728Q272 728 302 718.5Q332 709 349 709Q369 709 375 728H488V682Q479 626 448.5 591Q418 556 369 556Q328 556 298 566Q268 576 251 576Q231 576 225 557H112Z" glyph-name="atilde" horiz-adv-x="614" unicode="&#227;" /><glyph d="M302 469Q330 502 367.5 521Q405 540 456 540Q492 540 526.5 528Q561 516 587.5 487Q614 458 630 408.5Q646 359 646 283Q646 136 587 62.5Q528 -11 426 -11Q374 -11 337 6Q300 23 274 61Q260 30 243 15Q226 0 202 0H44V700H217Q244 700 260.5 695.5Q277 691 286 677.5Q295 664 298.5 640Q302 616 302 577ZM326 356Q321 356 315 355.5Q309 355 302 354V150Q311 147 326 147Q339 147 349.5 152Q360 157 368 169.5Q376 182 380.5 204Q385 226 385 261Q385 291 380.5 309.5Q376 328 368 338.5Q360 349 349.5 352.5Q339 356 326 356Z" glyph-name="b" horiz-adv-x="671" unicode="b" /><glyph d="M417 -49H242L14 695V741H189L417 -3Z" glyph-name="backslash" horiz-adv-x="429" unicode="\" /><glyph d="M227 -49H48V741H227Z" glyph-name="bar" horiz-adv-x="275" unicode="|" /><glyph d="M105 216Q105 237 92 254Q79 271 49 271H29V431H49Q79 431 92 448Q105 465 105 486V587Q105 656 150.5 698.5Q196 741 284 741H391V581H357Q345 581 337.5 573.5Q330 566 330 554V466Q330 425 309 396Q288 367 229 353V350Q288 336 309 307Q330 278 330 237V138Q330 126 337.5 118.5Q345 111 357 111H391V-49H280Q195 -49 150 -6Q105 37 105 109Z" glyph-name="braceleft" horiz-adv-x="420" unicode="{" /><glyph d="M315 109Q315 37 270 -6Q225 -49 140 -49H29V111H63Q75 111 82.5 118.5Q90 126 90 138V237Q90 278 111 307Q132 336 191 350V353Q132 367 111 396Q90 425 90 466V554Q90 566 82.5 573.5Q75 581 63 581H29V741H136Q224 741 269.5 698.5Q315 656 315 587V486Q315 465 328 448Q341 431 371 431H391V271H371Q341 271 328 254Q315 237 315 216Z" glyph-name="braceright" horiz-adv-x="420" unicode="}" /><glyph d="M54 741H351V581H279V111H351V-49H54Z" glyph-name="bracketleft" horiz-adv-x="380" unicode="[" /><glyph d="M326 -49H29V111H101V581H29V741H326Z" glyph-name="bracketright" horiz-adv-x="380" unicode="]" /><glyph d="M209 556Q139 556 96.5 588Q54 620 41 677V723H169Q171 712 180 703.5Q189 695 209 695Q229 695 238 703.5Q247 712 249 723H377V677Q364 620 321.5 588Q279 556 209 556Z" glyph-name="breve" horiz-adv-x="418" unicode="&#728;" /><glyph d="M209 724Q139 724 96.5 752Q54 780 41 837V883H169Q171 872 180 863.5Q189 855 209 855Q229 855 238 863.5Q247 872 249 883H377V837Q364 783 321.5 753.5Q279 724 209 724Z" glyph-name="breve.cap" horiz-adv-x="418" /><glyph d="M227 308V-49H48V308ZM48 383V741H227V383Z" glyph-name="brokenbar" horiz-adv-x="275" unicode="&#166;" /><glyph d="M211 110Q175 110 143.5 121.5Q112 133 88 154.5Q64 176 50.5 207.5Q37 239 37 279Q37 319 50.5 350.5Q64 382 88 404Q112 426 143.5 438Q175 450 211 450Q247 450 279 438Q311 426 334.5 404Q358 382 371.5 350.5Q385 319 385 279Q385 239 371.5 207.5Q358 176 334.5 154.5Q311 133 279 121.5Q247 110 211 110Z" glyph-name="bullet" horiz-adv-x="422" unicode="&#8226;" /><glyph d="M324 -10Q254 -10 198 6Q142 22 103 56Q64 90 43.5 141Q23 192 23 263Q23 397 106.5 468.5Q190 540 342 540Q392 540 442 529.5Q492 519 525 501V345H439Q428 353 411.5 359Q395 365 369 365Q329 365 307.5 341.5Q286 318 286 260Q286 155 366 155Q392 155 409.5 162.5Q427 170 442 181H525V37Q498 20 447 5Q396 -10 324 -10Z" glyph-name="c" horiz-adv-x="555" unicode="c" /><glyph d="M386 669 294 558H124L32 669V710H169L212 679L254 710H386Z" glyph-name="caron" horiz-adv-x="418" unicode="&#711;" /><glyph d="M386 837 294 726H124L32 837V878H169L212 847L254 878H386Z" glyph-name="caron.cap" horiz-adv-x="418" /><glyph d="M525 37Q499 20 453.5 6Q408 -8 343 -10V-25Q425 -31 425 -95Q425 -112 419 -126.5Q413 -141 398.5 -152Q384 -163 359 -169Q334 -175 296 -175Q261 -175 240.5 -170.5Q220 -166 203 -159V-92H239Q244 -94 249.5 -96Q255 -98 264 -98Q285 -98 285 -87Q285 -82 281 -79.5Q277 -77 264 -77H249V-4Q142 11 82.5 76Q23 141 23 263Q23 397 106.5 468.5Q190 540 342 540Q392 540 442 529.5Q492 519 525 501V345H439Q428 353 411.5 359Q395 365 369 365Q329 365 307.5 341.5Q286 318 286 260Q286 155 366 155Q392 155 409.5 162.5Q427 170 442 181H525Z" glyph-name="ccedilla" horiz-adv-x="555" unicode="&#231;" /><glyph d="M251 0V-25Q333 -31 333 -95Q333 -112 327 -126.5Q321 -141 306.5 -152Q292 -163 267 -169Q242 -175 204 -175Q169 -175 148.5 -170.5Q128 -166 111 -159V-92H147Q152 -94 157.5 -96Q163 -98 172 -98Q193 -98 193 -87Q193 -82 189 -79.5Q185 -77 172 -77H157V0Z" glyph-name="cedilla" horiz-adv-x="418" unicode="&#184;" /><glyph d="M395 537Q432 532 466 523Q500 514 525 501V345H439Q428 353 411.5 359Q395 365 369 365Q329 365 307.5 341.5Q286 318 286 260Q286 155 366 155Q392 155 409.5 162.5Q427 170 442 181H525V37Q504 23 470 11Q436 -1 388 -6V-102H227V-1Q130 19 76.5 83.5Q23 148 23 263Q23 370 77.5 437.5Q132 505 234 528V609H395Z" glyph-name="cent" horiz-adv-x="555" unicode="&#162;" /><glyph d="M32 599 124 710H294L386 599V558H249L206 589L164 558H32Z" glyph-name="circumflex" horiz-adv-x="418" unicode="&#710;" /><glyph d="M32 767 124 878H294L386 767V726H249L206 757L164 726H32Z" glyph-name="circumflex.cap" horiz-adv-x="418" /><glyph d="M144 -8Q118 -8 96 1Q74 10 57.5 25.5Q41 41 31.5 62Q22 83 22 107Q22 131 31.5 152Q41 173 57.5 188.5Q74 204 96 213Q118 222 144 222Q169 222 191.5 213Q214 204 230.5 188.5Q247 173 256.5 152Q266 131 266 107Q266 83 256.5 62Q247 41 230.5 25.5Q214 10 191.5 1Q169 -8 144 -8ZM144 260Q118 260 96 269Q74 278 57.5 293.5Q41 309 31.5 330Q22 351 22 375Q22 399 31.5 420Q41 441 57.5 456.5Q74 472 96 481Q118 490 144 490Q169 490 191.5 481Q214 472 230.5 456.5Q247 441 256.5 420Q266 399 266 375Q266 351 256.5 330Q247 309 230.5 293.5Q214 278 191.5 269Q169 260 144 260Z" glyph-name="colon" horiz-adv-x="288" unicode=":" /><glyph d="M22 -28Q57 -24 77 -14.5Q97 -5 97 9Q97 16 93 21Q89 26 82.5 30Q76 34 68 38.5Q60 43 53 49Q41 59 30.5 76Q20 93 20 122Q20 166 53 194Q86 222 138 222Q163 222 186 213.5Q209 205 226.5 188Q244 171 254.5 144Q265 117 265 80Q265 -14 204 -64Q143 -114 22 -125Z" glyph-name="comma" horiz-adv-x="285" unicode="," /><glyph d="M417 145Q313 145 253 194.5Q193 244 193 348Q193 448 255 501.5Q317 555 430 555Q468 555 505.5 547Q543 539 568 526V407H499Q491 412 479.5 416.5Q468 421 451 421Q424 421 408.5 405.5Q393 390 393 346Q393 306 407 288.5Q421 271 449 271Q467 271 478.5 277Q490 283 501 291H568V181Q548 167 509.5 156Q471 145 417 145ZM404 -8Q332 -8 265.5 15.5Q199 39 148 84.5Q97 130 66 196.5Q35 263 35 350Q35 437 66 503.5Q97 570 148 615.5Q199 661 265.5 684.5Q332 708 404 708Q476 708 542.5 684.5Q609 661 660 615.5Q711 570 742 503.5Q773 437 773 350Q773 263 742 196.5Q711 130 660 84.5Q609 39 542.5 15.5Q476 -8 404 -8ZM404 61Q462 61 514.5 80.5Q567 100 606.5 136.5Q646 173 669.5 227Q693 281 693 350Q693 419 669.5 473Q646 527 606.5 563.5Q567 600 514.5 619.5Q462 639 404 639Q346 639 293.5 619.5Q241 600 201.5 563.5Q162 527 138.5 473Q115 419 115 350Q115 281 138.5 227Q162 173 201.5 136.5Q241 100 293.5 80.5Q346 61 404 61Z" glyph-name="copyright" horiz-adv-x="808" unicode="&#169;" /><glyph d="M439 0Q420 0 406 10Q392 20 383 47Q362 24 329 6.5Q296 -11 236 -11Q190 -11 151 4Q112 19 84 52Q56 85 40.5 137Q25 189 25 263Q25 342 45 395Q65 448 95.5 480.5Q126 513 162.5 526.5Q199 540 233 540Q284 540 315 523.5Q346 507 369 479V700H542Q569 700 585.5 695.5Q602 691 611 677.5Q620 664 623.5 640Q627 616 627 577V0ZM345 147Q358 147 369 150V354Q362 355 356 355.5Q350 356 345 356Q332 356 321.5 352.5Q311 349 303 338.5Q295 328 290.5 309.5Q286 291 286 261Q286 228 290.5 206Q295 184 303 171Q311 158 321.5 152.5Q332 147 345 147Z" glyph-name="d" horiz-adv-x="671" unicode="d" /><glyph d="M138 223V297L195 395L89 349H28V564H89L195 514L147 605V700H380V605L332 517L438 564H499V349H438L331 397L389 299V225L342 -49H185Z" glyph-name="dagger" horiz-adv-x="527" unicode="&#8224;" /><glyph d="M195 417 89 371H28V586H89L195 536L147 627V700H380V627L332 539L438 586H499V371H438L331 419L386 361V292L332 234L438 280H499V65H438L332 115L380 24V-49H147V24L195 112L89 65H28V280H89L196 232L141 290V359Z" glyph-name="daggerdbl" horiz-adv-x="527" unicode="&#8225;" /><glyph d="M190 401Q158 401 128.5 412Q99 423 76.5 443Q54 463 41 491Q28 519 28 554Q28 588 41 616.5Q54 645 76.5 664.5Q99 684 128.5 695Q158 706 190 706Q222 706 251.5 695Q281 684 303.5 664.5Q326 645 339 616.5Q352 588 352 554Q352 519 339 491Q326 463 303.5 443Q281 423 251.5 412Q222 401 190 401ZM190 499Q213 499 227 514.5Q241 530 241 554Q241 579 227 593.5Q213 608 190 608Q167 608 153.5 593.5Q140 579 140 554Q140 530 153.5 514.5Q167 499 190 499Z" glyph-name="degree" horiz-adv-x="380" unicode="&#176;" /><glyph d="M93 546Q44 546 15 570.5Q-14 595 -14 640Q-14 685 15 709.5Q44 734 93 734Q141 734 170 709.5Q199 685 199 640Q199 595 170 570.5Q141 546 93 546ZM325 546Q277 546 248 570.5Q219 595 219 640Q219 685 248 709.5Q277 734 325 734Q374 734 403 709.5Q432 685 432 640Q432 595 403 570.5Q374 546 325 546Z" glyph-name="dieresis" horiz-adv-x="418" unicode="&#168;" /><glyph d="M93 722Q44 722 15 746.5Q-14 771 -14 816Q-14 861 15 885.5Q44 910 93 910Q141 910 170 885.5Q199 861 199 816Q199 771 170 746.5Q141 722 93 722ZM325 722Q277 722 248 746.5Q219 771 219 816Q219 861 248 885.5Q277 910 325 910Q374 910 403 885.5Q432 861 432 816Q432 771 403 746.5Q374 722 325 722Z" glyph-name="dieresis.cap" horiz-adv-x="418" /><glyph d="M286 458Q261 458 239 466.5Q217 475 201 490Q185 505 175.5 525Q166 545 166 569Q166 593 175.5 613.5Q185 634 201 649.5Q217 665 239 673.5Q261 682 286 682Q310 682 331.5 673.5Q353 665 369 649.5Q385 634 394.5 613.5Q404 593 404 569Q404 545 394.5 525Q385 505 369 490Q353 475 331.5 466.5Q310 458 286 458ZM32 443H539V248H32ZM286 9Q261 9 239 17.5Q217 26 201 41Q185 56 175.5 76Q166 96 166 120Q166 144 175.5 164.5Q185 185 201 200.5Q217 216 239 224.5Q261 233 286 233Q310 233 331.5 224.5Q353 216 369 200.5Q385 185 394.5 164.5Q404 144 404 120Q404 96 394.5 76Q385 56 369 41Q353 26 331.5 17.5Q310 9 286 9Z" glyph-name="divide" horiz-adv-x="571" unicode="&#247;" /><glyph d="M386 700Q435 695 476 682.5Q517 670 553 650V495H432Q419 506 394 517.5Q369 529 334 529Q302 529 286 521Q270 513 270 500Q270 483 288 476.5Q306 470 332 462Q407 443 455.5 423.5Q504 404 532.5 378Q561 352 572.5 316.5Q584 281 584 232Q584 145 532 87Q480 29 379 8V-102H218V0Q158 5 111.5 18.5Q65 32 33 52V211H155Q173 194 198.5 183Q224 172 260 172Q290 172 308 178.5Q326 185 326 201Q326 219 306 225.5Q286 232 237 243Q192 255 153.5 270Q115 285 87 310Q59 335 43 374Q27 413 27 473Q27 567 80 621Q133 675 225 693V774H386Z" glyph-name="dollar" horiz-adv-x="612" unicode="$" /><glyph d="M209 542Q152 542 118.5 568.5Q85 595 85 643Q85 691 118.5 718Q152 745 209 745Q266 745 299.5 718Q333 691 333 643Q333 595 299.5 568.5Q266 542 209 542Z" glyph-name="dotaccent" horiz-adv-x="418" unicode="&#729;" /><glyph d="M209 722Q152 722 118.5 748.5Q85 775 85 823Q85 871 118.5 898Q152 925 209 925Q266 925 299.5 898Q333 871 333 823Q333 775 299.5 748.5Q266 722 209 722Z" glyph-name="dotaccent.cap" horiz-adv-x="418" /><glyph d="M44 0V530H218Q244 530 260.5 525.5Q277 521 286 509Q295 497 298.5 475.5Q302 454 302 420V0Z" glyph-name="dotlessi" horiz-adv-x="346" unicode="&#305;" /><glyph d="M281 209Q289 174 309.5 161.5Q330 149 368 149Q413 149 442.5 157Q472 165 492 175H574V43Q553 31 529 21.5Q505 12 475.5 5Q446 -2 409.5 -6Q373 -10 328 -10Q249 -10 191.5 8.5Q134 27 96.5 62.5Q59 98 41 148Q23 198 23 261Q23 324 43 375.5Q63 427 101.5 463.5Q140 500 195.5 520Q251 540 322 540Q463 540 530.5 471.5Q598 403 598 260Q598 239 597 227Q596 215 595 209ZM322 387Q305 387 293 374Q281 361 277 318H366Q363 358 352.5 372.5Q342 387 322 387Z" glyph-name="e" horiz-adv-x="621" unicode="e" /><glyph d="M281 209Q289 174 309.5 161.5Q330 149 368 149Q413 149 442.5 157Q472 165 492 175H574V43Q553 31 529 21.5Q505 12 475.5 5Q446 -2 409.5 -6Q373 -10 328 -10Q249 -10 191.5 8.5Q134 27 96.5 62.5Q59 98 41 148Q23 198 23 261Q23 324 43 375.5Q63 427 101.5 463.5Q140 500 195.5 520Q251 540 322 540Q463 540 530.5 471.5Q598 403 598 260Q598 239 597 227Q596 215 595 209ZM322 387Q305 387 293 374Q281 361 277 318H366Q363 358 352.5 372.5Q342 387 322 387ZM231 558V595L264 710H495V666L387 558Z" glyph-name="eacute" horiz-adv-x="617" unicode="&#233;" /><glyph d="M281 209Q289 174 309.5 161.5Q330 149 368 149Q413 149 442.5 157Q472 165 492 175H574V43Q553 31 529 21.5Q505 12 475.5 5Q446 -2 409.5 -6Q373 -10 328 -10Q249 -10 191.5 8.5Q134 27 96.5 62.5Q59 98 41 148Q23 198 23 261Q23 324 43 375.5Q63 427 101.5 463.5Q140 500 195.5 520Q251 540 322 540Q463 540 530.5 471.5Q598 403 598 260Q598 239 597 227Q596 215 595 209ZM322 387Q305 387 293 374Q281 361 277 318H366Q363 358 352.5 372.5Q342 387 322 387ZM134 599 226 710H396L488 599V558H351L308 589L266 558H134Z" glyph-name="ecircumflex" horiz-adv-x="617" unicode="&#234;" /><glyph d="M281 209Q289 174 309.5 161.5Q330 149 368 149Q413 149 442.5 157Q472 165 492 175H574V43Q553 31 529 21.5Q505 12 475.5 5Q446 -2 409.5 -6Q373 -10 328 -10Q249 -10 191.5 8.5Q134 27 96.5 62.5Q59 98 41 148Q23 198 23 261Q23 324 43 375.5Q63 427 101.5 463.5Q140 500 195.5 520Q251 540 322 540Q463 540 530.5 471.5Q598 403 598 260Q598 239 597 227Q596 215 595 209ZM322 387Q305 387 293 374Q281 361 277 318H366Q363 358 352.5 372.5Q342 387 322 387ZM195 546Q146 546 117 570.5Q88 595 88 640Q88 685 117 709.5Q146 734 195 734Q243 734 272 709.5Q301 685 301 640Q301 595 272 570.5Q243 546 195 546ZM427 546Q379 546 350 570.5Q321 595 321 640Q321 685 350 709.5Q379 734 427 734Q476 734 505 709.5Q534 685 534 640Q534 595 505 570.5Q476 546 427 546Z" glyph-name="edieresis" horiz-adv-x="617" unicode="&#235;" /><glyph d="M281 209Q289 174 309.5 161.5Q330 149 368 149Q413 149 442.5 157Q472 165 492 175H574V43Q553 31 529 21.5Q505 12 475.5 5Q446 -2 409.5 -6Q373 -10 328 -10Q249 -10 191.5 8.5Q134 27 96.5 62.5Q59 98 41 148Q23 198 23 261Q23 324 43 375.5Q63 427 101.5 463.5Q140 500 195.5 520Q251 540 322 540Q463 540 530.5 471.5Q598 403 598 260Q598 239 597 227Q596 215 595 209ZM322 387Q305 387 293 374Q281 361 277 318H366Q363 358 352.5 372.5Q342 387 322 387ZM238 558 130 666V710H361L394 595V558Z" glyph-name="egrave" horiz-adv-x="617" unicode="&#232;" /><glyph d="M340 -12Q185 -12 104.5 45Q24 102 24 199Q24 266 52 307.5Q80 349 150 370V374Q93 392 70 428.5Q47 465 47 522Q47 566 69 601Q91 636 130.5 661Q170 686 223.5 699Q277 712 340 712Q403 712 456.5 699Q510 686 549.5 661Q589 636 611 601Q633 566 633 522Q633 465 611 428.5Q589 392 532 374V370Q601 349 628.5 307.5Q656 266 656 199Q656 102 575.5 45Q495 -12 340 -12ZM340 155Q370 155 382.5 175.5Q395 196 395 226Q395 256 382.5 276Q370 296 340 296Q309 296 296.5 276Q284 256 284 226Q284 196 296.5 175.5Q309 155 340 155ZM340 434Q364 434 375.5 449.5Q387 465 387 489Q387 513 375.5 529.5Q364 546 340 546Q316 546 304.5 529.5Q293 513 293 489Q293 465 304.5 449.5Q316 434 340 434Z" glyph-name="eight" horiz-adv-x="680" unicode="8" /><glyph d="M142 -8Q116 -8 94 1Q72 10 55.5 25.5Q39 41 29.5 62Q20 83 20 107Q20 131 29.5 152Q39 173 55.5 188.5Q72 204 94 213Q116 222 142 222Q167 222 189.5 213Q212 204 228.5 188.5Q245 173 254.5 152Q264 131 264 107Q264 83 254.5 62Q245 41 228.5 25.5Q212 10 189.5 1Q167 -8 142 -8ZM418 -8Q392 -8 370 1Q348 10 331.5 25.5Q315 41 305.5 62Q296 83 296 107Q296 131 305.5 152Q315 173 331.5 188.5Q348 204 370 213Q392 222 418 222Q443 222 465.5 213Q488 204 504.5 188.5Q521 173 530.5 152Q540 131 540 107Q540 83 530.5 62Q521 41 504.5 25.5Q488 10 465.5 1Q443 -8 418 -8ZM694 -8Q668 -8 646 1Q624 10 607.5 25.5Q591 41 581.5 62Q572 83 572 107Q572 131 581.5 152Q591 173 607.5 188.5Q624 204 646 213Q668 222 694 222Q719 222 741.5 213Q764 204 780.5 188.5Q797 173 806.5 152Q816 131 816 107Q816 83 806.5 62Q797 41 780.5 25.5Q764 10 741.5 1Q719 -8 694 -8Z" glyph-name="ellipsis" horiz-adv-x="836" unicode="&#8230;" /><glyph d="M28 370H699V191H28Z" glyph-name="emdash" horiz-adv-x="727" unicode="&#8212;" /><glyph d="M28 369H419V192H28Z" glyph-name="endash" horiz-adv-x="447" unicode="&#8211;" /><glyph d="M32 323V498H489V323ZM32 113V288H489V113Z" glyph-name="equal" horiz-adv-x="521" unicode="=" /><glyph d="M448 641Q540 591 589.5 505Q639 419 639 301Q639 221 616.5 162.5Q594 104 553 65.5Q512 27 454 8.5Q396 -10 326 -10Q259 -10 203.5 7Q148 24 108 57.5Q68 91 45.5 139.5Q23 188 23 251Q23 314 43.5 360Q64 406 95 436Q126 466 162 480.5Q198 495 228 495Q256 495 274.5 492.5Q293 490 306 485Q319 480 328.5 473Q338 466 348 457Q342 480 325 497Q308 514 285 527L257 507H133V542L168 566L123 575V700H242Q267 698 290 693.5Q313 689 335 684L358 700H482V665ZM331 139Q354 139 366 161.5Q378 184 378 246Q378 309 366 332Q354 355 331 355Q308 355 295.5 332Q283 309 283 246Q283 184 295.5 161.5Q308 139 331 139Z" glyph-name="eth" horiz-adv-x="662" unicode="&#240;" /><glyph d="M45 550V700H319V550L266 247H98ZM182 -8Q156 -8 134 1Q112 10 95.5 25.5Q79 41 69.5 62Q60 83 60 107Q60 131 69.5 152Q79 173 95.5 188.5Q112 204 134 213Q156 222 182 222Q207 222 229.5 213Q252 204 268.5 188.5Q285 173 294.5 152Q304 131 304 107Q304 83 294.5 62Q285 41 268.5 25.5Q252 10 229.5 1Q207 -8 182 -8Z" glyph-name="exclam" horiz-adv-x="364" unicode="!" /><glyph d="M319 90V-60H45V90L98 393H266ZM182 648Q207 648 229.5 639Q252 630 268.5 614.5Q285 599 294.5 578Q304 557 304 533Q304 509 294.5 488Q285 467 268.5 451.5Q252 436 229.5 427Q207 418 182 418Q157 418 134.5 427Q112 436 95.5 451.5Q79 467 69.5 488Q60 509 60 533Q60 557 69.5 578Q79 599 95.5 614.5Q112 630 134.5 639Q157 648 182 648Z" glyph-name="exclamdown" horiz-adv-x="364" unicode="&#161;" /><glyph d="M18 530H64V544Q64 592 77.5 625Q91 658 117.5 678.5Q144 699 183 707.5Q222 716 274 716Q316 716 343.5 711Q371 706 392 700V569H370Q340 569 331 562Q322 555 322 534V530H390V375H322V0H64V375H18Z" glyph-name="f" horiz-adv-x="412" unicode="f" /><glyph d="M18 530H64V539Q64 633 116.5 672Q169 711 270 711Q313 711 336.5 706.5Q360 702 381 695V564H370Q340 564 331 557.5Q322 551 322 533V530H410V544Q410 592 423.5 625Q437 658 463.5 678.5Q490 699 529 707.5Q568 716 620 716Q662 716 689.5 711Q717 706 738 700V569H716Q686 569 677 562Q668 555 668 534V530H736V375H668V0H410V375H322V0H64V375H18Z" glyph-name="f_f" horiz-adv-x="758" unicode="&#64256;" /><glyph d="M18 530H64V544Q64 592 77.5 625Q91 658 117 678.5Q143 699 181.5 707.5Q220 716 270 716Q313 716 338.5 711.5Q364 707 385 700V569H370Q340 569 331 562Q322 555 322 534V530H385V375H322V0H64V375H18ZM424 0V530H598Q624 530 640.5 525.5Q657 521 666 509Q675 497 678.5 475.5Q682 454 682 420V0ZM553 542Q496 542 462.5 568.5Q429 595 429 643Q429 691 462.5 718Q496 745 553 745Q610 745 643.5 718Q677 691 677 643Q677 595 643.5 568.5Q610 542 553 542Z" glyph-name="fi" horiz-adv-x="726" unicode="&#64257;" /><glyph d="M584 230Q584 116 500.5 52Q417 -12 257 -12Q176 -12 122 -0.5Q68 11 25 33V202H126Q145 191 169 182.5Q193 174 228 174Q274 174 291.5 190Q309 206 309 234Q309 260 294 272Q279 284 252 284Q228 284 212.5 276.5Q197 269 188 260H42V700H542V506H232V409H235Q254 427 283 437.5Q312 448 365 448Q412 448 452 435.5Q492 423 521.5 396Q551 369 567.5 328Q584 287 584 230Z" glyph-name="five" horiz-adv-x="610" unicode="5" /><glyph d="M373 427Q373 361 320 322.5Q267 284 173 284Q122 284 89 291.5Q56 299 29 312V420H98Q109 415 120.5 410Q132 405 149 405Q174 405 183 412.5Q192 420 192 432Q192 451 166 451Q144 451 135 440H39V700H349V577H165V530H167Q178 541 198.5 547Q219 553 254 553Q305 553 339 523Q373 493 373 427ZM291 -34H149L642 729H784ZM761 -4Q654 -4 604.5 29Q555 62 555 119Q555 157 574 182Q593 207 638 217V219Q602 227 586 250Q570 273 570 305Q570 356 622 386Q674 416 761 416Q849 416 900 386Q951 356 951 305Q951 273 935 250Q919 227 883 219V217Q927 207 946.5 182Q966 157 966 119Q966 62 917 29Q868 -4 761 -4ZM761 99Q777 99 784.5 110Q792 121 792 138Q792 155 784.5 166.5Q777 178 761 178Q745 178 737 166.5Q729 155 729 138Q729 121 737 110Q745 99 761 99ZM761 251Q776 251 782.5 260Q789 269 789 283Q789 297 782.5 306.5Q776 316 761 316Q745 316 738.5 306.5Q732 297 732 283Q732 269 738.5 260Q745 251 761 251Z" glyph-name="fiveeighths" horiz-adv-x="989" unicode="&#8541;" /><glyph d="M18 530H64V544Q64 592 77.5 625Q91 658 117 678.5Q143 699 181.5 707.5Q220 716 270 716Q313 716 338.5 711.5Q364 707 385 700V569H370Q340 569 331 562Q322 555 322 534V530H385V375H322V0H64V375H18ZM426 0V700H599Q626 700 642.5 695.5Q659 691 668 677.5Q677 664 680.5 640Q684 616 684 577V0Z" glyph-name="fl" horiz-adv-x="730" unicode="&#64258;" /><glyph d="M43 444H109L119 533Q129 622 185 669Q241 716 344 716Q382 716 409.5 710.5Q437 705 453 700V559H431Q402 559 388.5 549Q375 539 371 510L363 444H438V287H344L298 -100H48L91 287H43Z" glyph-name="florin" horiz-adv-x="482" unicode="&#402;" /><glyph d="M311 0V140H30V326L324 700H583V305H639V140H583V0ZM215 305H323V450H319L215 309Z" glyph-name="four" horiz-adv-x="669" unicode="4" /><glyph d="M-49 -34H-191L302 729H444Z" glyph-name="fraction" horiz-adv-x="253" unicode="&#8260;" /><glyph d="M627 67Q627 6 603 -38.5Q579 -83 534.5 -112.5Q490 -142 427 -156Q364 -170 287 -170Q204 -170 150.5 -162Q97 -154 54 -137V24H136Q155 16 184.5 9.5Q214 3 252 3Q315 3 342 17.5Q369 32 369 64V77Q346 59 312 51Q278 43 236 43Q192 43 153.5 53.5Q115 64 86.5 91Q58 118 41.5 165.5Q25 213 25 287Q25 363 45 412Q65 461 96 489.5Q127 518 165.5 529Q204 540 240 540Q289 540 322.5 520.5Q356 501 385 462Q396 494 415.5 512Q435 530 473 530H627ZM345 184Q358 184 369 187V354Q362 355 356 355.5Q350 356 345 356Q332 356 321.5 354.5Q311 353 303 345Q295 337 290.5 320.5Q286 304 286 274Q286 241 290.5 222.5Q295 204 303 195.5Q311 187 321.5 185.5Q332 184 345 184Z" glyph-name="g" horiz-adv-x="671" unicode="g" /><glyph d="M497 -9Q448 -9 406 -1Q364 7 335 24V162H422Q443 141 476 141Q489 141 498.5 145Q508 149 508 159Q508 170 494 175Q480 180 452 190Q392 210 363.5 241.5Q335 273 335 331Q335 363 346.5 389Q358 415 381 444Q400 468 410 482Q420 496 420 510Q420 524 406 535Q392 546 368 546Q302 546 302 476V0H44V476Q44 595 123.5 653.5Q203 712 377 712Q531 712 605 671Q679 630 679 556Q679 518 659 491.5Q639 465 608 443Q581 424 571 413Q561 402 561 392Q561 380 572 374Q583 368 606 358Q637 345 661.5 330Q686 315 703 294.5Q720 274 729 246Q738 218 738 179Q738 92 679.5 41.5Q621 -9 497 -9Z" glyph-name="germandbls" horiz-adv-x="756" unicode="&#223;" /><glyph d="M140 558 32 666V710H263L296 595V558Z" glyph-name="grave" horiz-adv-x="418" unicode="`" /><glyph d="M140 726 32 834V878H263L296 763V726Z" glyph-name="grave.cap" horiz-adv-x="418" /><glyph d="M451 240 79 71H34V270L184 329V332L34 388V587H79L451 418Z" glyph-name="greater" horiz-adv-x="485" unicode="&gt;" /><glyph d="M34 222V298L130 480H312V434L220 261V259L312 86V40H130ZM285 222V298L381 480H563V434L471 261V259L563 86V40H381Z" glyph-name="guillemotleft" horiz-adv-x="597" unicode="&#171;" /><glyph d="M563 298V222L467 40H285V86L377 259V261L285 434V480H467ZM312 298V222L216 40H34V86L126 259V261L34 434V480H216Z" glyph-name="guillemotright" horiz-adv-x="597" unicode="&#187;" /><glyph d="M34 222V298L130 480H312V434L220 261V259L312 86V40H130Z" glyph-name="guilsinglleft" horiz-adv-x="346" unicode="&#8249;" /><glyph d="M312 298V222L216 40H34V86L126 259V261L34 434V480H216Z" glyph-name="guilsinglright" horiz-adv-x="346" unicode="&#8250;" /><glyph d="M302 453Q318 470 336 486Q354 502 375.5 514Q397 526 423.5 533Q450 540 483 540Q515 540 542 532Q569 524 588.5 506Q608 488 619 458Q630 428 630 385V0H372V315Q372 339 358.5 345.5Q345 352 316 352Q306 352 302 351V0H44V700H217Q244 700 260.5 695.5Q277 691 286 677.5Q295 664 298.5 640Q302 616 302 577Z" glyph-name="h" horiz-adv-x="671" unicode="h" /><glyph d="M43 588 76 710H256V668L171 558H43ZM251 588 283 710H463V668L378 558H251Z" glyph-name="hungarumlaut" horiz-adv-x="418" unicode="&#733;" /><glyph d="M33 756 66 878H256V836L171 726H33ZM251 756 283 878H473V836L388 726H251Z" glyph-name="hungarumlaut.cap" horiz-adv-x="418" /><glyph d="M28 370H309V191H28Z" glyph-name="hyphen" horiz-adv-x="337" unicode="-" /><glyph d="M44 0V530H218Q244 530 260.5 525.5Q277 521 286 509Q295 497 298.5 475.5Q302 454 302 420V0ZM173 542Q116 542 82.5 568.5Q49 595 49 643Q49 691 82.5 718Q116 745 173 745Q230 745 263.5 718Q297 691 297 643Q297 595 263.5 568.5Q230 542 173 542Z" glyph-name="i" horiz-adv-x="346" unicode="i" /><glyph d="M44 0V530H218Q244 530 260.5 525.5Q277 521 286 509Q295 497 298.5 475.5Q302 454 302 420V0ZM94 558V595L127 710H358V666L250 558Z" glyph-name="iacute" horiz-adv-x="348" unicode="&#237;" /><glyph d="M44 0V530H218Q244 530 260.5 525.5Q277 521 286 509Q295 497 298.5 475.5Q302 454 302 420V0ZM-3 599 89 710H259L351 599V558H214L171 589L129 558H-3Z" glyph-name="icircumflex" horiz-adv-x="348" unicode="&#238;" /><glyph d="M44 0V530H218Q244 530 260.5 525.5Q277 521 286 509Q295 497 298.5 475.5Q302 454 302 420V0ZM58 546Q9 546 -20 570.5Q-49 595 -49 640Q-49 685 -20 709.5Q9 734 58 734Q106 734 135 709.5Q164 685 164 640Q164 595 135 570.5Q106 546 58 546ZM290 546Q242 546 213 570.5Q184 595 184 640Q184 685 213 709.5Q242 734 290 734Q339 734 368 709.5Q397 685 397 640Q397 595 368 570.5Q339 546 290 546Z" glyph-name="idieresis" horiz-adv-x="348" unicode="&#239;" /><glyph d="M44 0V530H218Q244 530 260.5 525.5Q277 521 286 509Q295 497 298.5 475.5Q302 454 302 420V0ZM101 558 -7 666V710H224L257 595V558Z" glyph-name="igrave" horiz-adv-x="348" unicode="&#236;" /><glyph d="M-26 -24H-4Q26 -24 35 -17Q44 -10 44 11V530H220Q245 530 261 524.5Q277 519 286 506.5Q295 494 298.5 472.5Q302 451 302 420V1Q302 -47 288.5 -80Q275 -113 248.5 -133.5Q222 -154 183 -162.5Q144 -171 92 -171Q50 -171 22.5 -166Q-5 -161 -26 -155ZM173 542Q116 542 82.5 568.5Q49 595 49 643Q49 691 82.5 718Q116 745 173 745Q230 745 263.5 718Q297 691 297 643Q297 595 263.5 568.5Q230 542 173 542Z" glyph-name="j" horiz-adv-x="346" unicode="j" /><glyph d="M302 368 414 530H636V477L514 314L657 49V0H403L321 159L302 134V0H44V700H217Q244 700 260.5 695.5Q277 691 286 677.5Q295 664 298.5 640Q302 616 302 577Z" glyph-name="k" horiz-adv-x="674" unicode="k" /><glyph d="M46 0V700H219Q246 700 262.5 695.5Q279 691 288 677.5Q297 664 300.5 640Q304 616 304 577V0Z" glyph-name="l" horiz-adv-x="350" unicode="l" /><glyph d="M34 418 406 587H451V388L301 329V326L451 270V71H406L34 240Z" glyph-name="less" horiz-adv-x="485" unicode="&lt;" /><glyph d="M56 0V241L10 220V366L56 387V700H229Q256 700 272.5 695.5Q289 691 298 677.5Q307 664 310.5 640Q314 616 314 577V506L360 528V382L314 360V0Z" glyph-name="lslash" horiz-adv-x="370" unicode="&#322;" /><glyph d="M44 0V530H229Q243 530 254 527Q265 524 273 515Q281 506 287 489.5Q293 473 296 445Q328 487 369.5 513.5Q411 540 471 540Q522 540 558.5 520Q595 500 610 449Q642 490 685 515Q728 540 787 540Q819 540 846 532Q873 524 892.5 506Q912 488 923 458Q934 428 934 385V0H676V315Q676 339 662.5 345.5Q649 352 620 352H618V0H360V315Q360 339 346.5 345.5Q333 352 304 352H302V0Z" glyph-name="m" horiz-adv-x="975" unicode="m" /><glyph d="M357 566H61V700H357Z" glyph-name="macron" horiz-adv-x="418" unicode="&#175;" /><glyph d="M357 730H61V864H357Z" glyph-name="macron.cap" horiz-adv-x="418" /><glyph d="M32 248V443H539V248Z" glyph-name="minus" horiz-adv-x="571" unicode="&#8722;" /><glyph d="M31 223 155 342 32 462 166 596 290 474 414 595 548 461 425 343 548 224 415 90 290 212 165 90Z" glyph-name="multiply" horiz-adv-x="579" unicode="&#215;" /><glyph d="M44 0V530H229Q243 530 254 527Q265 524 273 515.5Q281 507 287 490.5Q293 474 296 447Q312 465 330.5 482Q349 499 371.5 511.5Q394 524 421.5 532Q449 540 483 540Q515 540 542 532Q569 524 588.5 506Q608 488 619 458Q630 428 630 385V0H372V315Q372 339 358.5 345.5Q345 352 316 352Q306 352 302 351V0Z" glyph-name="n" horiz-adv-x="671" unicode="n" /><glyph d="M272 -12Q196 -12 141 1Q86 14 57 28V206H155Q170 198 199.5 192Q229 186 262 186Q324 186 351 208.5Q378 231 385 290Q353 267 314.5 257Q276 247 238 247Q190 247 151 260.5Q112 274 84.5 300.5Q57 327 41.5 367Q26 407 26 461Q26 581 103.5 646.5Q181 712 325 712Q402 712 464.5 693Q527 674 571 632Q615 590 639 523Q663 456 663 360Q663 273 640.5 204Q618 135 570.5 87Q523 39 449 13.5Q375 -12 272 -12ZM345 403Q358 403 369 405Q380 407 388 409Q387 453 383 479Q379 505 373 518.5Q367 532 358 536Q349 540 338 540Q312 540 301 523.5Q290 507 290 471Q290 432 301.5 417.5Q313 403 345 403Z" glyph-name="nine" horiz-adv-x="692" unicode="9" /><glyph d="M44 0V530H229Q243 530 254 527Q265 524 273 515.5Q281 507 287 490.5Q293 474 296 447Q312 465 330.5 482Q349 499 371.5 511.5Q394 524 421.5 532Q449 540 483 540Q515 540 542 532Q569 524 588.5 506Q608 488 619 458Q630 428 630 385V0H372V315Q372 339 358.5 345.5Q345 352 316 352Q306 352 302 351V0ZM151 603Q160 659 191.5 693.5Q223 728 274 728Q311 728 341 718.5Q371 709 388 709Q408 709 414 728H527V682Q518 626 487.5 591Q457 556 408 556Q367 556 337 566Q307 576 290 576Q270 576 264 557H151Z" glyph-name="ntilde" horiz-adv-x="673" unicode="&#241;" /><glyph d="M61 554H142L164 700H316L294 554H349L371 700H523L501 554H559V395H478L469 329H527V170H446L421 0H269L294 170H239L214 0H62L87 170H29V329H110L119 395H61ZM262 329H317L326 395H271Z" glyph-name="numbersign" horiz-adv-x="588" unicode="#" /><glyph d="M331 -10Q262 -10 205.5 9Q149 28 108.5 63Q68 98 45.5 148.5Q23 199 23 262Q23 325 45.5 376.5Q68 428 108.5 464.5Q149 501 205.5 520.5Q262 540 331 540Q400 540 456.5 520.5Q513 501 553.5 464.5Q594 428 616.5 376.5Q639 325 639 262Q639 199 616.5 148.5Q594 98 553.5 63Q513 28 456.5 9Q400 -10 331 -10ZM331 141Q354 141 366 169Q378 197 378 260Q378 323 366 348.5Q354 374 331 374Q308 374 295.5 348.5Q283 323 283 260Q283 197 295.5 169Q308 141 331 141Z" glyph-name="o" horiz-adv-x="662" unicode="o" /><glyph d="M342 -10Q273 -10 216.5 9Q160 28 119.5 63Q79 98 56.5 148.5Q34 199 34 262Q34 325 56.5 376.5Q79 428 119.5 464.5Q160 501 216.5 520.5Q273 540 342 540Q411 540 467.5 520.5Q524 501 564.5 464.5Q605 428 627.5 376.5Q650 325 650 262Q650 199 627.5 148.5Q605 98 564.5 63Q524 28 467.5 9Q411 -10 342 -10ZM342 141Q365 141 377 169Q389 197 389 260Q389 323 377 348.5Q365 374 342 374Q319 374 306.5 348.5Q294 323 294 260Q294 197 306.5 169Q319 141 342 141ZM248 558V595L281 710H512V666L404 558Z" glyph-name="oacute" horiz-adv-x="658" unicode="&#243;" /><glyph d="M342 -10Q273 -10 216.5 9Q160 28 119.5 63Q79 98 56.5 148.5Q34 199 34 262Q34 325 56.5 376.5Q79 428 119.5 464.5Q160 501 216.5 520.5Q273 540 342 540Q411 540 467.5 520.5Q524 501 564.5 464.5Q605 428 627.5 376.5Q650 325 650 262Q650 199 627.5 148.5Q605 98 564.5 63Q524 28 467.5 9Q411 -10 342 -10ZM342 141Q365 141 377 169Q389 197 389 260Q389 323 377 348.5Q365 374 342 374Q319 374 306.5 348.5Q294 323 294 260Q294 197 306.5 169Q319 141 342 141ZM151 599 243 710H413L505 599V558H368L325 589L283 558H151Z" glyph-name="ocircumflex" horiz-adv-x="658" unicode="&#244;" /><glyph d="M342 -10Q273 -10 216.5 9Q160 28 119.5 63Q79 98 56.5 148.5Q34 199 34 262Q34 325 56.5 376.5Q79 428 119.5 464.5Q160 501 216.5 520.5Q273 540 342 540Q411 540 467.5 520.5Q524 501 564.5 464.5Q605 428 627.5 376.5Q650 325 650 262Q650 199 627.5 148.5Q605 98 564.5 63Q524 28 467.5 9Q411 -10 342 -10ZM342 141Q365 141 377 169Q389 197 389 260Q389 323 377 348.5Q365 374 342 374Q319 374 306.5 348.5Q294 323 294 260Q294 197 306.5 169Q319 141 342 141ZM212 546Q163 546 134 570.5Q105 595 105 640Q105 685 134 709.5Q163 734 212 734Q260 734 289 709.5Q318 685 318 640Q318 595 289 570.5Q260 546 212 546ZM444 546Q396 546 367 570.5Q338 595 338 640Q338 685 367 709.5Q396 734 444 734Q493 734 522 709.5Q551 685 551 640Q551 595 522 570.5Q493 546 444 546Z" glyph-name="odieresis" horiz-adv-x="658" unicode="&#246;" /><glyph d="M321 -10Q255 -10 200.5 9Q146 28 106.5 63Q67 98 45 148.5Q23 199 23 262Q23 325 45 376.5Q67 428 106.5 464.5Q146 501 200.5 520.5Q255 540 320 540Q375 540 421 523.5Q467 507 502 478Q570 540 684 540Q814 540 881.5 471.5Q949 403 949 260Q949 239 948 227Q947 215 946 209H632Q640 174 660.5 161.5Q681 149 719 149Q764 149 793.5 157Q823 165 843 175H925V43Q883 20 828.5 5Q774 -10 693 -10Q628 -10 580 4.5Q532 19 499 47Q428 -10 321 -10ZM331 141Q354 141 366 169Q378 197 378 260Q378 323 366 348.5Q354 374 331 374Q308 374 295.5 348.5Q283 323 283 260Q283 197 295.5 169Q308 141 331 141ZM673 387Q656 387 644 374Q632 361 628 318H717Q714 358 703.5 372.5Q693 387 673 387Z" glyph-name="oe" horiz-adv-x="972" unicode="&#339;" /><glyph d="M289 0Q275 -14 268.5 -22.5Q262 -31 262 -40Q262 -59 294 -59H307V-155Q293 -162 269 -166.5Q245 -171 211 -171Q132 -171 98 -148.5Q64 -126 64 -91Q64 -57 91 -34.5Q118 -12 153 0Z" glyph-name="ogonek" horiz-adv-x="418" unicode="&#731;" /><glyph d="M342 -10Q273 -10 216.5 9Q160 28 119.5 63Q79 98 56.5 148.5Q34 199 34 262Q34 325 56.5 376.5Q79 428 119.5 464.5Q160 501 216.5 520.5Q273 540 342 540Q411 540 467.5 520.5Q524 501 564.5 464.5Q605 428 627.5 376.5Q650 325 650 262Q650 199 627.5 148.5Q605 98 564.5 63Q524 28 467.5 9Q411 -10 342 -10ZM342 141Q365 141 377 169Q389 197 389 260Q389 323 377 348.5Q365 374 342 374Q319 374 306.5 348.5Q294 323 294 260Q294 197 306.5 169Q319 141 342 141ZM255 558 147 666V710H378L411 595V558Z" glyph-name="ograve" horiz-adv-x="658" unicode="&#242;" /><glyph d="M134 0V457L69 422H29V624L199 700H410V0Z" glyph-name="one" horiz-adv-x="465" unicode="1" /><glyph d="M89 293V540L46 520H19V650L135 700H278V293Z" glyph-name="one.superior" horiz-adv-x="327" unicode="&#185;" /><glyph d="M94 293V540L51 520H24V650L140 700H283V293ZM252 -34H110L603 729H745ZM726 -4Q619 -4 569.5 29Q520 62 520 119Q520 157 539 182Q558 207 603 217V219Q567 227 551 250Q535 273 535 305Q535 356 587 386Q639 416 726 416Q814 416 865 386Q916 356 916 305Q916 273 900 250Q884 227 848 219V217Q892 207 911.5 182Q931 157 931 119Q931 62 882 29Q833 -4 726 -4ZM726 99Q742 99 749.5 110Q757 121 757 138Q757 155 749.5 166.5Q742 178 726 178Q710 178 702 166.5Q694 155 694 138Q694 121 702 110Q710 99 726 99ZM726 251Q741 251 747.5 260Q754 269 754 283Q754 297 747.5 306.5Q741 316 726 316Q710 316 703.5 306.5Q697 297 697 283Q697 269 703.5 260Q710 251 726 251Z" glyph-name="oneeighth" horiz-adv-x="954" unicode="&#8539;" /><glyph d="M94 293V540L51 520H24V650L140 700H283V293ZM256 -34H114L607 729H749ZM890 1H561V129L675 218Q693 232 701 241Q709 250 709 259Q709 267 704 272.5Q699 278 685 278Q658 278 644 264H564V384Q593 398 631 407Q669 416 720 416Q814 416 858.5 383Q903 350 903 288Q903 265 896.5 246.5Q890 228 878.5 212.5Q867 197 850.5 183.5Q834 170 814 157L775 131H890Z" glyph-name="onehalf" horiz-adv-x="934" unicode="&#189;" /><glyph d="M94 293V540L51 520H24V650L140 700H283V293ZM261 -34H119L612 729H754ZM654 1V78H489V195L663 408H842V183H880V78H842V1ZM607 180H666V256H665L607 182Z" glyph-name="onequarter" horiz-adv-x="908" unicode="&#188;" /><glyph d="M94 293V540L51 520H24V650L140 700H283V293ZM250 -34H108L601 729H743ZM705 -8Q648 -8 613.5 1Q579 10 556 18V126H625Q633 122 646 118Q659 114 681 114Q718 114 718 136Q718 156 685 156H638V251H680Q718 251 718 272Q718 293 683 293Q664 293 653 288.5Q642 284 634 280H564V386Q589 399 630 407.5Q671 416 722 416Q759 416 790 409.5Q821 403 843 390Q865 377 877.5 357Q890 337 890 309Q890 264 871 242.5Q852 221 807 213V209Q858 204 879 179.5Q900 155 900 113Q900 55 851.5 23.5Q803 -8 705 -8Z" glyph-name="onethird" horiz-adv-x="927" unicode="&#8531;" /><glyph d="M334 258Q313 258 301 268Q289 278 284 295Q241 251 163 251Q137 251 113 258.5Q89 266 70.5 282Q52 298 40.5 322.5Q29 347 29 380Q29 452 74.5 483.5Q120 515 198 515Q219 515 238 514Q257 513 273 511V519Q273 542 259.5 550Q246 558 212 558Q186 558 165 553Q144 548 133 543H59V670Q97 686 146 697Q195 708 267 708Q384 708 436.5 666.5Q489 625 489 529V258ZM255 365Q265 365 273 369V430Q268 431 263 431.5Q258 432 255 432Q227 432 227 395Q227 377 236.5 371Q246 365 255 365Z" glyph-name="ordfeminine" horiz-adv-x="535" unicode="&#170;" /><glyph d="M285 250Q227 250 180 265.5Q133 281 99.5 310.5Q66 340 47.5 381.5Q29 423 29 476Q29 529 47.5 572Q66 615 99.5 645Q133 675 180 691.5Q227 708 285 708Q343 708 390 691.5Q437 675 470.5 645Q504 615 522.5 572Q541 529 541 476Q541 423 522.5 381.5Q504 340 470.5 310.5Q437 281 390 265.5Q343 250 285 250ZM285 377Q304 377 313.5 400.5Q323 424 323 475Q323 526 313.5 547.5Q304 569 285 569Q266 569 256 547.5Q246 526 246 475Q246 424 256 400.5Q266 377 285 377Z" glyph-name="ordmasculine" horiz-adv-x="570" unicode="&#186;" /><glyph d="M50 -6 109 62Q67 97 45 147.5Q23 198 23 262Q23 325 45.5 376.5Q68 428 108.5 464.5Q149 501 205.5 520.5Q262 540 331 540Q377 540 417.5 531Q458 522 492 505L533 552H612V529L555 463Q595 426 617 375.5Q639 325 639 262Q639 199 616.5 148.5Q594 98 553.5 63Q513 28 456.5 9Q400 -10 331 -10Q242 -10 173 22L129 -29H50ZM331 133Q358 133 372.5 163Q387 193 387 260V269L291 158Q306 133 331 133ZM274 253 368 362Q355 382 331 382Q304 382 289 354.5Q274 327 274 260Z" glyph-name="oslash" horiz-adv-x="662" unicode="&#248;" /><glyph d="M342 -10Q273 -10 216.5 9Q160 28 119.5 63Q79 98 56.5 148.5Q34 199 34 262Q34 325 56.5 376.5Q79 428 119.5 464.5Q160 501 216.5 520.5Q273 540 342 540Q411 540 467.5 520.5Q524 501 564.5 464.5Q605 428 627.5 376.5Q650 325 650 262Q650 199 627.5 148.5Q605 98 564.5 63Q524 28 467.5 9Q411 -10 342 -10ZM342 141Q365 141 377 169Q389 197 389 260Q389 323 377 348.5Q365 374 342 374Q319 374 306.5 348.5Q294 323 294 260Q294 197 306.5 169Q319 141 342 141ZM140 603Q149 659 180.5 693.5Q212 728 263 728Q300 728 330 718.5Q360 709 377 709Q397 709 403 728H516V682Q507 626 476.5 591Q446 556 397 556Q356 556 326 566Q296 576 279 576Q259 576 253 557H140Z" glyph-name="otilde" horiz-adv-x="658" unicode="&#245;" /><glyph d="M426 3Q342 3 302 36V-162H44V530H229Q255 530 270.5 517.5Q286 505 294 460Q323 497 362 518.5Q401 540 456 540Q492 540 526.5 528Q561 516 587.5 487Q614 458 630 408.5Q646 359 646 283Q646 205 628 151.5Q610 98 580 65Q550 32 510 17.5Q470 3 426 3ZM302 157Q311 154 326 154Q339 154 349.5 158Q360 162 368 174Q376 186 380.5 207Q385 228 385 261Q385 291 380.5 309.5Q376 328 368 338.5Q360 349 349.5 352.5Q339 356 326 356Q321 356 315 355.5Q309 355 302 354Z" glyph-name="p" horiz-adv-x="671" unicode="p" /><glyph d="M232 294H231Q186 294 148 305.5Q110 317 82.5 341Q55 365 40 403.5Q25 442 25 496Q25 553 44.5 592Q64 631 98 655Q132 679 178.5 689.5Q225 700 279 700H556V-91H418V558H370V-91H232Z" glyph-name="paragraph" horiz-adv-x="610" unicode="&#182;" /><glyph d="M383 599Q358 589 338 571Q318 553 303.5 523.5Q289 494 281 451.5Q273 409 273 349Q273 288 281 244Q289 200 303.5 170Q318 140 338 121.5Q358 103 383 93V-49H283Q236 -33 191 -3.5Q146 26 111 73Q76 120 54 188Q32 256 32 349Q32 443 55 510Q78 577 114 623.5Q150 670 194.5 698Q239 726 283 741H383Z" glyph-name="parenleft" horiz-adv-x="410" unicode="(" /><glyph d="M27 741H127Q170 726 215 698Q260 670 296 623.5Q332 577 355 510Q378 443 378 349Q378 256 356 188Q334 120 299 73Q264 26 218.5 -3.5Q173 -33 127 -49H27V93Q52 103 72 121.5Q92 140 106.5 170Q121 200 129 244Q137 288 137 349Q137 409 129 451.5Q121 494 106.5 523.5Q92 553 72 571Q52 589 27 599Z" glyph-name="parenright" horiz-adv-x="410" unicode=")" /><glyph d="M237 435Q256 435 264.5 451.5Q273 468 273 512Q273 556 264.5 573Q256 590 237 590Q219 590 210 573Q201 556 201 512Q201 468 210 451.5Q219 435 237 435ZM237 317Q196 317 158.5 329Q121 341 91.5 365.5Q62 390 44.5 427Q27 464 27 514Q27 564 44.5 601Q62 638 91.5 662Q121 686 158.5 698Q196 710 237 710Q277 710 315 698Q353 686 382.5 662Q412 638 429.5 601Q447 564 447 514Q447 464 429.5 427Q412 390 382.5 365.5Q353 341 315 329Q277 317 237 317ZM310 -34H168L661 729H803ZM738 108Q757 108 765.5 124.5Q774 141 774 185Q774 229 765.5 246Q757 263 738 263Q720 263 711 246Q702 229 702 185Q702 141 711 124.5Q720 108 738 108ZM738 -10Q697 -10 659.5 2Q622 14 592.5 38.5Q563 63 545.5 100Q528 137 528 187Q528 237 545.5 274Q563 311 592.5 335Q622 359 659.5 371Q697 383 738 383Q778 383 816 371Q854 359 883.5 335Q913 311 930.5 274Q948 237 948 187Q948 137 930.5 100Q913 63 883.5 38.5Q854 14 816 2Q778 -10 738 -10Z" glyph-name="percent" horiz-adv-x="975" unicode="%" /><glyph d="M142 -8Q116 -8 94 1Q72 10 55.5 25.5Q39 41 29.5 62Q20 83 20 107Q20 131 29.5 152Q39 173 55.5 188.5Q72 204 94 213Q116 222 142 222Q167 222 189.5 213Q212 204 228.5 188.5Q245 173 254.5 152Q264 131 264 107Q264 83 254.5 62Q245 41 228.5 25.5Q212 10 189.5 1Q167 -8 142 -8Z" glyph-name="period" horiz-adv-x="284" unicode="." /><glyph d="M142 177Q116 177 94 186Q72 195 55.5 210.5Q39 226 29.5 247Q20 268 20 292Q20 316 29.5 337Q39 358 55.5 373.5Q72 389 94 398Q116 407 142 407Q167 407 189.5 398Q212 389 228.5 373.5Q245 358 254.5 337Q264 316 264 292Q264 268 254.5 247Q245 226 228.5 210.5Q212 195 189.5 186Q167 177 142 177Z" glyph-name="periodcentered" horiz-adv-x="284" unicode="&#183;" /><glyph d="M237 435Q256 435 264.5 451.5Q273 468 273 512Q273 556 264.5 573Q256 590 237 590Q219 590 210 573Q201 556 201 512Q201 468 210 451.5Q219 435 237 435ZM237 317Q196 317 158.5 329Q121 341 91.5 365.5Q62 390 44.5 427Q27 464 27 514Q27 564 44.5 601Q62 638 91.5 662Q121 686 158.5 698Q196 710 237 710Q277 710 315 698Q353 686 382.5 662Q412 638 429.5 601Q447 564 447 514Q447 464 429.5 427Q412 390 382.5 365.5Q353 341 315 329Q277 317 237 317ZM310 -34H168L661 729H803ZM738 108Q757 108 765.5 124.5Q774 141 774 185Q774 229 765.5 246Q757 263 738 263Q720 263 711 246Q702 229 702 185Q702 141 711 124.5Q720 108 738 108ZM738 -10Q697 -10 659.5 2Q622 14 592.5 38.5Q563 63 545.5 100Q528 137 528 187Q528 237 545.5 274Q563 311 592.5 335Q622 359 659.5 371Q697 383 738 383Q778 383 816 371Q854 359 883.5 335Q913 311 930.5 274Q948 237 948 187Q948 137 930.5 100Q913 63 883.5 38.5Q854 14 816 2Q778 -10 738 -10ZM1182 108Q1201 108 1209.5 124.5Q1218 141 1218 185Q1218 229 1209.5 246Q1201 263 1182 263Q1164 263 1155 246Q1146 229 1146 185Q1146 141 1155 124.5Q1164 108 1182 108ZM1182 -10Q1141 -10 1103.5 2Q1066 14 1036.5 38.5Q1007 63 989.5 100Q972 137 972 187Q972 237 989.5 274Q1007 311 1036.5 335Q1066 359 1103.5 371Q1141 383 1182 383Q1222 383 1260 371Q1298 359 1327.5 335Q1357 311 1374.5 274Q1392 237 1392 187Q1392 137 1374.5 100Q1357 63 1327.5 38.5Q1298 14 1260 2Q1222 -10 1182 -10Z" glyph-name="perthousand" horiz-adv-x="1419" unicode="&#8240;" /><glyph d="M392 248V88H180V248H32V443H180V603H392V443H539V248Z" glyph-name="plus" horiz-adv-x="571" unicode="+" /><glyph d="M369 37Q346 19 312 11Q278 3 236 3Q192 3 153.5 17.5Q115 32 86.5 64Q58 96 41.5 148Q25 200 25 274Q25 353 45 404.5Q65 456 96 486Q127 516 165.5 528Q204 540 240 540Q290 540 323.5 520Q357 500 386 460Q399 494 419 512Q439 530 473 530H627V-162H369ZM345 154Q358 154 369 157V354Q362 355 356 355.5Q350 356 345 356Q332 356 321.5 352.5Q311 349 303 338.5Q295 328 290.5 309.5Q286 291 286 261Q286 228 290.5 207Q295 186 303 174Q311 162 321.5 158Q332 154 345 154Z" glyph-name="q" horiz-adv-x="671" unicode="q" /><glyph d="M114 247Q106 281 106.5 307Q107 333 114.5 353Q122 373 135.5 389Q149 405 166 420Q194 444 216 459.5Q238 475 238 492Q238 523 189 523Q163 523 146.5 515Q130 507 118 499H21V659Q58 679 110.5 695.5Q163 712 243 712Q310 712 358 698Q406 684 437.5 657.5Q469 631 484 594.5Q499 558 499 513Q499 478 488.5 451Q478 424 460 402.5Q442 381 418.5 364.5Q395 348 370 333Q336 313 318.5 294.5Q301 276 304 247ZM211 -8Q185 -8 163 1Q141 10 124.5 25.5Q108 41 98.5 62Q89 83 89 107Q89 131 98.5 152Q108 173 124.5 188.5Q141 204 163 213Q185 222 211 222Q236 222 258.5 213Q281 204 297.5 188.5Q314 173 323.5 152Q333 131 333 107Q333 83 323.5 62Q314 41 297.5 25.5Q281 10 258.5 1Q236 -8 211 -8Z" glyph-name="question" horiz-adv-x="524" unicode="?" /><glyph d="M410 393Q418 359 417.5 333Q417 307 409.5 287Q402 267 388.5 251Q375 235 358 220Q330 196 308 180.5Q286 165 286 148Q286 117 335 117Q361 117 377.5 125Q394 133 406 141H503V-19Q466 -39 413.5 -55.5Q361 -72 281 -72Q214 -72 166 -58Q118 -44 86.5 -17.5Q55 9 40 45.5Q25 82 25 127Q25 162 35.5 189Q46 216 64 237.5Q82 259 105 275.5Q128 292 154 307Q188 327 205.5 345.5Q223 364 220 393ZM313 648Q338 648 360.5 639Q383 630 399.5 614.5Q416 599 425.5 578Q435 557 435 533Q435 509 425.5 488Q416 467 399.5 451.5Q383 436 360.5 427Q338 418 313 418Q288 418 265.5 427Q243 436 226.5 451.5Q210 467 200.5 488Q191 509 191 533Q191 557 200.5 578Q210 599 226.5 614.5Q243 630 265.5 639Q288 648 313 648Z" glyph-name="questiondown" horiz-adv-x="524" unicode="&#191;" /><glyph d="M33 586V700H241V586L216 416H58ZM273 586V700H481V586L456 416H298Z" glyph-name="quotedbl" horiz-adv-x="514" unicode="&quot;" /><glyph d="M32 -12Q61 -7 82.5 2.5Q104 12 104 29Q104 43 88.5 49.5Q73 56 59 68Q48 78 37.5 94Q27 110 27 138Q27 182 58.5 208Q90 234 138 234Q163 234 186 226Q209 218 226 201Q243 184 253.5 157.5Q264 131 264 95Q264 -90 32 -106ZM293 -12Q322 -7 343.5 2.5Q365 12 365 29Q365 43 349.5 49.5Q334 56 320 68Q309 78 298.5 94Q288 110 288 138Q288 182 319.5 208Q351 234 399 234Q424 234 447 226Q470 218 487 201Q504 184 514.5 157.5Q525 131 525 95Q525 -90 293 -106Z" glyph-name="quotedblbase" horiz-adv-x="552" unicode="&#8222;" /><glyph d="M520 608Q491 603 469.5 593.5Q448 584 448 567Q448 553 463.5 546.5Q479 540 493 528Q504 518 514.5 502Q525 486 525 458Q525 414 493.5 388Q462 362 414 362Q389 362 366 370Q343 378 326 395Q309 412 298.5 438.5Q288 465 288 501Q288 686 520 702ZM259 608Q230 603 208.5 593.5Q187 584 187 567Q187 553 202.5 546.5Q218 540 232 528Q243 518 253.5 502Q264 486 264 458Q264 414 232.5 388Q201 362 153 362Q128 362 105 370Q82 378 65 395Q48 412 37.5 438.5Q27 465 27 501Q27 686 259 702Z" glyph-name="quotedblleft" horiz-adv-x="552" unicode="&#8220;" /><glyph d="M32 465Q61 470 82.5 479.5Q104 489 104 506Q104 520 88.5 526.5Q73 533 59 545Q48 555 37.5 571Q27 587 27 615Q27 659 58.5 685Q90 711 138 711Q163 711 186 703Q209 695 226 678Q243 661 253.5 634.5Q264 608 264 572Q264 387 32 371ZM293 465Q322 470 343.5 479.5Q365 489 365 506Q365 520 349.5 526.5Q334 533 320 545Q309 555 298.5 571Q288 587 288 615Q288 659 319.5 685Q351 711 399 711Q424 711 447 703Q470 695 487 678Q504 661 514.5 634.5Q525 608 525 572Q525 387 293 371Z" glyph-name="quotedblright" horiz-adv-x="552" unicode="&#8221;" /><glyph d="M259 608Q230 603 208.5 593.5Q187 584 187 567Q187 553 202.5 546.5Q218 540 232 528Q243 518 253.5 502Q264 486 264 458Q264 414 232.5 388Q201 362 153 362Q128 362 105 370Q82 378 65 395Q48 412 37.5 438.5Q27 465 27 501Q27 686 259 702Z" glyph-name="quoteleft" horiz-adv-x="291" unicode="&#8216;" /><glyph d="M32 465Q61 470 82.5 479.5Q104 489 104 506Q104 520 88.5 526.5Q73 533 59 545Q48 555 37.5 571Q27 587 27 615Q27 659 58.5 685Q90 711 138 711Q163 711 186 703Q209 695 226 678Q243 661 253.5 634.5Q264 608 264 572Q264 387 32 371Z" glyph-name="quoteright" horiz-adv-x="291" unicode="&#8217;" /><glyph d="M32 -12Q61 -7 82.5 2.5Q104 12 104 29Q104 43 88.5 49.5Q73 56 59 68Q48 78 37.5 94Q27 110 27 138Q27 182 58.5 208Q90 234 138 234Q163 234 186 226Q209 218 226 201Q243 184 253.5 157.5Q264 131 264 95Q264 -90 32 -106Z" glyph-name="quotesinglbase" horiz-adv-x="291" unicode="&#8218;" /><glyph d="M33 586V700H241V586L216 416H58Z" glyph-name="quotesingle" horiz-adv-x="274" unicode="'" /><glyph d="M449 319Q404 319 365 316Q326 313 302 309V0H44V530H229Q243 530 254 526.5Q265 523 273 513.5Q281 504 287 486Q293 468 296 440Q325 487 357.5 510Q390 533 437 533Q455 533 469 530V319Z" glyph-name="r" horiz-adv-x="490" unicode="r" /><glyph d="M202 350Q165 350 131.5 362Q98 374 72 397Q46 420 30.5 453.5Q15 487 15 529Q15 572 30.5 605Q46 638 72 661Q98 684 131.5 696Q165 708 202 708Q238 708 272 696Q306 684 332 661Q358 638 373.5 605Q389 572 389 529Q389 487 373.5 453.5Q358 420 332 397Q306 374 272 362Q238 350 202 350ZM202 395Q230 395 254 403.5Q278 412 296 428.5Q314 445 324.5 470.5Q335 496 335 529Q335 562 324.5 587Q314 612 296 629Q278 646 254 654.5Q230 663 202 663Q174 663 150 654.5Q126 646 108 629Q90 612 79.5 587Q69 562 69 529Q69 496 79.5 470.5Q90 445 108 428.5Q126 412 150 403.5Q174 395 202 395ZM291 442H225L202 495H195V442H122V620H208Q288 620 288 556Q288 542 282 531.5Q276 521 266 513L291 461ZM193 539H200Q217 539 217 556Q217 574 200 574H193Z" glyph-name="registered" horiz-adv-x="404" unicode="&#174;" /><glyph d="M209 554Q187 554 167 561Q147 568 131.5 581.5Q116 595 107 614.5Q98 634 98 658Q98 682 107 701.5Q116 721 131.5 734.5Q147 748 167 755.5Q187 763 209 763Q231 763 251 755.5Q271 748 286.5 734.5Q302 721 311 701.5Q320 682 320 658Q320 634 311 614.5Q302 595 286.5 581.5Q271 568 251 561Q231 554 209 554ZM209 629Q222 629 229.5 637Q237 645 237 658Q237 672 229.5 680Q222 688 209 688Q197 688 189.5 680Q182 672 182 658Q182 645 189.5 637Q197 629 209 629Z" glyph-name="ring" horiz-adv-x="418" unicode="&#730;" /><glyph d="M209 722Q187 722 167 729Q147 736 131.5 749.5Q116 763 107 782.5Q98 802 98 826Q98 850 107 869.5Q116 889 131.5 902.5Q147 916 167 923.5Q187 931 209 931Q231 931 251 923.5Q271 916 286.5 902.5Q302 889 311 869.5Q320 850 320 826Q320 802 311 782.5Q302 763 286.5 749.5Q271 736 251 729Q231 722 209 722ZM209 797Q222 797 229.5 805Q237 813 237 826Q237 840 229.5 848Q222 856 209 856Q197 856 189.5 848Q182 840 182 826Q182 813 189.5 805Q197 797 209 797Z" glyph-name="ring.cap" horiz-adv-x="418" /><glyph d="M234 -9Q156 -9 108.5 3Q61 15 27 30V173H120Q132 162 162 153Q192 144 226 144Q245 144 262 145.5Q279 147 279 158Q279 164 275 167Q271 170 261.5 172Q252 174 235 176Q218 178 192 182Q153 188 121 198Q89 208 66.5 227Q44 246 31.5 276.5Q19 307 19 354Q19 404 39 439.5Q59 475 93.5 497.5Q128 520 174 530Q220 540 273 540Q311 540 340.5 538Q370 536 395 532Q420 528 441 522Q462 516 482 509V368H393Q376 379 351 386Q326 393 288 393Q262 393 251 389.5Q240 386 240 378Q240 368 255 365Q270 362 314 357Q358 352 394 343Q430 334 455 315.5Q480 297 493.5 267Q507 237 507 189Q507 91 439 41Q371 -9 234 -9Z" glyph-name="s" horiz-adv-x="526" unicode="s" /><glyph d="M234 -9Q156 -9 108.5 3Q61 15 27 30V173H120Q132 162 162 153Q192 144 226 144Q245 144 262 145.5Q279 147 279 158Q279 164 275 167Q271 170 261.5 172Q252 174 235 176Q218 178 192 182Q153 188 121 198Q89 208 66.5 227Q44 246 31.5 276.5Q19 307 19 354Q19 404 39 439.5Q59 475 93.5 497.5Q128 520 174 530Q220 540 273 540Q311 540 340.5 538Q370 536 395 532Q420 528 441 522Q462 516 482 509V368H393Q376 379 351 386Q326 393 288 393Q262 393 251 389.5Q240 386 240 378Q240 368 255 365Q270 362 314 357Q358 352 394 343Q430 334 455 315.5Q480 297 493.5 267Q507 237 507 189Q507 91 439 41Q371 -9 234 -9ZM447 669 355 558H185L93 669V710H230L273 679L315 710H447Z" glyph-name="scaron" horiz-adv-x="528" unicode="&#353;" /><glyph d="M27 268Q27 319 51 354Q75 389 114 409Q83 447 83 515Q83 561 100.5 597.5Q118 634 150.5 659.5Q183 685 228.5 698.5Q274 712 330 712Q402 712 448.5 703Q495 694 533 682V539H445Q426 550 400 559Q374 568 339 568Q313 568 301.5 564.5Q290 561 290 551Q290 542 304 536Q318 530 355 521Q413 506 460 491.5Q507 477 540 455Q573 433 591 401Q609 369 609 320Q609 264 584.5 229.5Q560 195 518 172Q553 131 553 71Q553 24 538 -14.5Q523 -53 491.5 -80Q460 -107 411 -121.5Q362 -136 295 -136Q220 -136 170.5 -124Q121 -112 86 -96V45H174Q180 39 192 33.5Q204 28 219.5 23.5Q235 19 252 16.5Q269 14 286 14Q318 14 328.5 20Q339 26 339 36Q339 41 336 44Q333 47 325.5 50Q318 53 303.5 56Q289 59 267 65Q205 80 160 97Q115 114 85.5 137Q56 160 41.5 191.5Q27 223 27 268ZM303 274Q363 259 407 241Q409 244 410 248Q411 252 411 258Q411 268 407 276Q403 284 393 290.5Q383 297 365 303Q347 309 320 316Q291 323 265.5 330Q240 337 218 345Q216 335 216 331Q216 320 219 313Q222 306 231 299.5Q240 293 257 287Q274 281 303 274Z" glyph-name="section" horiz-adv-x="636" unicode="&#167;" /><glyph d="M24 -28Q59 -24 79 -14.5Q99 -5 99 9Q99 16 95 21Q91 26 84.5 30Q78 34 70 38.5Q62 43 55 49Q43 59 32.5 76Q22 93 22 122Q22 166 55 194Q88 222 140 222Q165 222 188 213.5Q211 205 228.5 188Q246 171 256.5 144Q267 117 267 80Q267 -14 206 -64Q145 -114 24 -125ZM144 260Q118 260 96 269Q74 278 57.5 293.5Q41 309 31.5 330Q22 351 22 375Q22 399 31.5 420Q41 441 57.5 456.5Q74 472 96 481Q118 490 144 490Q169 490 191.5 481Q214 472 230.5 456.5Q247 441 256.5 420Q266 399 266 375Q266 351 256.5 330Q247 309 230.5 293.5Q214 278 191.5 269Q169 260 144 260Z" glyph-name="semicolon" horiz-adv-x="289" unicode=";" /><glyph d="M79 57 316 488V492H28V700H550V485L366 0H79Z" glyph-name="seven" horiz-adv-x="582" unicode="7" /><glyph d="M63 330 191 557V559H28V700H362V556L258 293H63ZM265 -34H123L616 729H758ZM753 -4Q646 -4 596.5 29Q547 62 547 119Q547 157 566 182Q585 207 630 217V219Q594 227 578 250Q562 273 562 305Q562 356 614 386Q666 416 753 416Q841 416 892 386Q943 356 943 305Q943 273 927 250Q911 227 875 219V217Q919 207 938.5 182Q958 157 958 119Q958 62 909 29Q860 -4 753 -4ZM753 99Q769 99 776.5 110Q784 121 784 138Q784 155 776.5 166.5Q769 178 753 178Q737 178 729 166.5Q721 155 721 138Q721 121 729 110Q737 99 753 99ZM753 251Q768 251 774.5 260Q781 269 781 283Q781 297 774.5 306.5Q768 316 753 316Q737 316 730.5 306.5Q724 297 724 283Q724 269 730.5 260Q737 251 753 251Z" glyph-name="seveneighths" horiz-adv-x="981" unicode="&#8542;" /><glyph d="M367 -12Q290 -12 227.5 7Q165 26 121 67.5Q77 109 53 175Q29 241 29 335Q29 515 129.5 613.5Q230 712 424 712Q498 712 547.5 699Q597 686 627 672V491H529Q513 499 489.5 505Q466 511 429 511Q381 511 350 489.5Q319 468 307 409Q339 430 380 439Q421 448 461 448Q506 448 543.5 436Q581 424 608.5 398.5Q636 373 651 334.5Q666 296 666 242Q666 122 588.5 55Q511 -12 367 -12ZM345 291Q321 291 301 286Q302 243 306 217.5Q310 192 316.5 178Q323 164 332 159.5Q341 155 352 155Q378 155 389 171.5Q400 188 400 226Q400 264 388.5 277.5Q377 291 345 291Z" glyph-name="six" horiz-adv-x="692" unicode="6" /><glyph d="M12 -3 240 741H415V695L187 -49H12Z" glyph-name="slash" horiz-adv-x="429" unicode="/" /><glyph glyph-name="space" horiz-adv-x="145" unicode=" " /><glyph d="M122 -173Q150 -171 161.5 -168Q173 -165 173 -155Q173 -149 166 -145Q159 -141 151 -137Q134 -129 125.5 -117Q117 -105 117 -85Q117 -54 142.5 -36.5Q168 -19 213 -19Q258 -19 285 -42.5Q312 -66 312 -114Q312 -177 267 -208.5Q222 -240 122 -243Z" glyph-name="space_uni0326" horiz-adv-x="418" /><glyph d="M329 264Q324 238 312.5 220.5Q301 203 292 195H578V0H27V161Q58 172 79.5 197.5Q101 223 102 264H33V416H75Q69 435 65.5 454.5Q62 474 62 497Q62 600 132 656Q202 712 342 712Q417 712 476 696Q535 680 579 653V476H464Q455 487 438.5 498Q422 509 391 509Q360 509 343 495Q326 481 326 449V416H471V264Z" glyph-name="sterling" horiz-adv-x="611" unicode="&#163;" /><glyph d="M18 530H64V652H322V530H400V375H322V200Q322 170 334 157.5Q346 145 380 145H402V4Q381 -2 348.5 -7Q316 -12 274 -12Q227 -12 188.5 -5Q150 2 122 20.5Q94 39 79 71Q64 103 64 152V375H18Z" glyph-name="t" horiz-adv-x="429" unicode="t" /><glyph d="M302 469Q330 502 367.5 521Q405 540 456 540Q492 540 526.5 527Q561 514 587.5 484Q614 454 630 404Q646 354 646 280Q646 132 593 60.5Q540 -11 437 -11Q354 -11 302 32V-162H44V700H217Q244 700 260.5 695.5Q277 691 286 677.5Q295 664 298.5 640Q302 616 302 577ZM326 356Q321 356 315 355.5Q309 355 302 354V150Q311 147 326 147Q339 147 349.5 152Q360 157 368 169.5Q376 182 380.5 204Q385 226 385 261Q385 291 380.5 309.5Q376 328 368 338.5Q360 349 349.5 352.5Q339 356 326 356Z" glyph-name="thorn" horiz-adv-x="671" unicode="&#254;" /><glyph d="M254 -12Q165 -12 111 1.5Q57 15 19 32V192H120Q136 181 163 175Q190 169 225 169Q257 169 278 181Q299 193 299 218Q299 243 283 254.5Q267 266 229 266H161V427H225Q262 427 279 440Q296 453 296 473Q296 493 279.5 505.5Q263 518 232 518Q202 518 178 513Q154 508 137 500H36V659Q81 684 143 698Q205 712 282 712Q343 712 394.5 701Q446 690 483.5 667Q521 644 542 609Q563 574 563 526Q563 454 527 413.5Q491 373 421 358V354Q502 344 539.5 305Q577 266 577 194Q577 96 494.5 42Q412 -12 254 -12Z" glyph-name="three" horiz-adv-x="603" unicode="3" /><glyph d="M174 284Q117 284 82.5 293Q48 302 25 310V418H94Q102 414 115 410Q128 406 150 406Q187 406 187 428Q187 448 154 448H107V543H149Q187 543 187 564Q187 585 152 585Q133 585 122 580.5Q111 576 103 572H33V678Q58 691 99 699.5Q140 708 191 708Q228 708 259 701.5Q290 695 312 682Q334 669 346.5 649Q359 629 359 601Q359 556 340 534.5Q321 513 276 505V501Q327 496 348 471.5Q369 447 369 405Q369 347 320.5 315.5Q272 284 174 284Z" glyph-name="three.superior" horiz-adv-x="396" unicode="&#179;" /><glyph d="M174 284Q117 284 82.5 293Q48 302 25 310V418H94Q102 414 115 410Q128 406 150 406Q187 406 187 428Q187 448 154 448H107V543H149Q187 543 187 564Q187 585 152 585Q133 585 122 580.5Q111 576 103 572H33V678Q58 691 99 699.5Q140 708 191 708Q228 708 259 701.5Q290 695 312 682Q334 669 346.5 649Q359 629 359 601Q359 556 340 534.5Q321 513 276 505V501Q327 496 348 471.5Q369 447 369 405Q369 347 320.5 315.5Q272 284 174 284ZM286 -34H144L637 729H779ZM750 -4Q643 -4 593.5 29Q544 62 544 119Q544 157 563 182Q582 207 627 217V219Q591 227 575 250Q559 273 559 305Q559 356 611 386Q663 416 750 416Q838 416 889 386Q940 356 940 305Q940 273 924 250Q908 227 872 219V217Q916 207 935.5 182Q955 157 955 119Q955 62 906 29Q857 -4 750 -4ZM750 99Q766 99 773.5 110Q781 121 781 138Q781 155 773.5 166.5Q766 178 750 178Q734 178 726 166.5Q718 155 718 138Q718 121 726 110Q734 99 750 99ZM750 251Q765 251 771.5 260Q778 269 778 283Q778 297 771.5 306.5Q765 316 750 316Q734 316 727.5 306.5Q721 297 721 283Q721 269 727.5 260Q734 251 750 251Z" glyph-name="threeeighths" horiz-adv-x="978" unicode="&#8540;" /><glyph d="M174 284Q117 284 82.5 293Q48 302 25 310V418H94Q102 414 115 410Q128 406 150 406Q187 406 187 428Q187 448 154 448H107V543H149Q187 543 187 564Q187 585 152 585Q133 585 122 580.5Q111 576 103 572H33V678Q58 691 99 699.5Q140 708 191 708Q228 708 259 701.5Q290 695 312 682Q334 669 346.5 649Q359 629 359 601Q359 556 340 534.5Q321 513 276 505V501Q327 496 348 471.5Q369 447 369 405Q369 347 320.5 315.5Q272 284 174 284ZM297 -34H155L648 729H790ZM674 1V78H509V195L683 408H862V183H900V78H862V1ZM627 180H686V256H685L627 182Z" glyph-name="threequarters" horiz-adv-x="928" unicode="&#190;" /><glyph d="M21 603Q30 659 61.5 693.5Q93 728 144 728Q181 728 211 718.5Q241 709 258 709Q278 709 284 728H397V682Q388 626 357.5 591Q327 556 278 556Q237 556 207 566Q177 576 160 576Q140 576 134 557H21Z" glyph-name="tilde" horiz-adv-x="418" unicode="&#732;" /><glyph d="M21 771Q30 827 61.5 860Q93 893 144 893Q181 893 211 883.5Q241 874 258 874Q278 874 284 893H397V847Q388 791 357.5 757.5Q327 724 278 724Q237 724 207 734Q177 744 160 744Q140 744 134 725H21Z" glyph-name="tilde.cap" horiz-adv-x="418" /><glyph d="M112 420V605H40V700H311V605H239V420ZM343 700H508L538 591H540L569 700H741V420H614V565H612L572 420H490L448 565H446V420H343Z" glyph-name="trademark" horiz-adv-x="789" unicode="&#8482;" /><glyph d="M567 0H32V200L220 364Q260 399 279.5 422.5Q299 446 299 469Q299 487 285.5 498Q272 509 242 509Q213 509 192.5 499.5Q172 490 158 476H43V657Q87 680 148.5 696Q210 712 298 712Q433 712 506 659Q579 606 579 488Q579 452 569 421.5Q559 391 539.5 363.5Q520 336 492 310.5Q464 285 428 258L344 195H567Z" glyph-name="two" horiz-adv-x="605" unicode="2" /><glyph d="M356 293H27V421L141 510Q159 524 167 533Q175 542 175 551Q175 559 170 564.5Q165 570 151 570Q124 570 110 556H30V676Q59 690 97 699Q135 708 186 708Q280 708 324.5 675Q369 642 369 580Q369 557 362.5 538.5Q356 520 344.5 504.5Q333 489 316.5 475.5Q300 462 280 449L241 423H356Z" glyph-name="two.superior" horiz-adv-x="400" unicode="&#178;" /><glyph d="M356 293H27V421L141 510Q159 524 167 533Q175 542 175 551Q175 559 170 564.5Q165 570 151 570Q124 570 110 556H30V676Q59 690 97 699Q135 708 186 708Q280 708 324.5 675Q369 642 369 580Q369 557 362.5 538.5Q356 520 344.5 504.5Q333 489 316.5 475.5Q300 462 280 449L241 423H356ZM318 -34H176L669 729H811ZM766 -8Q709 -8 674.5 1Q640 10 617 18V126H686Q694 122 707 118Q720 114 742 114Q779 114 779 136Q779 156 746 156H699V251H741Q779 251 779 272Q779 293 744 293Q725 293 714 288.5Q703 284 695 280H625V386Q650 399 691 407.5Q732 416 783 416Q820 416 851 409.5Q882 403 904 390Q926 377 938.5 357Q951 337 951 309Q951 264 932 242.5Q913 221 868 213V209Q919 204 940 179.5Q961 155 961 113Q961 55 912.5 23.5Q864 -8 766 -8Z" glyph-name="twothirds" horiz-adv-x="988" unicode="&#8532;" /><glyph d="M627 530V0H442Q428 0 416.5 2.5Q405 5 397 13.5Q389 22 383 38.5Q377 55 374 83Q358 65 340.5 48.5Q323 32 302 19Q281 6 255 -2Q229 -10 196 -10Q164 -10 136 -2Q108 6 87 26Q66 46 53.5 78.5Q41 111 41 161V530H299V211Q299 187 312.5 180.5Q326 174 355 174H369V530Z" glyph-name="u" horiz-adv-x="671" unicode="u" /><glyph d="M627 530V0H442Q428 0 416.5 2.5Q405 5 397 13.5Q389 22 383 38.5Q377 55 374 83Q358 65 340.5 48.5Q323 32 302 19Q281 6 255 -2Q229 -10 196 -10Q164 -10 136 -2Q108 6 87 26Q66 46 53.5 78.5Q41 111 41 161V530H299V211Q299 187 312.5 180.5Q326 174 355 174H369V530ZM256 558V595L289 710H520V666L412 558Z" glyph-name="uacute" horiz-adv-x="673" unicode="&#250;" /><glyph d="M627 530V0H442Q428 0 416.5 2.5Q405 5 397 13.5Q389 22 383 38.5Q377 55 374 83Q358 65 340.5 48.5Q323 32 302 19Q281 6 255 -2Q229 -10 196 -10Q164 -10 136 -2Q108 6 87 26Q66 46 53.5 78.5Q41 111 41 161V530H299V211Q299 187 312.5 180.5Q326 174 355 174H369V530ZM159 599 251 710H421L513 599V558H376L333 589L291 558H159Z" glyph-name="ucircumflex" horiz-adv-x="673" unicode="&#251;" /><glyph d="M627 530V0H442Q428 0 416.5 2.5Q405 5 397 13.5Q389 22 383 38.5Q377 55 374 83Q358 65 340.5 48.5Q323 32 302 19Q281 6 255 -2Q229 -10 196 -10Q164 -10 136 -2Q108 6 87 26Q66 46 53.5 78.5Q41 111 41 161V530H299V211Q299 187 312.5 180.5Q326 174 355 174H369V530ZM220 546Q171 546 142 570.5Q113 595 113 640Q113 685 142 709.5Q171 734 220 734Q268 734 297 709.5Q326 685 326 640Q326 595 297 570.5Q268 546 220 546ZM452 546Q404 546 375 570.5Q346 595 346 640Q346 685 375 709.5Q404 734 452 734Q501 734 530 709.5Q559 685 559 640Q559 595 530 570.5Q501 546 452 546Z" glyph-name="udieresis" horiz-adv-x="673" unicode="&#252;" /><glyph d="M627 530V0H442Q428 0 416.5 2.5Q405 5 397 13.5Q389 22 383 38.5Q377 55 374 83Q358 65 340.5 48.5Q323 32 302 19Q281 6 255 -2Q229 -10 196 -10Q164 -10 136 -2Q108 6 87 26Q66 46 53.5 78.5Q41 111 41 161V530H299V211Q299 187 312.5 180.5Q326 174 355 174H369V530ZM263 558 155 666V710H386L419 595V558Z" glyph-name="ugrave" horiz-adv-x="673" unicode="&#249;" /><glyph d="M7 -162V-14H414V-162Z" glyph-name="underscore" horiz-adv-x="421" unicode="_" /><glyph d="M18 483V530H269L335 278H338L402 530H622V483L449 0H191Z" glyph-name="v" horiz-adv-x="640" unicode="v" /><glyph d="M20 480V530H269L318 296H321L378 530H554L611 296H614L664 530H877V480L736 0H505L450 221H447L388 0H160Z" glyph-name="w" horiz-adv-x="897" unicode="w" /><glyph d="M21 50 152 271 32 480V530H293L352 407L410 530H620V480L513 283L639 50V0H379L314 141L247 0H21Z" glyph-name="x" horiz-adv-x="660" unicode="x" /><glyph d="M127 -115 192 23 18 483V530H268L335 290H339L403 530H622V483L379 -162H127Z" glyph-name="y" horiz-adv-x="640" unicode="y" /><glyph d="M127 -115 192 23 18 483V530H268L335 290H339L403 530H622V483L379 -162H127ZM252 558V595L285 710H516V666L408 558Z" glyph-name="yacute" horiz-adv-x="642" unicode="&#253;" /><glyph d="M127 -115 192 23 18 483V530H268L335 290H339L403 530H622V483L379 -162H127ZM216 546Q167 546 138 570.5Q109 595 109 640Q109 685 138 709.5Q167 734 216 734Q264 734 293 709.5Q322 685 322 640Q322 595 293 570.5Q264 546 216 546ZM448 546Q400 546 371 570.5Q342 595 342 640Q342 685 371 709.5Q400 734 448 734Q497 734 526 709.5Q555 685 555 640Q555 595 526 570.5Q497 546 448 546Z" glyph-name="ydieresis" horiz-adv-x="642" unicode="&#255;" /><glyph d="M53 388H155L21 647V700H280L358 507H361L438 700H666V647L531 388H637V277H480V247H637V136H480V0H210V136H53V247H210V277H53Z" glyph-name="yen" horiz-adv-x="687" unicode="&#165;" /><glyph d="M28 169 225 358H34V530H537V356L340 167H539V0H28Z" glyph-name="z" horiz-adv-x="567" unicode="z" /><glyph d="M28 169 225 358H34V530H537V356L340 167H539V0H28ZM462 669 370 558H200L108 669V710H245L288 679L330 710H462Z" glyph-name="zcaron" horiz-adv-x="569" unicode="&#382;" /><glyph d="M369 -12Q295 -12 232.5 12Q170 36 125 82Q80 128 54.5 195.5Q29 263 29 350Q29 437 55.5 504.5Q82 572 128 618Q174 664 236 688Q298 712 369 712Q440 712 502 688Q564 664 610 618Q656 572 682.5 504.5Q709 437 709 350Q709 263 683.5 195.5Q658 128 613 82Q568 36 505.5 12Q443 -12 369 -12ZM369 169Q406 169 421 210Q436 251 436 345Q436 439 421 477Q406 515 369 515Q332 515 317 477Q302 439 302 345Q302 251 317 210Q332 169 369 169Z" glyph-name="zero" horiz-adv-x="738" unicode="0" /></font>
</defs>
</svg>
